<?xml version="1.0" standalone="no"?>
<!DOCTYPE svg PUBLIC "-//W3C//DTD SVG 1.1//EN" "http://www.w3.org/Graphics/SVG/1.1/DTD/svg11.dtd" >
<svg xmlns="http://www.w3.org/2000/svg" xmlns:xlink="http://www.w3.org/1999/xlink" version="1.1">
<metadata>
Created by FontForge 20201107 at Mon Feb 10 00:46:08 2025
 By 
Original Fonts are (c) Bitstream. OpenDyslexic changes and additional glyphs by Abelardo Gonzalez are licensed under a Creative Commons Attribution 3.0 Unported License.
Based on a work at http://dyslexicfonts.com. 2012 by Abelardo Gonzalez. Copying is an act of love. Please copy.
Bitstream license available here: http://opendyslexic.org/legal/
</metadata>
<defs>
<font id="OpenDyslexicAlta-BoldItalic" horiz-adv-x="3287" >
  <font-face 
    font-family="OpenDyslexicAlta"
    font-weight="700"
    font-style="italic"
    font-stretch="normal"
    units-per-em="2048"
    panose-1="0 0 8 0 0 0 0 0 0 0"
    ascent="1638"
    descent="-410"
    x-height="2271"
    cap-height="3045"
    bbox="-356 -2212 5272 4923"
    underline-thickness="102"
    underline-position="-436"
    slope="-12"
    unicode-range="U+0020-FB02"
  />
<missing-glyph horiz-adv-x="3162" 
d="M1706 2865q506 0 1077 82q-305 -1888 -319 -3656q-519 74 -1037 74q-520 0 -999 -67l-47 47q276 1730 311 3602q534 -82 1014 -82zM2214 -53q75 1449 256 2693q-425 -37 -780 -37q-366 0 -740 35q-53 -1367 -219 -2691q372 24 750 24q249 0 368 -4q93 -3 365 -20z" />
    <glyph glyph-name="fi" unicode="fi" horiz-adv-x="3039" 
d="M2568 2224l-41 43q-439 -22 -942 -22h-305l4 30q-3 3 0 27q5 79 11.5 130t27 118t55.5 116q39 50 119 74q71 21 143 21l111 26q30 6 250 60q0 2 10 78q16 116 23 182q1 16 4 41.5t4 34.5l-162 -19q-13 -1 -56.5 -5.5t-61.5 -6.5t-57 -6.5t-63 -8.5t-57.5 -9.5t-63 -12
t-57.5 -14.5q-237 -64 -379 -189q-124 -114 -178 -317q-35 -132 -39 -342q-200 11 -319 20l-12 -149q0 -21 -2 -35q-3 -21 -3 -41q-1 -11 -8 -76q200 -12 322 -12q-113 -1154 -248 -1915q71 8 125 10q23 1 141 11q136 8 266 12q79 951 125 1878q57 -2 156 -2h154h293
q96 0 292 4q-115 -988 -159 -1897q12 -1 53 -4t67 -4l134 -12q80 -7 249 -27q-6 246 -6 267q-2 45 -2 137q-2 45 -2 129q0 712 84 1677zM2286 3060l-29 -207q-34 -244 -35 -254l209 12q122 5 188 12q13 75 19 123q10 72 18 121q5 44 8 62q2 18 23 139q9 51 10 61
q-12 -1 -41.5 -4t-46.5 -4q-61 -8 -96 -10q-111 -13 -191 -16z" />
    <glyph glyph-name="fl" unicode="fl" horiz-adv-x="3182" 
d="M1647 3074q-195 0 -312 -35q-179 -52 -307 -178q-37 -45 -63 -102q-44 -96 -64 -226q-18 -116 -27 -200q-3 -42 -12 -80l-100 6q-41 3 -103 6l-110 4q-1 -15 -2 -48t-2 -50t-2 -51t-2 -49l-4 -119q144 -10 297 -13q-105 -1021 -275 -1900q147 13 318 22q27 1 82 4.5
t83 4.5l150 6q50 976 70 1855q92 -2 272 -2h272l13 152l16 162h-274q-191 0 -279 2v82v63q0 43 -2 61q5 58 10.5 94t24 83t47.5 79q48 42 111.5 55t148.5 13h109q246 0 507 12q-189 -1450 -223 -2721q275 -18 312 -21q169 -15 311 -31v31v39q-2 14 -2 39v31q-4 126 -4 192
q0 61 4 127q-5 1 -17 2t-18 2q-31 0 -45 2q-62 4 -80 4h-22q-19 0 -29 2q42 1352 266 2634q-498 -45 -1044 -45z" />
    <glyph glyph-name=".notdef" horiz-adv-x="3162" 
d="M1706 2865q506 0 1077 82q-305 -1888 -319 -3656q-519 74 -1037 74q-520 0 -999 -67l-47 47q276 1730 311 3602q534 -82 1014 -82zM2214 -53q75 1449 256 2693q-425 -37 -780 -37q-366 0 -740 35q-53 -1367 -219 -2691q372 24 750 24q249 0 368 -4q93 -3 365 -20z" />
    <glyph glyph-name=".null" horiz-adv-x="0" 
 />
    <glyph glyph-name="nonmarkingreturn" horiz-adv-x="682" 
 />
    <glyph glyph-name="NULL" horiz-adv-x="1228" 
 />
    <glyph glyph-name="NULL" horiz-adv-x="1228" 
 />
    <glyph glyph-name="space" unicode=" " horiz-adv-x="1638" 
 />
    <glyph glyph-name="exclam" unicode="!" horiz-adv-x="1478" 
d="M748 3000l-52 -32q-133 -1281 -239 -1995q175 26 291 26q109 0 272 -26v145v66q0 53 2 82v80v65q2 49 2 148v149q1 14 4 46.5t4 51.5t4 52t4 47q43 614 90 1120q-136 -45 -231 -45q-81 0 -151 20zM504 584l-33 -31q-15 -73 -22 -121q-3 -22 -10.5 -62.5t-10.5 -58.5v2
l-57 -311q180 74 293 74t268 -70v45v55q-2 18 -2 58v43q-4 180 -4 270v96q-126 33 -224 33q-99 0 -198 -22z" />
    <glyph glyph-name="quotedbl" unicode="&#x22;" horiz-adv-x="2000" 
d="M1106 2980l-37 39q-14 1 -41.5 2t-42.5 2l-94 6q-165 10 -178 12v-119q0 -546 -129 -1099q97 10 223 16l121 6q18 1 53 2t51 2q64 534 74 1131zM1868 3037l-92 -6q-127 -10 -258 -10q-101 -625 -123 -1172q15 -1 49.5 -2t52.5 -2l119 -6q126 -6 223 -16q-14 131 -14 323
q0 417 86 844z" />
    <glyph glyph-name="numbersign" unicode="#" horiz-adv-x="3198" 
d="M2499 2142q418 13 587 21q-8 -48 -32 -224l-17 -124l-330 -7q-56 -1 -166 -2t-165 -2q-6 -18 -17 -49.5t-19.5 -56.5t-15.5 -47q-22 -65 -94 -293q-33 -102 -49 -156q82 0 123 -2q164 -4 293 -4q63 -2 172 -2l-6 -84q-3 -50 -6 -86l-11 -170l-239 6q-41 1 -121.5 2
t-118.5 2q-69 0 -96 2q-29 2 -98 2q-47 -153 -99 -303q-27 -84 -37 -119q-4 -13 -77 -258q-30 -92 -37 -118q-94 4 -168 4h-193l146 448q12 41 30 92q14 37 27 82q12 40 27 84q15 40 30 90h-252q-74 0 -258 -4q-89 -264 -274 -737v4l-25 -70l-368 -16q173 404 317 817
q-44 -1 -142.5 -4t-152.5 -4q-217 -8 -293 -10l7 45q1 7 4 25t4 28l6 53q1 7 2 22t2 21q1 5 2 17t2 18q0 6 12 84q1 5 2 16t2 15l361 4q75 0 301 4q41 120 108.5 325t92.5 279q-293 0 -596 10l8 146q8 73 8 196q286 -12 686 -16q73 238 256 795h367l-139 -398
q-82 -233 -136 -399h131h123q80 0 123 2h131q145 400 310 805q18 1 66.5 4t76.5 4t75.5 4t65.5 4h82q-201 -472 -321 -817zM2032 1800h-248q-166 0 -256 -2q-1 -6 -4 -14.5t-4 -11.5q-9 -17 -11 -29l-45 -139q-50 -155 -88 -263q-8 -25 -24.5 -73.5t-22.5 -67.5h180
q80 0 119 2h117h88q12 36 33.5 102.5t31.5 96.5l68 198z" />
    <glyph glyph-name="dollar" unicode="$" horiz-adv-x="2611" 
d="M1561 2374q-26 -224 -84 -813l-4 -41q169 -30 305 -78q168 -59 274 -154q88 -82 130 -205t42 -260q0 -152 -72 -299q-76 -155 -194 -250q-226 -160 -578 -188l-4 -197q-4 -118 -4 -174q-1 -29 -2 -87t-2 -87l-43 -39q-102 4 -180 4h-96h-86l22 123q3 16 11.5 57t11.5 62
q35 215 36 221q2 13 10 54t11 65q-429 24 -762 160l25 172q1 14 10 82q2 25 10 94l12 94q1 17 4.5 44t4.5 36q357 -241 745 -256l39 360l37 357q-174 36 -307 92.5t-232 159.5q-159 169 -159 491q9 164 108 318q101 157 252 237q224 103 502 121l14 113q1 15 10 84
q1 14 4 43t4 45q2 20 8 82.5t9 91.5h59q27 -2 60 -2q14 -2 61 -2h59l-49 -451q369 -18 662 -98l-23 -164l-26 -188q-277 146 -645 170zM1278 2208l16 149q-109 -13 -192 -41.5t-156 -87.5q-149 -122 -149 -311q0 -151 133 -258q120 -97 280 -113q15 129 27 258
q12 126 27 258q2 21 14 146zM1688 1057q-111 85 -265 112q-10 -130 -22 -397l-15 -268q167 27 295 74q73 23 107 102q24 56 24 145q0 136 -124 232z" />
    <glyph glyph-name="percent" unicode="%" horiz-adv-x="4145" 
d="M3228 3049l-154 -6q-173 -221 -377.5 -505t-322 -454t-357.5 -521q-248 -361 -553 -789q-325 -454 -575 -776h102l137 6q23 1 69.5 2t68.5 2q163 213 365 495t299 422.5t349 506.5q313 459 574 825q307 431 602 807q-84 -7 -113 -8q-11 -1 -33 -2t-32 -2q-34 -3 -49 -3z
M1260 3052h-27q-8 0 -10 2h-13q-135 -2 -255 -51.5t-203 -149.5q-103 -126 -144 -303q-35 -141 -35 -326q0 -363 142 -569q72 -115 213 -174q122 -51 276 -51q137 0 263.5 54.5t222.5 157.5q122 134 178 320q51 168 51 350q0 313 -156 502q-91 111 -221.5 172t-281.5 66z
M1235 2763h20q147 -11 238 -152q80 -127 80 -291q0 -204 -74 -364q-99 -215 -287 -215q-161 0 -241 153q-64 123 -64 312v24q0 17 2 25v26q0 173 76 316q41 76 104.5 121t145.5 45zM3125 1624q-144 0 -276.5 -56t-227.5 -165v2q-114 -119 -178 -318q-51 -161 -51 -354
q0 -315 158 -500l-2 3q94 -121 238.5 -179.5t310.5 -58.5q139 0 251 45q133 54 211 158l-2 -2q102 121 148 307q35 141 35 328q0 362 -148 567l2 -2q-75 113 -198.5 169t-270.5 56zM3107 1333q147 0 227 -139q66 -115 66 -287q0 -200 -60 -344q-82 -198 -260 -198
q-164 0 -258 129q-84 115 -84 288q0 209 78 361q98 190 291 190z" />
    <glyph glyph-name="ampersand" unicode="&#x26;" horiz-adv-x="3532" 
d="M2986 10l-127 13q-51 2 -152 10q-102 8 -151 10q-28 1 -72.5 4t-56.5 4l-266 293q-420 -326 -971 -326q-207 0 -387 54q-208 61 -330 192q-105 106 -156 251t-51 306q0 312 164 586q152 254 420 448q-150 248 -150 461q0 153 60 291q68 157 182 244l-2 -2q117 99 291 147
q133 37 315 37q304 0 682 -149q-82 -134 -96 -156l-53 -84q-16 -27 -43 -72q-175 91 -325 142t-300 51q-177 0 -303 -99q-133 -107 -133 -280q0 -113 84 -240q40 -63 166 -209v2q286 -305 526 -577l395 -440q97 146 148.5 322t85.5 411h90h106q72 0 107 2h90
q-23 -119 -25 -129q-37 -188 -57 -279q-6 -31 -31 -131q-68 -252 -233 -485zM1210 434q167 0 335 60.5t308 169.5q-284 326 -303 348l-303 346l-280 325q-181 -159 -269 -321q-106 -189 -106 -393q0 -262 186 -404q171 -131 432 -131z" />
    <glyph glyph-name="quotesingle" unicode="'" horiz-adv-x="1144" 
d="M1092 2996l-50 41q-67 -20 -145 -20q-81 0 -182 39q-6 -146 -41 -588q-30 -346 -64 -588q138 31 209 31q70 0 176 -35q26 530 97 1120z" />
    <glyph glyph-name="parenleft" unicode="(" horiz-adv-x="1671" 
d="M1571 3082l-39 66q-186 -33 -285 -33q-345 -408 -561 -811q-250 -460 -319 -907q-19 -244 -19 -463q0 -752 211 -1360q222 -3 463 -47q-194 524 -229 946q-19 296 -19 465q0 184 10 416v-2q45 428 281 905q183 370 506 825z" />
    <glyph glyph-name="parenright" unicode=")" horiz-adv-x="1617" 
d="M956 1868q0 -279 -22 -518v2q-69 -441 -316 -926q-209 -411 -548 -889q281 62 526 62q293 444 494 845q144 290 204 612t60 689q0 383 -62 713q-64 339 -211 667q-133 7 -325 39l8 -31l-31 5q117 -301 170 -609.5t53 -660.5z" />
    <glyph glyph-name="asterisk" unicode="*" horiz-adv-x="2465" 
d="M2327 2499l16 49q-27 60 -41 102q-6 14 -20.5 48.5t-20.5 49.5l-330 -200q-141 -88 -336 -201q16 214 70 709h-270l-31 -406l-25 -303q-29 18 -47 33q-7 6 -47 28q-379 250 -500 334q-31 -36 -45 -61q-16 -22 -18 -29q-6 -9 -6 -14q0 -6 -6 -15l-15 -20q-3 -5 -9 -14.5
t-9 -14.5l-19 -30q-4 -6 -9.5 -14t-6.5 -9q299 -196 633 -381q-301 -163 -350 -188q-179 -98 -344 -193q25 -59 26 -61l25 -64l43 -102l330 197q32 19 90 53t80 47l168 100q-10 -118 -17 -186q-1 -15 -4 -43.5t-4 -42.5q-2 -24 -10 -98q-26 -256 -31 -336h268q8 149 41 565
l13 143q55 -36 155 -102.5t144 -95.5l292 -199q26 39 33 49q37 57 78 125l31 49q-109 70 -312 193q-46 26 -317 186l31 18q250 133 633 345z" />
    <glyph glyph-name="plus" unicode="+" horiz-adv-x="3098" 
d="M1477 2099l-50 -598q-690 0 -1040 8l-33 -379h131h148q75 0 149 3h136q159 0 239 2h238q-10 -149 -35 -390l-19 -200q-8 -90 -18 -180l-29 -297h377q45 675 80 1067h520q85 0 520 -5l33 377q-448 -8 -1038 -8q50 578 106 1069h-379z" />
    <glyph glyph-name="comma" unicode="," horiz-adv-x="1265" 
d="M293 528l-41 -36q-10 -171 -27 -388l-47 -122q-89 -221 -112 -275q-18 -44 -39 -91.5t-45 -101.5t-35 -79q3 0 27 3.5t40 4.5q99 11 168 16q12 1 34 2t32 2q96 113 205 254q153 198 198 258l86 121q2 15 33 228q26 176 37 229q-225 -27 -393 -27h-62q-39 0 -59 2z" />
    <glyph glyph-name="hyphen" unicode="-" horiz-adv-x="1763" 
d="M391 1341l-37 -47q6 -30 6 -73q0 -99 -88 -248q172 8 578 16q203 4 575 4q-24 83 -24 125q0 93 90 244l-207 -4l-377 -12q-219 -7 -377 -7h-69q-25 0 -35 2h-35z" />
    <glyph glyph-name="period" unicode="." horiz-adv-x="1339" 
d="M207 666v-76q0 -266 -64 -574q212 17 332 17q111 0 320 -17v27q-2 10 -2 35v37q-2 10 -2 26q0 266 67 570l-82 -6q-16 -1 -47.5 -2.5t-46.5 -2.5q-94 -6 -176 -6q-114 0 -254 13z" />
    <glyph glyph-name="slash" unicode="/" horiz-adv-x="1712" 
d="M1475 2957l-33 -24q-147 -322 -182 -400q-208 -465 -367 -837q-26 -60 -85 -197.5t-89 -208.5q-14 -32 -361 -831q-232 -534 -370 -830q253 38 508 49q199 487 600 1532q463 1220 706 1790q-9 -1 -76 -10l-88 -12q-16 -2 -88 -12q-49 -7 -75 -9z" />
    <glyph glyph-name="zero" unicode="0" horiz-adv-x="2623" 
d="M1575 3031h-57q-220 0 -424 -104q-223 -112 -357 -306q-141 -219 -223 -532q-60 -229 -106 -559q-15 -234 -15 -387q0 -218 33 -405t117 -357q92 -177 280 -270q184 -91 389 -91h64q223 0 424 101q208 105 350 307q144 219 227 535q55 216 101 561q14 205 14 364
q0 224 -32.5 416.5t-116.5 364.5q-85 177 -277 272q-182 90 -391 90zM1501 2834h49q7 0 11 2h8q162 0 280 -112q119 -119 142 -287q28 -127 28 -309q0 -128 -16 -285q-31 -269 -88 -459q-82 -276 -207 -426q-154 -188 -379 -188h-14q-4 0 -6 2h-6h-21q-122 0 -221 60.5
t-139 168.5q-68 182 -68 467q0 263 27 490q33 274 127 510q52 156 194 262q139 104 299 104z" />
    <glyph glyph-name="one" unicode="1" horiz-adv-x="2787" 
d="M600 625l-37 -35q-3 -18 -41 -285q-24 -168 -43 -282q489 55 875 55q407 0 889 -64v115q0 187 12 487q-298 27 -629 37q85 1163 217 2333q-16 -2 -55 -2q-82 -4 -127 -4h-55h-95q-65 0 -96 2l-55 -8q-383 -61 -678 -78v-94q-2 -37 -2 -111l-6 -205q440 43 692 90
q-33 -430 -78 -960q-7 -79 -20.5 -237.5t-20.5 -237.5l-43 -488q-268 -3 -604 -28z" />
    <glyph glyph-name="two" unicode="2" horiz-adv-x="2875" 
d="M1751 1149v-2q90 86 133 131l131 129l64 66q186 220 274 405q109 229 109 461q0 140 -50.5 267t-150.5 216q-134 109 -338 164q-170 45 -383 45q-123 0 -273.5 -22t-256 -45.5t-282.5 -67.5l-48 -12v-103q-4 -170 -8 -241l-6 -105q496 225 856 225q218 0 352 -102
q154 -117 154 -324q0 -170 -103 -340q-21 -35 -44 -68.5t-60.5 -78t-51.5 -61t-68.5 -76t-58.5 -64.5q-149 -152 -458 -368q-413 -308 -692 -547l-48 -309q-7 -36 -26 -160q-7 -49 -25 -148q526 62 991 62q448 0 947 -62v148q0 109 2 164q1 28 2 82t2 81q0 58 4 148
q-375 35 -934 39q82 222 344 473z" />
    <glyph glyph-name="three" unicode="3" horiz-adv-x="2732" 
d="M2435 2396q0 244 -145 395q-127 130 -351 191q-179 49 -421 49q-317 0 -826 -84q0 -46 -4 -178q-2 -33 -2 -96q-1 -14 -2 -42t-2 -40q463 108 780 108q209 0 350 -65q195 -90 195 -295q0 -115 -44.5 -209.5t-123.5 -159.5q-157 -129 -387 -129h-94q-63 0 -94 2h-54
q-39 0 -59 2h-59h-54q0 -8 -3.5 -47.5t-4.5 -64.5q-9 -95 -10 -113l-10 -137h274q164 0 285 -21q141 -28 246 -114q141 -127 141 -293q0 -76 -68 -158q-49 -56 -139 -123q-110 -88 -281 -127q-118 -29 -309 -29q-398 0 -704 170q-9 -74 -21 -159l-24 -176q-15 -111 -52 -338
q375 -99 734 -99q289 0 485 39q280 53 477 195q168 126 250 354q63 184 63 416q0 242 -120 422q-108 161 -322 205q232 82 373 295q137 207 137 454z" />
    <glyph glyph-name="four" unicode="4" horiz-adv-x="2738" 
d="M2363 1239h33q-10 -82 -14 -192q-4 -50 -4 -93q-1 -16 -2 -47.5t-2 -44.5q-32 1 -96 4t-95 4l-190 7q-2 -39 -2 -117v-117q0 -284 10 -594q-167 12 -291 17l-154 6q-51 2 -139 2l41 362q29 295 51 449h-161q-506 0 -1074 -23q10 63 19 142q2 17 7.5 67t8.5 72
q773 1093 1331 1823l33 16q179 4 262 8q188 8 263 10q-115 -802 -181 -1755q73 0 209 -4h41h49q16 -2 47 -2zM1563 1249q92 932 151 1428q-282 -382 -516 -711q-426 -598 -512 -723q74 1 220 2t218 2q141 2 439 2z" />
    <glyph glyph-name="five" unicode="5" horiz-adv-x="2668" 
d="M745 3019l-45 -39q-3 -324 -26 -746q-25 -462 -53 -747q346 151 649 151q283 0 459 -122q75 -64 114 -165t39 -212q0 -115 -57 -211q-44 -75 -144 -164q-106 -92 -260 -133q-122 -35 -288 -35q-385 0 -701 168q-30 -208 -47 -332q-11 -83 -53 -334q344 -82 755 -82
q264 0 465 45q249 57 430 197q180 137 267 389q69 199 69 449q0 408 -223 645q-137 140 -336 207q-177 57 -401 57q-125 0 -346 -51q6 59 14 180q2 59 10 172q3 66 9 187t8 161q212 -10 479 -10q402 0 747 31l54 342q-448 -41 -795 -41q-405 0 -793 43z" />
    <glyph glyph-name="six" unicode="6" horiz-adv-x="2691" 
d="M2329 2920l20 33q-310 80 -561 80q-280 0 -531 -92q-282 -108 -458 -307q-230 -283 -332 -744q-76 -345 -76 -762q0 -216 33.5 -397.5t118.5 -337.5q98 -188 307 -284q195 -89 422 -89q221 0 401 50q219 61 365 196q161 155 239 400q64 200 64 444q0 194 -41 338
q-54 174 -156 295l2 -2q-104 135 -284 205q-157 61 -357 61q-183 0 -353.5 -77.5t-303.5 -215.5q41 217 94 363q71 198 188 338q102 128 285 194q144 53 336 53q267 0 559 -120q21 170 55 383zM1440 1659q116 0 213 -42t155 -126q107 -144 107 -389v-23q-2 -8 -2 -24v-43
q-20 -184 -195 -295q-159 -99 -358 -99q-213 0 -348 70q-172 88 -172 268q0 137 51 279q54 150 143 252q80 84 186.5 128t219.5 44z" />
    <glyph glyph-name="seven" unicode="7" horiz-adv-x="2560" 
d="M705 3000v-149q0 -85 -3 -150q453 -55 900 -55q290 0 575 18q-178 -342 -291 -569q-224 -453 -282 -573q-192 -393 -363 -736q-206 -413 -379 -729q110 8 275 15q96 4 270 4h117q79 0 114 -2q123 354 224 667q147 450 240 724.5t236 666t277 713.5l17 94q5 21 8 53
q1 5 2 16.5t2 16.5q2 10 2 20q-521 -67 -1001 -67q-451 0 -893 61z" />
    <glyph glyph-name="eight" unicode="8" horiz-adv-x="2729" 
d="M528 1374h2q-120 -120 -184 -305q-53 -154 -53 -338q0 -348 203 -510q139 -112 358 -164q165 -39 403 -39t408 39q223 51 383 166q161 113 240 326q65 176 65 389q0 251 -147 438q-140 178 -377 250q235 61 385 293q65 103 100 224t35 241q0 121 -44.5 231.5
t-129.5 190.5q-126 104 -313 151q-147 37 -351 37q-195 0 -358 -39q-195 -47 -336 -151q-130 -108 -196 -267t-66 -329q0 -195 98 -357q101 -167 275 -231q-241 -76 -400 -246zM950 2345v4q8 193 180 307q154 103 355 103q200 0 330 -78q153 -97 153 -281q0 -102 -40 -195.5
t-111 -164.5q-70 -70 -164 -110t-195 -40h-20q-17 0 -23 2q-8 -2 -22 -2h-23q-168 0 -297 113t-129 278q0 27 6 64zM1382 1473q258 3 394 -144q122 -125 122 -344q-3 -180 -169 -319q-158 -125 -433 -125q-276 0 -409 123q-117 112 -117 231q0 120 49 233q49 117 137 199
q89 71 201 108.5t225 37.5z" />
    <glyph glyph-name="nine" unicode="9" horiz-adv-x="2689" 
d="M1079 16q282 0 525 90q271 100 450 308q226 282 330 731q80 344 80 756q0 465 -162 776q-104 177 -307 270q-184 84 -410 84q-230 0 -403 -49q-211 -60 -365 -201q-161 -145 -237 -389q-62 -203 -62 -442q0 -415 191 -641v2q107 -139 286 -205q160 -62 355 -62
q183 0 352.5 77t300.5 214q-36 -210 -76 -319q-63 -170 -180 -266l4 4q-127 -79 -279.5 -107.5t-332.5 -28.5q-266 0 -561 127l-19 -149q-3 -26 -10 -80t-10 -80q-16 -126 -47 -311l49 -4l-31 -21q284 -84 569 -84zM1409 1661q-146 2 -261 17t-216 55q-82 36 -115 131
q-29 83 -29 188q0 144 50 283q54 147 159 241q99 83 227 124.5t263 41.5q339 0 500 -166q124 -121 124 -356q0 -163 -36 -270q-56 -167 -177 -213q-188 -76 -489 -76z" />
    <glyph glyph-name="colon" unicode=":" horiz-adv-x="1456" 
d="M526 2044l-12 -191q-7 -128 -14 -196q152 -35 266 -35q113 0 274 29q4 40 9 90.5t12.5 117.5t11.5 107l35 313q-189 -67 -297 -67q-114 0 -217 41l-55 -33zM444 672l-34 -35q-7 -79 -15 -152q-14 -153 -37 -327l-18 -154q181 55 299 55q116 0 268 -57q18 289 21 332
l12 174q2 69 10 158q-144 24 -262 24q-100 0 -244 -18z" />
    <glyph glyph-name="semicolon" unicode=";" horiz-adv-x="1374" 
d="M526 2163l-6 -101q-1 -19 -4 -52.5t-4 -47.5l-12 -184q-4 -40 -19 -187q84 -8 174 -8q170 0 338 45q29 310 60 543l4 92q-202 -74 -359 -74q-62 0 -127 9zM510 504h-113q-1 -10 -4 -47t-4 -60q-1 -24 -4 -60.5t-4 -43.5q-3 -29 -8 -87t-8 -85l-70 -199q-23 -64 -100 -291
q-6 -18 -17 -49.5t-19.5 -56.5t-15.5 -47q-18 -52 -47 -140q182 68 336 78q72 118 119 193q62 103 119 192l176 293l12 158q1 11 10 121q1 25 4.5 66t4.5 55q-140 12 -289 12h-39q-12 -2 -39 -2z" />
    <glyph glyph-name="less" unicode="&#x3c;" horiz-adv-x="3231" 
d="M2951 1980l27 29q1 5 26 92q64 194 70 211q5 19 15.5 49t13.5 41q-430 -140 -1143 -331q-550 -148 -1153 -295l-383 -95q-3 -54 -12 -112q-13 -109 -37 -248l-19 -113q340 -176 1231 -612q92 -44 279 -135.5t276 -134.5q334 -163 551 -277q0 287 21 524
q-482 248 -1104 545l-668 326q680 170 1008 256q593 156 1001 280z" />
    <glyph glyph-name="equal" unicode="=" horiz-adv-x="3368" 
d="M506 1915l-43 -49q29 -124 39 -328q578 -12 1190 -12q643 0 1267 12q41 187 123 379q-779 -25 -1364 -25q-633 0 -1212 23zM508 1161l-41 -33q-38 -205 -121 -407q398 11 672 16q341 6 670 6q639 0 1286 -22q-56 211 -56 440q-477 8 -1110 8q-721 0 -1300 -8z" />
    <glyph glyph-name="greater" unicode="&#x3e;" horiz-adv-x="3223" 
d="M604 2253l23 -37q245 -129 540 -272q611 -299 883 -428q84 -41 336 -168l-485 -123q-934 -241 -1530 -414q-20 -85 -64 -236q-51 -175 -94 -296q502 157 1120 323q487 130 1125 289l430 108q23 234 71 478q-272 137 -1056 522q-246 118 -639 315q-266 130 -637 320
q0 -35 -2 -58q-1 -12 -2 -35t-2 -34q-1 -29 -5 -76.5t-4 -54.5q-4 -40 -4 -62q-1 -10 -2 -30.5t-2 -30.5z" />
    <glyph glyph-name="question" unicode="?" horiz-adv-x="2236" 
d="M1425 881l7 61q0 42 2 62q4 78 7.5 120t14.5 107.5t29 114.5q22 52 51 86l20 28q2 3 14.5 19.5t18.5 25.5l31 45l20 31l162 166q73 77 103 110t83 97.5t87 118.5q123 194 123 399q0 256 -158 393q-102 91 -266 133q-122 31 -304 31q-401 0 -796 -172q0 -32 -2 -55t-2 -58
q0 -32 -2 -55t-2 -70q0 -8 -9 -125q216 113 369 166q204 68 354 68q168 0 281 -96q119 -106 119 -271q0 -88 -103 -198q-61 -65 -196 -170l-31 -25l-100 -86q-40 -32 -50 -41q-14 -12 -51 -41q-88 -81 -149.5 -151.5t-104.5 -155.5q-34 -75 -55 -168.5t-27 -148.5t-16 -170
l-16 -170q260 10 503 10zM883 635l-39 -37q-10 -114 -31 -279q-6 -48 -19 -142.5t-18 -137.5q278 16 457 16h119q1 24 10 146q2 60 10 143l23 301h-121q-176 0 -391 -10z" />
    <glyph glyph-name="at" unicode="@" horiz-adv-x="3960" 
d="M2456 426l-17 -207q239 0 475 74q243 74 412 221q184 184 285 475q88 254 88 527q0 430 -207 749q-192 292 -531 451q-322 147 -716 147q-377 0 -715 -121q-375 -133 -645 -366q-292 -281 -439 -686q-135 -373 -135 -779q0 -310 82 -569q92 -291 277 -487v2
q202 -237 542 -367q300 -115 664 -115q305 0 607 96t569 285l-43 90q-44 95 -48 107q-32 69 -86 199q-218 -155 -464 -229.5t-496 -76.5q-302 3 -516 68q-267 80 -426 264l2 -2q-102 123 -175.5 229t-125.5 218v-2q-58 132 -58 323q0 415 172 768q184 384 531 594
q389 238 874 238q318 0 588 -123q284 -130 453 -367h-2q155 -249 155 -573q0 -194 -45 -359q-54 -197 -161 -338q-151 -191 -408 -241q39 604 133 1417h-70q-29 -2 -88 -2q-31 -2 -86 -2q-29 -2 -71 -2q-1 -8 -4 -44t-4 -59q-2 -16 -6 -52t-5 -52v-16q-103 121 -242.5 189.5
t-299.5 68.5q-361 0 -584 -246q-137 -140 -205 -354q-59 -189 -59 -398q0 -312 155 -518q91 -120 236 -182t311 -62q156 0 305 66t271 182zM1489 1262q25 243 160 370q142 133 352 133q193 0 315 -110q125 -113 125 -314q0 -284 -164 -448q-126 -131 -350 -131
q-201 0 -317 110q-125 119 -125 320q0 24 4 70z" />
    <glyph glyph-name="A" unicode="A" horiz-adv-x="3420" 
d="M1935 2980h-403q-96 -196 -430 -916q-192 -418 -320.5 -689t-325.5 -654.5t-386 -706.5l141 13q49 2 160 10l157 12q29 1 77 4t63 4q36 79 114 238q75 162 107 242q221 6 633 6q415 0 626 -6q45 -234 105 -478q29 -2 139 -8.5t174 -11.5q164 -12 309 -25
q-203 482 -399 1100q-117 367 -315 1075q-167 594 -226 791zM1847 1878q30 -119 101 -420q38 -169 100 -420h-219q-90 0 -135 2h-138h-239q-160 0 -242 -2q231 547 371 891l246 608l80 -329q6 -25 32.5 -145t42.5 -185z" />
    <glyph glyph-name="B" unicode="B" horiz-adv-x="3031" 
d="M2492 1403q78 -90 122 -202t44 -234q0 -222 -63 -387q-81 -204 -250 -314q-165 -110 -391 -155q-175 -35 -412 -35q-539 0 -1106 -62q269 1499 269 2986l45 39q348 -48 899 -59q323 -3 530 -82q175 -68 270 -213q88 -142 88 -311q0 -239 -110 -437q-58 -105 -144 -182.5
t-194 -112.5q248 -61 403 -239zM1133 2691q-13 -390 -50 -893q177 -4 269 -2h266q253 0 395 94q85 66 139 191q46 107 46 203q0 208 -156 309q-129 84 -344 84q-302 0 -565 14zM2150 918q37 93 37 194q0 39 -21 81t-42 67t-58 63v-2q-78 69 -196 98q-106 23 -230 23h-589
l-9 -86q-5 -55 -19.5 -209.5t-26 -260.5t-25.5 -212q394 12 596 12q139 0 250.5 16.5t207.5 65.5l-2 -2q82 48 127 152z" />
    <glyph glyph-name="C" unicode="C" horiz-adv-x="3131" 
d="M2812 2781l37 21q-328 231 -854 231q-336 0 -604 -82q-325 -100 -545 -311q-230 -241 -350 -649q-97 -333 -97 -699q0 -266 56 -471q63 -240 200 -413q189 -212 486 -306q265 -84 583 -84q525 0 914 242v86q0 94 8 336q10 309 12 338q-201 -180 -436 -279
q-224 -94 -446 -94q-229 0 -396 35q-219 45 -354 156l2 -2q-99 88 -147 241q-39 124 -39 299q0 285 69 529q80 291 271 493h-2q145 149 376 217q187 56 420 56q219 0 430.5 -90t380.5 -261q12 98 35 230q3 22 10.5 62.5t10.5 58.5q10 63 18 106z" />
    <glyph glyph-name="D" unicode="D" horiz-adv-x="3289" 
d="M2996 2261q56 -193 56 -444q0 -414 -82 -730q-115 -446 -390 -677q-247 -193 -618 -273q-241 -51 -662 -67q-226 -10 -430 -21q-263 -18 -434 -35q271 1397 271 2728v129q0 86 -2 129l43 39q352 -43 798 -53q428 -20 656 -70q360 -79 577 -274q150 -150 217 -381z
M2623 1573q7 74 7 192q0 370 -170 582q-147 143 -398 213q-183 50 -454 61q-208 0 -455 13q-37 -990 -137 -1807q184 8 440 11q21 0 31 2h31q213 3 387 28q203 29 364 121h-2q131 89 225 262q64 118 131 322z" />
    <glyph glyph-name="E" unicode="E" horiz-adv-x="2951" 
d="M752 3039l-47 -39q-12 -1492 -265 -2986q560 62 1000 62q455 0 966 -62v158q0 115 2 174q4 213 11 330q-477 39 -932 39q-226 0 -516 -10q3 35 10.5 98.5t9.5 87.5l21 180q15 152 32 367h629q227 0 352 2h353q0 28 2 51t2 51q11 151 33 275q-609 -13 -883 -13
q-143 0 -455 4q3 49 9 132.5t11 151.5t9 126q15 194 24 405q266 -14 541 -14q452 0 903 47q5 35 33 215l29 170q-529 -63 -979 -63q-460 0 -905 61z" />
    <glyph glyph-name="F" unicode="F" horiz-adv-x="2332" 
d="M750 3027l-48 -37q-74 -1545 -344 -2978q56 9 112.5 16t120.5 13.5t101.5 9.5t114 9t100.5 8q54 559 101 1296h319q119 0 178 2h178h197q136 0 195 -2l16 162l6 69q1 12 4 38t4 40q15 132 17 146q-451 -11 -776 -11h-183q-40 0 -67 2h-68q5 40 14 111.5t11 91.5
q27 221 45 383q6 63 22 199q117 -6 326 -6q434 0 876 51q7 48 15 94q3 19 8.5 57t7.5 54q2 14 8 51t9 57q1 3 14 94q-482 -69 -909 -69q-369 0 -725 49z" />
    <glyph glyph-name="G" unicode="G" horiz-adv-x="3317" 
d="M2501 2984q267 -58 481 -195l-19 -108q-6 -29 -12 -74l-12 -90q-7 -43 -25 -164q-192 177 -428.5 265.5t-484.5 88.5q-236 0 -428 -55q-235 -67 -387 -207q-177 -190 -262 -485q-70 -242 -70 -520q0 -198 33 -320q46 -172 153 -260l-2 2q132 -97 353 -141
q160 -31 393 -35q25 1 76.5 2t78.5 2q177 0 308 47q62 19 116 70l4 4q1 23 4.5 71t4.5 72q1 23 4 70.5t4 71.5q-192 4 -301 4h-299l39 456h532q127 0 271 3h268q-60 -658 -60 -1252q-451 -287 -1079 -287q-336 0 -596 78q-315 95 -500 303q-130 159 -198 406
q-58 208 -58 457q0 393 89 718q114 424 362 664q216 200 539 299q287 88 596 88q287 0 512 -49zM2363 797l4 4v2z" />
    <glyph glyph-name="H" unicode="H" horiz-adv-x="3301" 
d="M750 3035l-48 -39q-16 -1553 -307 -2982l121 13q39 2 135 10q51 4 138.5 11t115.5 9q63 417 125 975q226 4 318 4h317h313q106 0 314 -4q-32 -451 -35 -975q13 -1 54 -4t65 -4q84 -8 133 -10q145 -13 248 -25q-11 266 -11 478q0 1205 236 2549l-66 -6q-12 -1 -36.5 -4
t-38.5 -4q-71 -8 -142 -12l-186 -15q-106 -645 -170 -1382q-634 -4 -911 -4h-197q-53 0 -76 2h-76q55 631 78 1382q-222 9 -411 37z" />
    <glyph glyph-name="I" unicode="I" horiz-adv-x="1452" 
d="M752 3004l-54 -32q-152 -1610 -325 -2982q177 86 278 86q106 0 250 -84q49 884 100 1528q56 747 125 1525q-145 -65 -233 -65q-60 0 -141 24z" />
    <glyph glyph-name="J" unicode="J" horiz-adv-x="1728" 
d="M1149 2976l-39 -35q-46 -320 -98.5 -717.5t-78.5 -600.5t-94 -753t-79 -641v2q-24 -163 -191 -262q-128 -75 -323 -104l-205 16q0 -1 -3.5 -37t-4.5 -59l-10 -96q-35 -345 -60 -512l64 6q11 1 34.5 4t36.5 4q82 10 135 10l103 19q194 31 309 69q171 56 287 154
q141 141 201 348q36 122 65 385q180 1623 385 2851q-181 -39 -434 -51z" />
    <glyph glyph-name="K" unicode="K" horiz-adv-x="3395" 
d="M748 3029l-46 -39q-27 -1466 -346 -2976q235 23 287 27q53 2 150 10q28 1 73.5 4t59.5 4q62 664 90 1344q236 -402 401 -670q231 -379 420 -659q474 -9 1012 -66q-344 371 -668 733q-112 125 -338 376t-330 368q-9 12 -59 69q-42 49 -59 70l497 436q36 31 217.5 190.5
t278.5 243.5l618 539l-219 -14q-149 -12 -372 -23q-138 -120 -193 -166l-192 -168q-493 -420 -979 -856q25 226 55 596q32 441 39 596q-223 11 -397 31z" />
    <glyph glyph-name="L" unicode="L" horiz-adv-x="2822" 
d="M750 3033l-48 -37q-39 -1528 -307 -2982q520 62 977 62q436 0 907 -53q8 128 25 327q6 85 31 326q-461 39 -895 39q-219 0 -492 -10q129 1034 193 2289q-178 7 -391 39z" />
    <glyph glyph-name="M" unicode="M" horiz-adv-x="3774" 
d="M745 3033l-43 -39q0 -1527 -329 -2978q30 3 280 23q199 12 281 14q167 1255 170 2427q168 -565 369 -1429l126 -521h138q39 0 57 2h55h56q18 -2 53 -2h137q23 59 66 158q39 92 63 156v-2q145 358 229.5 562.5t216 508t250.5 555.5q-220 -1263 -239 -2413l60 -4t71 -4
q23 -1 70.5 -4t72.5 -4q245 -20 275 -23q-23 363 -23 709q0 1068 230 2312q-86 -8 -146 -10l-158 -12q-231 -17 -301 -19q-132 -216 -291 -502t-241.5 -441.5t-269.5 -512.5l-117 -223q-136 432 -277 844q-137 398 -307 831q-283 12 -584 41z" />
    <glyph glyph-name="N" unicode="N" horiz-adv-x="3233" 
d="M2953 3045q-268 -1458 -268 -2752q0 -117 4 -277q-171 19 -307 29q-79 6 -307 21q-248 499 -629 1382q-80 189 -209 500q-118 281 -215 493q-9 -1154 -123 -2382l-60 -4t-71 -4q-92 -8 -145 -10q-55 -4 -281 -27q304 1422 346 2917l45 39q151 -19 381 -33q31 0 51 -2
t52 -2q36 -71 71.5 -142.5t75 -154.5t67.5 -142t73 -157t66 -144t71 -158t64 -144t69.5 -157t64.5 -145q15 -35 50.5 -113t52.5 -118q152 -340 188 -416q18 -40 55 -118t53 -113q90 1200 299 2295q44 3 97 9q33 2 112 10q39 2 113 10q76 9 94 10z" />
    <glyph glyph-name="O" unicode="O" 
d="M1862 3031q-298 0 -549 -86q-285 -98 -477 -307h2q-243 -254 -349 -662q-81 -311 -81 -710q0 -243 53 -451q61 -240 184 -401q153 -201 414 -301q239 -93 516 -93q303 0 559 84q284 93 487 308q232 265 340 659q91 328 91 713q0 251 -50 450q-59 231 -186 402
q-152 202 -424 305q-237 90 -530 90zM1837 2673q191 0 355 -75.5t264 -219.5v2q153 -248 153 -654q0 -240 -47 -415q-73 -263 -240 -369q-266 -143 -659 -143q-184 0 -332 28q-178 33 -305 113q-97 58 -139 190q-35 101 -35 252q0 270 66 514q79 291 235 476
q119 150 311 229q175 72 373 72z" />
    <glyph glyph-name="P" unicode="P" horiz-adv-x="2621" 
d="M2472 2597q55 -135 55 -309q0 -237 -73 -455q-84 -249 -252 -406q-139 -129 -353 -190q-171 -49 -391 -49h-221q-143 0 -223 -2q-77 -604 -168 -1125q-31 -3 -121 -9.5t-143 -10.5q-75 -6 -267 -27q306 1397 385 2972l45 37q374 -43 863 -43q185 0 342 -25
q176 -28 317 -110q139 -94 205 -248zM2163 2275q6 46 6 88q0 234 -184 336q-138 74 -351 74q-321 0 -483 6q-52 -602 -102 -1040q360 -4 538 -4q105 0 209 41.5t184 115.5q83 77 132.5 176t50.5 207z" />
    <glyph glyph-name="Q" unicode="Q" horiz-adv-x="3782" 
d="M2830 709q127 232 185 538q47 250 47 539q0 252 -53 446q-64 233 -187 391q-164 201 -448 304q-254 92 -549 92q-284 0 -527 -90q-274 -100 -462 -297q-233 -244 -338 -623q-84 -305 -84 -680q0 -276 55 -485q63 -256 195 -436q153 -207 417 -308q229 -88 529 -88
q70 0 129 6q123 -151 147 -180q74 -87 148 -178h-2l90 -109q481 -12 1003 -67l-41 49q-26 29 -55 66l-53 63q-29 33 -43 49q-220 255 -436 531q161 170 333 467zM1837 2660q194 0 356 -73q171 -79 267 -224q157 -241 157 -634q0 -281 -80 -480q-96 -244 -321 -358
q-223 35 -444 141l-54 -80q-35 -47 -55 -80l-76 -108q-183 28 -309 65.5t-244 110.5q-105 66 -145 199q-35 106 -35 264q0 265 68 498q79 283 231 462q126 150 303.5 223.5t380.5 73.5z" />
    <glyph glyph-name="R" unicode="R" horiz-adv-x="3377" 
d="M2630 442q20 -44 64 -139.5t76 -163.5t62 -127q-142 16 -307 31q-62 4 -170 11t-141 9q-137 374 -260 762l2 -4q-55 130 -107.5 221t-126.5 156l2 -2q-124 88 -335 88h-132q-82 0 -131 -2q-54 -560 -149 -1225q-71 -2 -264 -18q-156 -13 -267 -25q267 1449 267 2857v174
q402 -52 925 -63q178 -5 324.5 -35t271.5 -102q148 -102 217 -260q62 -144 62 -318q0 -258 -107 -481q-129 -261 -358 -352q122 -68 219 -217q50 -80 143 -279l27 -61l-2 2q73 -177 195 -437zM1358 1720h229q89 0 191.5 31t189.5 86q93 59 153 137t70 166q0 13 2 19v16
q5 78 5 90q0 249 -136 344q-171 122 -397 125q-40 1 -119 2t-119 2q-162 4 -243 10q-3 -99 -23 -512q-11 -239 -33 -514q76 -2 230 -2z" />
    <glyph glyph-name="S" unicode="S" horiz-adv-x="2844" 
d="M2476 2898l12 24q-411 109 -854 109q-236 0 -401 -39q-229 -53 -381 -160q-161 -114 -236 -301q-65 -162 -65 -364q0 -323 160 -496q111 -113 278 -184q133 -56 322 -96l67 -15q275 -55 412 -119q240 -117 240 -296q0 -67 -62 -140q-47 -58 -127 -108
q-195 -125 -506 -125q-462 0 -891 248q-4 -43 -11.5 -98t-17.5 -126.5t-16 -113.5q-22 -151 -53 -338q456 -140 942 -140q275 4 443 37q255 50 436 170q164 118 239 326q60 167 60 389q0 186 -70 348q-78 174 -229 279q-84 58 -192 100.5t-185 61.5t-207 45l-121 24
q-143 34 -213 58q-117 37 -192 96q-40 43 -61 107.5t-21 133.5q0 243 205 377l-4 -2q193 103 477 103q359 0 796 -187q1 9 8.5 62.5t12.5 83.5l12 78q1 15 4.5 37.5t3.5 27.5l19 121z" />
    <glyph glyph-name="T" unicode="T" horiz-adv-x="3184" 
d="M750 3039l-45 -39q4 -200 4 -340q242 -18 606 -18h100q71 0 219 4h101q-119 -1142 -310 -2572h45q38 0 56 2h53h45h150q116 0 264 -4q8 397 32 882.5t45 809.5t60 884q133 -6 371 -6q241 0 655 16q5 32 25 125q16 74 24 125l23 135q-691 -65 -1323 -65q-609 0 -1200 61z
" />
    <glyph glyph-name="U" unicode="U" horiz-adv-x="3119" 
d="M702 2998v-141q0 -772 -92 -1694q-14 -147 -14 -260q0 -190 41 -330q52 -181 158 -301q136 -144 372 -206q183 -48 441 -48q256 0 456 54q248 67 424 235q155 167 228 404q57 184 75 444q82 1075 242 1886l-156 -14q-153 -17 -294 -27q-38 -229 -56 -368
q-57 -417 -92 -768q-23 -215 -39 -373q-18 -203 -59 -346q-53 -186 -150 -314q-88 -99 -245 -147q-126 -39 -289 -39q-166 0 -283 35q-148 45 -219 147h2q-104 155 -104 441q0 93 10 213q71 859 84 1515q-160 10 -395 41z" />
    <glyph glyph-name="V" unicode="V" horiz-adv-x="3420" 
d="M1546 74h178q62 0 93 2h92h147q103 0 148 -2l178 440q282 711 522 1258q298 681 614 1271l-194 -14q-175 -16 -279 -23q-171 -284 -462 -833q-161 -304 -435 -848q-45 -85 -112 -223q-74 -152 -113 -228l-133 400q-174 537 -317 945t-299 785q-46 1 -230 19
q-160 15 -229 24q109 -310 188 -567q145 -470 299 -1104q108 -446 217 -907q80 -334 88 -365z" />
    <glyph glyph-name="W" unicode="W" horiz-adv-x="4454" 
d="M1137 3013l-424 30q195 -682 301 -1482q84 -668 114 -1510l160 6q69 3 172 6q201 7 332 7q113 223 362 749q153 323 347 758q12 -46 14 -51q1 -7 4 -18t4 -15l19 -84q73 -295 114.5 -457.5t113.5 -415.5t144 -464q38 -1 143 -4.5t165 -4.5q58 -1 163 -4t144 -4
q194 830 417 1501q257 784 607 1485q-23 0 -101 -4q-20 -2 -59 -2q-8 -1 -24.5 -2t-22.5 -2q-100 -8 -232 -12q-254 -473 -469.5 -980.5t-437.5 -1116.5l-86 227q-71 193 -149 418l-80 227q-26 78 -162 453h-363q-85 -140 -157 -265q-100 -173 -156 -268
q-231 -402 -450 -756q-90 565 -191 1033q-130 586 -276 1022z" />
    <glyph glyph-name="X" unicode="X" horiz-adv-x="3444" 
d="M735 3025l-39 -57q307 -579 705 -1440l18 -43q3 -7 10.5 -22.5t10.5 -22.5q-352 -433 -588 -719q-309 -379 -600 -711q36 4 170 17l381 26q36 1 93.5 4t74.5 4q334 459 704 1020q84 -181 254 -512q114 -225 269 -503l352 -23q214 -17 350 -31q-211 308 -459 701
q-212 336 -440 717q662 1020 1096 1607l-211 -14q-93 -8 -277 -21q-356 -479 -848 -1218l-151 309q-25 50 -75.5 150.5t-76.5 150.5q-160 315 -317 600l-74 6q-14 1 -40.5 2t-37.5 2q-173 12 -254 21z" />
    <glyph glyph-name="Y" unicode="Y" horiz-adv-x="3162" 
d="M739 3039l-39 -57q138 -292 297 -667.5t235.5 -565.5t268.5 -676q-17 -203 -49 -500q-26 -241 -51 -499h45q33 0 51 2h51h43h144q110 0 254 -4q37 668 69 1001q81 143 88 154l90 153q228 395 498 842q279 462 526 823l-161 -14q-161 -15 -326 -25q-351 -508 -942 -1468
q-257 578 -332 737q-182 386 -354 725q-237 18 -406 39z" />
    <glyph glyph-name="Z" unicode="Z" horiz-adv-x="3418" 
d="M702 2994v-338q525 -47 1119 -47q317 0 637 12q-612 -612 -988 -995q-189 -194 -546.5 -565.5t-425.5 -442.5q-8 -52 -27.5 -164t-24.5 -139q-18 -106 -57 -301q671 62 1253 62q579 0 1231 -60q-8 161 -8 404q0 105 4 237q-546 37 -1147 37q-299 0 -667 -10
q128 128 245 248l459 467q8 9 242 248q338 346 514 524t514 524l29 154q2 27 18 96q8 37 10 53q1 9 4.5 24t4.5 19q-649 -61 -1237 -61q-609 0 -1113 53z" />
    <glyph glyph-name="bracketleft" unicode="[" horiz-adv-x="1961" 
d="M1155 3086q193 0 467 95l-14 -148l-23 -188q-210 -74 -446 -74h-15q0 -3 -16 0q-88 -1104 -238 -2753h29q238 0 430 -61q-3 -44 -9 -150t-9 -151l-11 -193q-235 86 -430 86q-207 0 -460 -86q212 1843 321 3662l57 33q166 -72 367 -72z" />
    <glyph glyph-name="backslash" unicode="\" horiz-adv-x="2369" 
d="M1096 2939l-35 33q-183 27 -346 84q16 -82 44 -241.5t34 -195.5l147 -897q23 -148 70 -438q184 -1165 266 -1618q167 -12 360 -65l97 -19q-109 518 -177 889q-109 592 -163 895q-196 1072 -297 1573z" />
    <glyph glyph-name="bracketright" unicode="]" horiz-adv-x="1968" 
d="M1626 3119l-53 41q-206 -74 -410 -74q-200 0 -420 97l-10 -183l-6 -75q-1 -13 -2 -39t-2 -37q175 -78 424 -78h37q-29 -300 -64 -698q-45 -479 -121 -1375l-61 -698h-25q-207 0 -442 -61l-22 -220l-29 -256q256 86 459 86q193 0 428 -84q98 1735 319 3654z" />
    <glyph glyph-name="asciicircum" unicode="^" horiz-adv-x="3323" 
d="M2081 3017h-328q-79 -68 -184 -170l-180 -172q-247 -236 -408 -379q-240 -209 -514 -414l162 6q98 3 190 6q226 7 350 7q96 96 199 214t162 191t172 215q150 192 194 244q4 -7 17.5 -28.5t19.5 -31.5t18 -28t15 -23l31 -49q10 -17 35 -59q93 -154 139 -228.5
t132.5 -196.5t170.5 -218q27 -1 86.5 -2.5t77.5 -2.5q196 -3 377 -12l159 -6q-252 203 -467 428q-121 126 -356 399q-1 2 -135 158q-128 145 -135 152z" />
    <glyph glyph-name="underscore" unicode="_" horiz-adv-x="2949" 
d="M2150 -614l-26 69q-492 -8 -1100 -8q-168 0 -260 2q-185 0 -277 2q-44 0 -536 6q102 -114 102 -182q0 -90 -143 -221l571 6q199 0 297 2h277h276q96 -2 297 -2l572 -6q-119 110 -119 178q0 42 18.5 83.5t50.5 70.5z" />
    <glyph glyph-name="grave" unicode="`" horiz-adv-x="1765" 
d="M1227 3297l-33 15q-59 0 -211 8q-190 10 -209 12q72 -118 154 -283q33 -68 104 -233q55 -118 60 -131q17 -41 59 -131h90q76 0 121 -2q22 -1 67 -2t68 -2l137 -6q27 -1 73.5 -4t47.5 -3q-122 148 -192 252q-132 195 -240 369q-47 70 -96 141z" />
    <glyph glyph-name="a" unicode="a" horiz-adv-x="2613" 
d="M2380 2314q-7 -4 -41.5 -1.5t-38.5 1.5t-17 -1.5t-29 -0.5t-31 0.5t-27 1.5h-11h-225q-7 -44 -12 -85.5t-12.5 -111t-16.5 -141.5q-91 146 -251 232t-343 86h-57q-173 0 -344 -80q-177 -83 -287 -225l2 2q-179 -213 -260 -525q-68 -264 -68 -551q0 -362 156 -602
q95 -143 251.5 -219t340.5 -76h20q7 0 11 2h8h30q183 0 365 84q174 80 301 232q12 -68 13.5 -120t-3 -83.5t-16.5 -75.5l129 -10q215 -16 313 -29q-54 258 -72 474.5t10 502t57 463t111 617.5q29 156 44 239zM1223 1999h49q144 0 250 -92t141 -250q33 -149 33 -318
q0 -172 -27 -284q-39 -163 -149 -242l2 2q-57 -37 -134.5 -58.5t-132 -26.5t-145.5 -9q-120 0 -205 18q-107 23 -172 88q-41 42 -62 74t-32 78q-5 19 -8.5 39t-5 43.5t-2.5 38.5t-1.5 44.5t-0.5 39.5q10 85 15.5 125.5t21.5 113t38 129.5q78 200 197 314q139 133 330 133z
" />
    <glyph glyph-name="b" unicode="b" horiz-adv-x="2809" 
d="M1133 3090q-2 0 -25.5 1.5t-60 4.5t-83 7.5t-108.5 14t-123 22.5q-17 -787 -32 -1056q-31 -550 -135 -1178q-22 -131 -48 -277l250 -289q28 -33 64 -62.5t80 -55.5t74.5 -43t81 -41.5t67.5 -33.5q166 -86 348 -86h18q6 0 10 2h9h30q184 -2 353 73.5t290 219.5
q165 193 238 490q57 233 57 518q0 188 -44.5 362t-133.5 306q-206 305 -575 305h-62q-176 0 -350 -80q-172 -79 -285 -229q51 471 95 1105zM2228 1231l2 8q-29 -147 -69 -238q-58 -134 -144 -200l4 4q-154 -107 -376 -121q-112 0 -213 35q-122 39 -193 110q-95 133 -106 383
q44 379 204 590q82 100 201 151.5t248 51.5q243 0 358 -219q86 -168 86 -459v-24q-2 -8 -2 -25v-47z" />
    <glyph glyph-name="c" unicode="c" horiz-adv-x="2486" 
d="M2089 2148l35 39q-264 99 -557 99q-254 0 -473 -66q-269 -80 -435 -235q-189 -183 -272 -492q-70 -250 -70 -532q0 -202 41 -351q51 -185 154 -307l-2 2q135 -169 379 -244q193 -59 457 -59q326 0 616 109q-4 144 -4 233q0 53 4 193q1 40 4 105.5t4 84.5
q-176 -84 -303 -84h-25l-299 6h3q-161 13 -272.5 37.5t-199.5 83.5h3q-72 58 -105 162q-31 98 -31 205q17 168 66 317q57 182 151 287q95 114 256 172q134 49 299 49q281 0 572 -147l16 122v-2q3 22 11 59.5t10 51.5q14 82 20 111z" />
    <glyph glyph-name="d" unicode="d" horiz-adv-x="2732" 
d="M1325 2294h-57q-173 0 -344 -80q-177 -83 -287 -225l2 2q-179 -213 -260 -525q-68 -264 -68 -551q0 -362 156 -602q95 -143 251.5 -219t340.5 -76h20q7 0 11 2h8h30q183 0 365 84q174 80 301 232q-2 -23 -2 -49q-2 -10 -2 -23v-24v-50v-67q-2 -29 -2 -66l129 -10
q115 -9 270 -29q23 1506 324 3134q-25 -8 -51 -12q-25 -7 -29 -7q-144 -19 -334 -34q-117 -642 -178 -1123q-89 153 -247.5 235.5t-346.5 82.5zM608 1184q24 200 88 368q78 200 197 314q139 133 330 133h49q144 0 250 -92t141 -250q33 -149 33 -318q0 -172 -27 -284
q-46 -190 -149 -264l2 2q-57 -37 -134 -58.5t-132.5 -27t-145.5 -9.5q-115 0 -205 19q-106 22 -174 88h2q-69 72 -94 174q-28 103 -31 205z" />
    <glyph glyph-name="e" unicode="e" horiz-adv-x="2682" 
d="M2284 1372l-66 27l68 -29q-2 -14 -2 -37q-1 -5 -2.5 -17.5t-2.5 -17.5v2l-10 -81q-385 -7 -1018 -7q-94 0 -141 2h-143h-246v-10q-4 -78 -4 -104q0 -130 28 -228q33 -116 115 -176v2q212 -133 582 -133h37q207 0 329 17q183 23 355 104v-65q-4 -102 -4 -156v-68
q0 -178 6 -254q-407 -137 -838 -137q-243 18 -432 84q-236 79 -377 217q-107 124 -160 309q-47 161 -47 351q0 269 78 524q92 301 264 487q150 155 379 234q194 66 428 69q203 -11 348 -53q191 -56 303 -168q100 -110 144 -278q31 -126 31 -320v-20q-2 -8 -2 -25v-45z
M981 1556h197q329 0 784 7q-22 214 -158 350q-144 141 -358 141q-299 0 -475 -168q-160 -141 -187 -327q151 -4 197 -3z" />
    <glyph glyph-name="f" unicode="f" horiz-adv-x="1945" 
d="M1282 2402v-78q-3 -33 0 -81q262 3 557 30q-1 -13 -10 -92q-18 -159 -23 -217q-9 -79 -10 -92q-296 -16 -541 -19q-58 -874 -94 -1779q-82 4 -162 4q-155 0 -411 -25q95 600 239 1805q-104 4 -153 8q-31 1 -83 4t-69 4l10 145l7 62q1 12 2 33.5t2 33.5q1 27 4.5 74
t3.5 55q127 -17 311 -30q8 39 19 129q28 166 69 272q59 152 160 238q203 145 457 161q20 -2 63 -2h64q88 0 176 9l43 -45q-26 -162 -41 -299q-98 -5 -150 -5q-26 0 -184 5q-124 -11 -182 -60q-53 -71 -74 -248z" />
    <glyph glyph-name="g" unicode="g" horiz-adv-x="2654" 
d="M2136 240l10 73q111 1058 293 1971l-276 -35h2l-133 -11l-56 -219q-2 -14 -10 -41q-9 -20 -12 -43q-99 147 -268 238q-172 90 -359 90h-61q-183 0 -351 -70q-176 -73 -299 -211q-159 -181 -227 -464q-57 -225 -57 -496q0 -421 170 -678q89 -138 254 -221q160 -80 331 -80
q410 0 674 279q-4 -46 -4 -66q-56 -192 -219 -358q-83 -94 -233 -144q-116 -37 -273 -41q-328 0 -606 156q0 -2 -8 -64.5t-12 -97.5q-2 -21 -23 -180q-28 -216 -49 -344q295 -82 649 -82q270 0 442 41q245 55 404 211q151 164 225 426q48 169 82 461zM1708 1180v2
q-15 -149 -53 -250q-53 -141 -148 -203q-194 -78 -438 -78q-115 0 -201 13q-107 13 -180 63q-59 68 -82 178q-19 88 -22 211q0 21 -2 31t-2 31q14 170 53 305q50 172 133 280q73 89 188.5 138t237.5 49q241 0 379 -150q145 -161 145 -469q0 -83 -8 -151z" />
    <glyph glyph-name="h" unicode="h" horiz-adv-x="2906" 
d="M2376 1374q6 80 6 162q0 278 -103 481q-70 140 -225 213q-139 64 -313 64h-53q-186 0 -354 -86.5t-302 -239.5q36 299 60 561l45 559q-41 1 -203 19l-109 12q-43 2 -94 10q-60 -1601 -354 -3117q172 20 248 27l131 12q99 9 112 10q23 197 78 881l12 174l6.5 84.5
t6.5 89.5q11 140 61.5 272.5t138.5 233.5q80 90 196.5 140.5t236.5 50.5q102 0 192.5 -47t145.5 -136q55 -121 55 -307q0 -86 -6 -125q-80 -796 -113 -1309q19 -1 115 -10l127 -12q73 -7 241 -27q-6 228 -6 256q-2 45 -2 133q-2 43 -2 125q0 401 25 846z" />
    <glyph glyph-name="i" unicode="i" horiz-adv-x="1386" 
d="M696 2877l-26 -225q90 -67 188 -67q92 0 203 57q1 19 4 65t4 72t4 72t4 65q0 31 2 54q1 12 2 34.5t2 34.5q1 21 2.5 44t3.5 46t3 31q-127 -86 -197 -86q-62 0 -109 35l-65 -25zM707 2259l-54 -33q-60 -655 -108 -1126q-81 -794 -119 -1129q140 107 221 107q72 0 187 -103
q64 919 81 1153q48 645 91 1149q-119 -36 -187 -36q-53 0 -112 18z" />
    <glyph glyph-name="j" unicode="j" horiz-adv-x="1482" 
d="M1020 3068l-37 -33q-13 -82 -27 -182q-9 -66 -28 -184l-15 -97q243 24 406 68l6 84q3 50 6 84q4 85 12 170q1 16 4.5 45t4.5 45l6 78q-157 -52 -338 -78zM856 2214l-39 -33q-33 -233 -78 -567q-6 -44 -32.5 -251.5t-42.5 -318.5q-39 -281 -52 -389q-9 -64 -26.5 -193
t-26.5 -194q0 -6 -2 -10q-2 -6 -2 -14q-17 -123 -33 -181q-29 -107 -73 -161q-54 -50 -131 -75t-183 -42l-121 -25q-6 -47 -51 -366l-33 -236q61 21 95 31q57 17 137 33q24 3 57 10q177 34 254 63q138 52 234 136q104 102 161 274q34 111 54 303q108 991 274 2237
q-219 -28 -340 -31z" />
    <glyph glyph-name="k" unicode="k" horiz-adv-x="3024" 
d="M768 3123l-45 -37q-50 -1528 -352 -3072q193 21 268 27l141 12q96 9 123 10q1 21 10 134q1 29 4.5 73.5t4.5 57.5l24 356q12 172 21 352q56 -80 178 -252q139 -194 342 -465q143 -190 184 -245q359 -9 807 -68q-54 59 -157.5 174t-194 214.5t-172.5 187.5
q-91 98 -272 289.5t-265 281.5l-74 76l267 301q30 35 153 176l164 186q80 88 320 361q-33 -2 -115 -2q-22 -1 -67 -2t-68 -2q-184 -4 -250 -4q-73 -76 -206.5 -219.5t-166.5 -178.5l-370 -401q45 414 75 823q26 343 49 823q-180 10 -360 33z" />
    <glyph glyph-name="l" unicode="l" horiz-adv-x="1632" 
d="M776 3113l-55 -31q-133 -1683 -311 -3084q218 80 352 80q142 0 321 -78l7 117q1 21 4 65.5t4 67.5q12 180 18 248q-125 42 -233 51q140 1658 223 2531q-66 -4 -70 -4q-14 -2 -39 -2q-135 0 -221 39z" />
    <glyph glyph-name="m" unicode="m" horiz-adv-x="4177" 
d="M1544 2290q-178 0 -342 -83t-272 -231l22 277l-403 18q8 -133 8 -342q0 -960 -299 -1913l125 7q135 9 283 12q21 1 62 2t60 2q109 516 150 1247q6 128 48 258.5t114 233.5q169 239 422 239q114 0 194 -30q102 -42 158 -132l-2 5q63 -116 63 -301q0 -63 -6 -125v4
q-129 -715 -266 -1377h551q45 670 110 1219q24 313 191 510q84 108 208 160.5t265 52.5q129 0 189.5 -75.5t60.5 -239.5q0 -29 -4 -99q-1 -18 -4 -51t-4 -51l-7 -64q-131 -771 -131 -1282v-98q20 -1 63.5 -2t65.5 -2l144 -6q25 -1 73.5 -4t71.5 -4l127 -7q-63 359 -63 752
q0 298 30 602q17 187 17 268q0 186 -43 336v-2q-45 154 -189 244q-131 82 -301 82q-303 0 -501 -129q-184 -117 -318 -318q-66 217 -276 334q-185 103 -445 103zM895 1923l-2 2h2v-2z" />
    <glyph glyph-name="n" unicode="n" horiz-adv-x="2879" 
d="M2331 1372q4 98 4 150q0 285 -92 489q-73 141 -230 211q-146 64 -315 64q-202 0 -384.5 -67.5t-369.5 -197.5v23q0 6 2 8q0 4 2 6v23l4 180l-92 6q-18 1 -53.5 4t-52.5 4q-127 10 -201 19q-15 -1182 -264 -2280l129 13q36 2 137 8.5t154 9.5q26 1 69.5 4t59.5 4
q67 635 88 1250v-3q26 317 182 486q84 91 231 137q114 33 263 33q96 0 165 -31q86 -42 127 -117v2q45 -103 45 -249q0 -77 -8 -140v2q-2 -6 -2 -20v-21q-112 -736 -155 -1329q83 -2 282 -14q267 -22 279 -23q-31 355 -31 641q0 310 27 715z" />
    <glyph glyph-name="o" unicode="o" horiz-adv-x="2596" 
d="M1401 2281q-211 0 -406 -69q-214 -75 -360 -219q-173 -195 -254 -518q-62 -248 -62 -543q0 -402 170 -635v2q103 -153 314 -229q175 -64 393 -64q214 0 412 66q217 72 358 225q176 207 254 520q64 256 64 545q0 391 -170 627q-114 157 -316 231q-169 61 -397 61z
M1378 1980q129 -2 237.5 -53t166.5 -147q100 -170 100 -441q0 -185 -27 -307q-48 -206 -167 -287h2q-162 -94 -435 -94q-131 0 -233 18.5t-186 73.5l2 -2q-63 50 -86 127t-23 183q0 219 41 374q53 215 162 353q79 100 197 151t249 51z" />
    <glyph glyph-name="p" unicode="p" horiz-adv-x="2691" 
d="M1368 -8h53q179 0 348 82q171 83 287 225h-2q179 208 260 520q68 261 68 557q0 359 -156 596q-100 134 -262 213q-167 82 -334 82h-59q-187 0 -361 -74q-184 -77 -301 -223l11 60l30 202q-64 2 -200 17q-140 11 -201 18q-63 -1595 -356 -3094q11 1 96 10l110 12
q41 2 109 10q19 1 51.5 4.5t44.5 4.5q132 799 170 1091q84 -154 250 -235q159 -78 344 -78zM2116 1204v-4q0 -10 -2 -14q-3 -9 -3 -17q-19 -148 -51 -247q-45 -136 -135 -211l4 2q-161 -107 -416 -107q-247 0 -409 107l2 -2q-121 97 -121 342q0 206 39 377q48 211 162 350
q83 108 206.5 161.5t264.5 53.5q234 0 358 -185q111 -165 111 -421q0 -80 -10 -185z" />
    <glyph glyph-name="q" unicode="q" horiz-adv-x="2805" 
d="M1683 -780q202 -12 340 -31h13h18q6 -2 21 -2h10q40 1518 350 3094q-51 -8 -94 -10l-109 -12q-154 -16 -204 -18l-33 -121l-47 -185q-103 150 -269 240q-176 92 -352 92h-70q-178 2 -348.5 -75.5t-292.5 -217.5q-152 -184 -229 -477q-61 -233 -61 -506q0 -433 170 -692
q91 -146 246.5 -226.5t336.5 -80.5h58q176 0 348 82q171 82 284 227q-37 -337 -86 -1081zM600 1163v21q14 184 51 311q49 169 140 287q72 93 184 147q111 51 225 51q143 2 257 -48t179 -156q101 -171 101 -424q0 -191 -31 -330q-49 -221 -178 -311h4q-172 -97 -432 -97
q-271 0 -400 95l5 -2q-111 99 -111 337q0 31 4 97q0 14 2 22z" />
    <glyph glyph-name="r" unicode="r" horiz-adv-x="1851" 
d="M1653 1868l53 33q4 32 14.5 101t12.5 85l28 186h-104q-145 0 -279 -32q-156 -37 -274 -107l-94 -53q-118 -66 -121 -68l12 205q-22 0 -45 2t-47 2q-171 14 -266 23q-88 -1176 -305 -2233q288 38 516 47q28 313 67 1084v-2q34 344 170 534q83 116 250 172q123 39 299 39
q68 0 113 -18z" />
    <glyph glyph-name="s" unicode="s" horiz-adv-x="2385" 
d="M2025 2187l-24 8q-266 86 -694 86q-150 0 -279 -20t-268 -76q-170 -69 -256 -235q-78 -150 -78 -334q0 -247 119 -363q73 -71 215 -127q89 -38 237 -71l78 -19q141 -31 201 -49q124 -36 186 -86q63 -67 80 -151q13 -69 -30.5 -116.5t-120.5 -86.5q-110 -55 -269 -55h-22
q-17 0 -27 2h-47q-348 0 -698 188q-3 -26 -39 -287q-4 -22 -20.5 -131.5t-24.5 -157.5q400 -100 745 -100q221 0 365 27q205 38 350 129q132 81 205 237q59 132 59 299q0 245 -135 375q-89 86 -236 146q-78 30 -270 79l-39 11q-202 36 -321 92q-187 86 -187 239
q0 184 174 273q135 69 340 69q375 0 674 -137q5 36 8 49l9 58q13 81 18 106z" />
    <glyph glyph-name="t" unicode="t" horiz-adv-x="2297" 
d="M1274 2724l-39 43q-192 0 -381 18q-7 -94 -25 -266q-7 -63 -26 -272q-5 0 -82 8l-80 10l-90 12l-8 -141v2l-6 -92q-5 -91 -5 -92q56 -7 248 -21q-15 -187 -26 -288q-25 -262 -62 -566q-5 -46 -16.5 -143t-16.5 -148q-10 -95 -10 -186q0 -256 127 -383q90 -76 244 -115
q67 -18 270 -36l70 -7l53 -6q10 -1 37.5 -4t44.5 -4q65 -8 90 -10q88 -12 168 -25q0 85 8 293q1 26 2 77.5t2 76.5l7 139q-163 20 -377 31q-56 3 -78 5.5t-67 9.5t-74.5 21.5t-51.5 36.5l4 -6q-43 54 -43 185q0 9 5 92q0 14 2 20v23q5 52 16 157.5t16 157.5t16.5 157
t16.5 157q4 40 9 87t12 104t10 87h47q170 0 436 12q10 60 25 176l12 142l-111 -6q-19 -1 -59 -2t-59 -2q-140 -7 -228 -7h-34l24 213v-2l19 140q8 88 14 137z" />
    <glyph glyph-name="u" unicode="u" horiz-adv-x="2770" 
d="M489 918q-10 -113 -10 -209q0 -246 82 -437q74 -142 238 -209q139 -61 321 -61h54q188 0 364.5 87.5t308.5 238.5q-4 -36 -22 -281q14 -1 45 -2t47 -2q86 -5 217 -16l92 -7q3 1116 250 2261q-70 -8 -235 -20q-140 -13 -238 -16q-99 -583 -137 -934v2q-48 -309 -209 -488
v2q-163 -174 -451 -174q-94 0 -173.5 39.5t-127.5 124.5l2 -2q-65 135 -65 354q0 13 2 19v18v29q37 491 47 1012l-150 12l-43 6q-9 1 -26.5 3t-26.5 3l-51 6q-7 1 -22 2t-21 2v-135q0 -29 2 -43v-45q0 -542 -64 -1140z" />
    <glyph glyph-name="v" unicode="v" horiz-adv-x="2844" 
d="M696 2265l-145 14q63 -167 151 -430q127 -395 238 -825l174 -686q58 -222 74 -279q53 0 88 2h90h143h121q86 0 121 -2l158 375q209 507 395 909q226 497 477 936q-57 -6 -221 -18q-21 -1 -60.5 -4t-58.5 -4q-29 -3 -102 -8q-169 -281 -329.5 -584t-369.5 -719l-118 -233
q-27 71 -35 102l-12 41q-3 7 -17 49q-290 876 -485 1344q-77 2 -277 20z" />
    <glyph glyph-name="w" unicode="w" horiz-adv-x="3631" 
d="M580 2273l-41 -51q158 -479 252 -1059q72 -444 127 -1116h53q43 0 129 4h55q264 6 283 6q199 355 485 930q69 -239 148 -467q80 -245 163 -461q58 0 95 -2q35 -2 92 -2q28 -1 86 -2t88 -2l176 -6q138 610 317 1122q204 592 480 1112q-10 -1 -31.5 -2t-32.5 -2l-78 -6
q-9 0 -143 -8l-133 -8q-179 -338 -323 -691t-296 -790q-80 186 -157 379q-89 220 -152 379q-114 -4 -197 -4h-307q-75 -128 -82 -140q-1 -1 -82 -141l-137 -233q-63 -101 -141 -238q-143 860 -354 1477q-212 12 -342 22z" />
    <glyph glyph-name="x" unicode="x" horiz-adv-x="3110" 
d="M2617 2202l-32 65q-86 -8 -338 -22q-378 -425 -736 -869q-273 482 -522 865q-122 4 -219 14q-21 1 -60.5 4t-58.5 4q-22 1 -57.5 4t-44.5 4q162 -249 358 -577q128 -215 340 -590q-191 -218 -499 -551q-157 -168 -517 -541l154 13q59 2 176 10q195 13 326 16
q342 398 598 729q128 -229 213 -366q156 -258 225 -363q88 -2 322 -14q186 -13 321 -25q-211 261 -412 527q-252 329 -403 540q7 12 14 19q9 8 13 16v-2q181 245 283 382t259.5 339.5t296.5 368.5z" />
    <glyph glyph-name="y" unicode="y" horiz-adv-x="2848" 
d="M1610 -141l250 538q185 399 301.5 646.5t293.5 604t330 636.5q-72 -10 -102 -13l-121 -12q-176 -21 -221 -23q-281 -460 -707 -1237q-109 215 -321 621q-55 103 -336 614q-46 2 -213 23q-93 10 -213 27q164 -390 375 -941q29 -75 358 -952l55 -149l-39 -68
q-70 -110 -133 -227q-123 -133 -194 -191l2 2q-34 -26 -72 -42t-89 -24t-80.5 -10.5t-94.5 -5.5q-10 -1 -35.5 -2t-38.5 -2l-76 -6q-2 -14 -4.5 -30.5t-6 -38.5t-5.5 -35l-16 -103q-3 -20 -11 -73.5t-12 -83.5l-28 -158q18 2 49 6q77 8 118 10q8 1 26.5 2t25.5 2
q194 12 299 33q161 33 280 117q120 93 236 254q77 113 170 291z" />
    <glyph glyph-name="z" unicode="z" horiz-adv-x="2623" 
d="M539 2224v-268q353 -31 772 -31q261 0 469 8l-367 -342q-54 -51 -172 -161t-180 -168q-430 -408 -711 -682l-47 -283q-32 -180 -55 -283q519 47 942 47q434 0 889 -43q-4 184 -4 322q0 95 4 209q-416 26 -811 26h-164q-109 0 -164 -2q163 163 205 207q147 149 377 394
l200 208q36 37 254 265l256 262q2 15 8.5 45t8.5 43l18 98q14 76 35 184q-498 -51 -946 -51q-382 0 -772 35z" />
    <glyph glyph-name="braceleft" unicode="{" horiz-adv-x="2414" 
d="M1745 -258l-41 43q-25 0 -49 8q-3 1 -13 2t-14 2q-13 0 -33 4l-45 9q-205 29 -278 102q-37 49 -48.5 111t-11.5 151q1 24 11 119q8 76 10 119l24 237v74q0 106 -9.5 184t-41.5 152q-51 118 -213 182q168 53 258 168q62 94 90 201t43 245q10 100 27 236q3 30 29 238v-2
l6 36q9 58 14 86t17 76t30.5 83t44.5 63l-4 -7q45 35 109.5 59.5t112.5 34t128 21.5q114 19 175 37q3 29 12 76q3 16 8 46t8 46q7 45 31 166q-77 -18 -137 -27q-30 -7 -76 -14q-38 -9 -64 -12q-183 -29 -320.5 -67t-260.5 -112q-113 -95 -170 -264q-29 -88 -60 -305
l-24 -229q-18 -167 -23 -228q-13 -103 -39 -198q-27 -100 -94 -176q-70 -52 -172.5 -77.5t-204.5 -25.5h-16q-12 0 -18 2q-3 1 -13 2t-14 2h-57l-17 -159q-1 -7 -4 -35.5t-4 -46.5q-1 -8 -2 -23t-2 -22q-2 -14 -2 -37h92h16q4 -2 15 -2h12q105 -4 184 -25q96 -27 144 -86
l-2 2q39 -62 51 -139.5t12 -183.5q0 -120 -26 -330q-27 -222 -27 -336q0 -136 26.5 -243.5t98.5 -192.5q105 -87 287 -140q93 -27 317 -63l186 -29q0 35 2 58q1 11 2.5 33t2.5 32q0 22 6 127l6 82q0 53 2 80z" />
    <glyph glyph-name="bar" unicode="|" horiz-adv-x="1345" 
d="M492 1272h40q66 -4 103 -4h43q102 0 174 6l63 477q60 430 70 500q13 92 36.5 260t33.5 239q55 394 67 476q-183 -127 -305 -127q-16 0 -26 2l-64 12q-69 -520 -117 -924zM571 -877l47 35q143 1269 224 1948h-84q-33 -2 -99 -2h-98h-84q-68 -517 -143 -1045
q-41 -293 -154 -1046q183 119 307 119q37 0 84 -9z" />
    <glyph glyph-name="braceright" unicode="}" horiz-adv-x="2447" 
d="M565 -285l-112 -16q-1 -13 -5.5 -43t-5.5 -39q-6 -33 -14 -96l-12 -99q-11 -58 -13 -79l84 16h-2l80 12q64 14 84 17q55 8 84 14q176 28 264 55q143 41 256 119q108 95 162 270q30 95 51 301l11 148q8 105 14 154q8 102 10 153q13 110 39 207q30 112 96 184h-2
q68 66 187 90q73 15 207 15h104l22 319q-29 0 -75 4h-25h-18q-6 -2 -21 -2q-110 0 -182 17q-101 24 -154 77q-67 95 -67 263q0 58 6 116l39 461q8 76 8 180q0 267 -121 398q-109 85 -262 131q-80 24 -287 61q-10 1 -61 10l-70 13q-60 10 -125 26l-8 -174l-4 -157l131 -25
q118 -20 195 -41q106 -30 164 -80q53 -80 53 -217q0 -126 -27 -375q-24 -221 -24 -387q0 -186 55 -289v3q64 -126 248 -183q-193 -53 -279 -168q-67 -102 -90 -207q-12 -52 -21 -115t-13 -99t-11.5 -118.5t-9.5 -103.5l-19 -219l-4 -39v-10q-2 -2 -2 -8q-13 -109 -37 -189
t-78 -139l5 2q-68 -57 -187 -84q-69 -18 -211 -35z" />
    <glyph glyph-name="asciitilde" unicode="~" horiz-adv-x="3125" 
d="M2879 1634l15 56q-29 -18 -74 -41q-14 -7 -76 -45q-202 -120 -295 -160q-172 -74 -311 -74q-105 0 -211.5 31t-240.5 86q-8 5 -48 18l-14 8q-289 121 -539 121q-179 0 -368 -84q-162 -72 -332 -215q-13 -205 -117 -381l49 -45q128 75 428 277v-2q165 119 328 127
q112 -4 220.5 -46.5t232.5 -115.5l121 -59q165 -78 237 -102q102 -32 201 -36q156 0 323 95q118 65 287 200l129 96q21 169 103 306z" />
    <glyph glyph-name="uni00A0" unicode="&#xa0;" horiz-adv-x="3897" 
 />
    <glyph glyph-name="exclamdown" unicode="&#xa1;" horiz-adv-x="1533" 
d="M1182 2478l61 582q-161 -80 -280 -80q-113 0 -248 69q-4 -29 -13 -157l-6 -84q-3 -46 -6 -72l-20 -282q139 -48 245 -48q113 0 238 39zM938 25l59 30q36 674 80 1291q6 97 10 301q1 25 4.5 98t4.5 117t4 116.5t4 96.5q-135 -21 -227 -21q-70 0 -197 19q-22 -171 -33 -248
q-25 -159 -37 -248l-30 -229q-39 -365 -76 -678q-47 -399 -82 -678q172 84 297 84q127 0 219 -51z" />
    <glyph glyph-name="cent" unicode="&#xa2;" horiz-adv-x="2465" 
d="M2148 2146l-18 -125l-23 -180q-272 145 -505 160q-42 -349 -86 -760q-44 -405 -78 -764q242 20 536 148q-1 -9 -2 -30t-2 -32q-2 -61 -10 -149l-6 -64q-17 -170 -19 -266q-256 -87 -542 -104l-21 -238q-2 -12 -12 -156l-6 -84q-2 -27 -6 -73q-19 0 -29 2q-6 1 -19 2
t-20 2q-27 0 -39 2t-31 2q-56 0 -108 8l31 315q8 89 10 119q3 51 12 119q-194 25 -371 104q-196 87 -299 232q-170 226 -170 618q0 283 68 523q82 298 268 481h-2q134 143 348 227q173 66 400 90q7 95 26 246l37 311h117q23 0 131 7l-37 -279q-28 -212 -35 -281
q294 -14 498 -108l-33 -33zM1204 494q80 834 156 1495q-157 -18 -278 -110t-205 -237q-75 -130 -113.5 -286t-38.5 -305q0 -232 133 -381q125 -140 346 -176z" />
    <glyph glyph-name="sterling" unicode="&#xa3;" horiz-adv-x="2672" 
d="M2353 2900l31 37q-277 82 -531 82q-79 0 -190 -13q-216 -29 -389 -118q-186 -95 -287 -277q-91 -159 -133 -379q-31 -151 -43 -309l-12 -121l-21 -203q-31 1 -92 2.5t-92 2.5l-186 6l-35 -285q226 -4 372 -4q-19 -166 -22 -205l-25 -196q-8 -50 -26 -195q-4 -29 -9 -62.5
t-11 -75t-9 -65.5q-290 -11 -455 -22l-12 -62q-5 -30 -39 -211q-18 -89 -22 -112q-3 -21 -11 -56t-10 -45q473 45 895 45q570 0 1133 -73q0 34 2 63v64q3 182 16 352q-506 54 -1069 57l94 795l731 -14l13 135l18 143q-43 1 -131.5 2t-134.5 2q-102 0 -266 4q-66 0 -99 2
t-102 2l8 58l19 164q14 123 20 161q19 170 49 281q43 158 117 254q73 73 203 119q109 36 227 36q214 0 496 -141l12 74q5 31 17.5 93t13.5 69q2 9 14 69l14 78z" />
    <glyph glyph-name="currency" unicode="&#xa4;" horiz-adv-x="3063" 
d="M1640 2152q-250 0 -458 -135l-209 226l-187 198l-116 -117q-3 -3 -66 -61q-15 -15 -69 -63l387 -428q-172 -248 -172 -512q0 -183 90 -394l-131 -123q-173 -167 -330 -305l82 -100l28 -33q34 -46 68 -80q6 -8 16.5 -20.5t12.5 -14.5l311 279l160 145q226 -131 446 -131
q226 0 455 135q50 -55 201 -210q98 -101 202 -211l123 120q40 46 125 119q-283 301 -395 428q176 243 176 529q0 79 -27 194q-14 57 -57 189q45 41 135 127q23 21 68 63t67 62l193 174l-209 247l-371 -333l-104 -97q-207 133 -445 133zM2052 1325v-2q-12 -206 -166 -350
q-74 -69 -166 -108.5t-190 -39.5q-189 0 -316 121q-131 121 -131 316q0 109 40.5 209t113.5 174q74 75 170.5 118t202.5 43q190 0 315 -116q129 -123 129 -312v-26q0 -19 -2 -27z" />
    <glyph glyph-name="yen" unicode="&#xa5;" horiz-adv-x="3088" 
d="M2736 1032l6 92q3 56 6 90q-447 11 -778 11q1 7 1.5 16t1 14.5t1.5 8.5t1.5 7.5t1 13t1.5 15.5q19 32 39 58l37 57l100 164l627 6q1 8 2 29t2 31l6 57q9 77 9 84q1 7 2 22.5t2 22.5q2 14 2 37l-299 -6q-54 0 -180 -4q471 745 778 1187l-178 -16q-196 -20 -301 -27
q-419 -630 -842 -1341q-102 242 -295 676q-101 225 -311 663q-53 2 -232 23q-132 13 -231 26q160 -331 278 -591q210 -468 267 -600q-195 0 -482 10q-3 -25 -6 -70q-4 -61 -12 -141l-6 -74q200 -4 315 -4h315q21 -41 43 -72q31 -51 41 -71l76 -133l-6 -78q-276 0 -549 -6
l-233 -5l-6 -81q0 -3 -25 -197q-10 -79 -10 -84q426 17 788 20l-67 -399q-11 -66 -35 -199t-35 -200h186q47 0 70 2h70q107 0 243 -4q0 404 15 800q338 -3 737 -18l43 37z" />
    <glyph glyph-name="brokenbar" unicode="&#xa6;" horiz-adv-x="1464" 
d="M1073 2871l-69 31q-51 -57 -132 -57q-30 0 -73 37q-42 34 -97 114q-25 -339 -63 -809q-31 -359 -35 -420q-6 -79 -18 -215.5t-15 -175.5q88 -28 170 -28q78 0 191 18q62 708 141 1505zM883 829l-33 45q-72 7 -127 7q-57 0 -96 -2l-101 -7q-13 -140 -38 -427t-33 -382
q-68 -706 -78 -806q129 129 205 129q71 0 176 -131l30 385q4 54 14.5 190.5t16.5 212.5q5 69 16.5 204t16.5 199z" />
    <glyph glyph-name="section" unicode="&#xa7;" horiz-adv-x="2301" 
d="M1894 985q-101 -148 -272 -252q184 -189 184 -411q0 -146 -51 -265q-56 -135 -178 -215l2 2q-105 -79 -281 -120q-126 -29 -303 -29q-227 0 -622 76l18 161q20 146 21 152q9 81 18 149q350 -122 569 -122q167 0 261 28q75 22 114 73.5t41 115.5q-21 121 -166 245
q-75 64 -254 168l-73 43q-91 55 -130 79t-107.5 74.5t-113.5 96.5q-165 168 -165 389q0 189 104 353q103 162 270 249q-182 182 -182 418q0 134 55 250q58 122 174 193h-2q121 82 277 114q122 25 293 25q297 0 577 -76l-26 -31l45 4q-1 -11 -4.5 -31t-4.5 -28
q-2 -14 -12 -110q-1 -8 -4 -28.5t-4 -31.5q-9 -51 -10 -61q-1 -12 -4.5 -30.5t-3.5 -21.5q-340 123 -580 123q-137 0 -244 -61q-126 -73 -129 -197q21 -128 168 -258q104 -94 252 -172l76 -45q80 -49 125.5 -78t110 -78t110.5 -96q168 -171 168 -383q0 -193 -107 -350z
M1577 1096q78 95 78 192q0 162 -189 322q-32 27 -66.5 52.5t-83 56t-71.5 45t-87 51.5t-73 43l-84 45q-106 -77 -165 -152q-76 -100 -76 -201q0 -144 174 -297q46 -42 116.5 -89.5t106 -68.5t127.5 -75q46 -28 64 -37q16 -8 61 -35q99 68 168 148z" />
    <glyph glyph-name="dieresis" unicode="&#xa8;" horiz-adv-x="1996" 
d="M772 3187l-39 -52q19 -71 19 -139q0 -129 -86 -286q18 1 57 2t59 2q89 0 136 2q180 4 247 4q37 176 37 342q0 66 -4 116q-36 1 -108 2.5t-105 2.5q-81 0 -213 4zM1604 3178l-35 -30q-39 -156 -39 -297q0 -70 8 -129q198 -6 234 -6l253 -4q-45 116 -45 190q0 111 88 285
l-266 -4q-33 0 -198 -5z" />
    <glyph glyph-name="copyright" unicode="&#xa9;" horiz-adv-x="3454" 
d="M1937 2963q-297 0 -567 -98q-292 -109 -496 -313v2q-242 -222 -366 -559q-111 -302 -111 -641q0 -243 75.5 -469t221.5 -400q170 -190 441 -303q254 -106 534 -106q306 0 574 96q293 105 503 315v-2q246 231 365 559q113 311 113 644q0 245 -74.5 470t-220.5 394
q-181 205 -447 311q-258 100 -545 100zM1921 2722q249 0 461.5 -83.5t359.5 -254.5q124 -139 186 -324.5t62 -392.5q0 -281 -88 -516q-106 -283 -311 -432l2 2q-393 -252 -877 -252q-201 0 -434 70q-216 62 -393 178q-131 125 -196.5 302t-65.5 376q0 272 102 530
q109 272 307 453q179 173 408.5 258.5t476.5 85.5zM2421 2263l30 37q-243 98 -503 98q-437 0 -697 -233q-150 -135 -229 -355q-68 -185 -68 -407q0 -328 187 -535q219 -235 631 -235q297 0 559 106q4 114 12 183l18 227q-299 -133 -499 -133q-227 0 -383 117
q-172 129 -172 344q0 136 51 274.5t143 247.5q80 91 193.5 138.5t240.5 47.5q239 0 512 -127l11 107q6 67 12 106z" />
    <glyph glyph-name="ordfeminine" unicode="&#xaa;" horiz-adv-x="2191" 
d="M1917 2339q10 82 10 153q0 260 -149 406q-167 127 -498 127q-304 0 -590 -88v-47q-2 -23 -2 -51v-43q-2 -18 -2 -54q-2 -18 -2 -53q-2 -18 -2 -45q337 116 541 119q154 -4 250 -43q141 -62 141 -223v-19q0 -14 -2 -20q-132 -7 -326 -7q-311 0 -545 -129
q-104 -70 -168 -215q-55 -125 -55 -256q0 -217 146 -331q127 -101 337 -101q150 0 289 54t248 157l-14 -176l145 -6q12 -1 42.5 -2t45.5 -2q21 -1 54 -4.5t34 -3.5q20 423 72 903zM1348 2314h20q70 0 172 4h39q-2 -2 -2 -4v-10v-6q-2 -2 -2 -8q-7 -87 -48.5 -182
t-101.5 -164q-69 -66 -157 -101t-181 -35q-101 0 -180 60q-82 62 -82 155q0 180 170 244q24 9 53.5 16t50 11t60.5 7.5t53 4.5t61.5 3.5t53.5 2.5q15 0 21 2zM516 1233l-37 -35q-1 -4 -4 -24t-4 -33l-12 -68q-4 -23 -23 -127q378 39 699 39q336 0 708 -45v190v33
q0 4 0.5 12.5t1.5 23.5t2 26q-365 35 -684 35q-284 0 -647 -27z" />
    <glyph glyph-name="guillemotleft" unicode="&#xab;" horiz-adv-x="2494" 
d="M1370 1696l62 430q-196 -146 -519 -395q-270 -209 -514 -404q-14 -44 -24 -67q-9 -21 -13 -33q-2 -3 -3.5 -7t-2.5 -6.5t-2 -3.5l-10 -18q-21 -49 -25 -59l-24 -60q227 -257 399 -440q199 -212 412 -428l76 264l67 221q-185 193 -495 527q281 221 616 479zM1780 1735
l-283 -222q-105 -83 -285 -221l-51 -116l-28 -66q-25 -57 -29 -68q189 -201 434 -452q20 -21 100.5 -104.5t124.5 -127.5q74 -76 213 -215q54 334 95 504l-504 541l147 117q27 20 80.5 61.5t65.5 50.5l342 273q6 27 20.5 105.5t26.5 133t26 103.5l-61 43z" />
    <glyph glyph-name="logicalnot" unicode="&#xac;" horiz-adv-x="3428" 
d="M475 1782l-41 -49q31 -140 41 -373q1043 0 2093 35q-106 -379 -106 -695v-28q0 -17 2 -35v-33q51 -2 172 -2l172 -6l198 -4q-79 259 -79 506q0 312 122 684q-697 -23 -1316 -23q-649 0 -1258 23z" />
    <glyph glyph-name="softhyphen" unicode="&#xad;" horiz-adv-x="1763" 
d="M391 1341l-37 -47q6 -30 6 -73q0 -99 -88 -248q172 8 578 16q203 4 575 4q-24 83 -24 125q0 93 90 244l-207 -4l-377 -12q-219 -7 -377 -7h-69q-25 0 -35 2h-35z" />
    <glyph glyph-name="registered" unicode="&#xae;" horiz-adv-x="3454" 
d="M2929 2552q146 -169 220.5 -394t74.5 -470q0 -333 -113 -644q-119 -328 -365 -559v2q-210 -210 -503 -315q-268 -96 -574 -96q-280 0 -534 106q-271 113 -441 303q-146 174 -221.5 400t-75.5 469q0 339 111 641q124 337 366 559v-2q204 204 496 313q270 98 567 98
q287 0 545 -100q266 -106 447 -311zM2595 821l-2 -2q193 187 299 428t106 496q0 196 -63 367.5t-189 297.5q-152 160 -365.5 237t-459.5 77q-247 0 -475 -79t-408 -239q-196 -164 -301 -413q-100 -229 -100 -490q0 -227 86 -413.5t240 -319.5q149 -130 346 -199t417 -69
q195 0 384 55t352 164h-25q-39 0 -57 2h-47q-84 0 -166 4l-62 115q-11 19 -59 112l-92 181q-4 11 -12 22q-10 10 -13 19q-58 100 -94 145q-61 75 -119 86h-22h-17h-16h-25q-28 -280 -30 -305l-33 -377h-86h-78q-51 0 -76 -2h-192q50 484 80 825q35 392 61 824q203 -7 563 -7
q146 -2 256.5 -20t208.5 -72q92 -57 135 -143t43 -186q0 -177 -110 -306q-109 -131 -275 -172q15 -12 29.5 -26t28.5 -31.5t23 -29.5t23.5 -35t20.5 -32.5t21.5 -37t19.5 -33.5h-2l29 -61l223 -418q50 37 76 61zM1665 1735h205q91 0 157 11t123 48q51 34 75 97.5t24 131.5
q0 120 -109 168q-64 26 -201 31h-20h-61q-23 -2 -64 -2h-88q-8 -107 -14 -164q-10 -96 -13 -166z" />
    <glyph glyph-name="macron" unicode="&#xaf;" horiz-adv-x="1923" 
d="M758 3103l-35 -60q20 -39 20 -86q0 -69 -88 -188q101 0 158 2q56 0 171 1t173 1h156h155q56 0 170 -1t170 -1q55 -2 156 -2q-63 91 -63 143q0 67 90 193q-196 -4 -328 -4q-59 -2 -172 -2q-57 -2 -158 -2q-290 0 -575 6z" />
    <glyph glyph-name="degree" unicode="&#xb0;" horiz-adv-x="1857" 
d="M1260 3070q-133 0 -255 -45t-212 -135v2q-103 -95 -158 -248q-47 -131 -47 -281q0 -228 125 -383q78 -88 193.5 -130t246.5 -42q280 0 463 172v-2q104 98 155.5 237t51.5 284q0 254 -158 415q-159 156 -405 156zM1249 2873q127 0 213 -71q90 -77 90 -197
q0 -150 -110 -252q-106 -98 -256 -98q-130 3 -215 76q-92 76 -92 204q0 148 114 244q112 94 256 94z" />
    <glyph glyph-name="plusminus" unicode="&#xb1;" horiz-adv-x="3381" 
d="M1567 2568l-23 -291q-15 -222 -37 -452q-598 3 -1048 24q-1 -13 -2 -42t-2 -44l-6 -102q-1 -19 -3.5 -53t-3.5 -49l-6 -89q428 -10 1041 -10q-5 -66 -16.5 -189t-16.5 -179q-30 -303 -35 -371h363q38 489 61 719v10q-3 2 0 10q575 0 1042 8l11 103q3 50 10 100l6 39
q8 61 10 96q1 7 2 21.5t2 19.5q-452 -19 -1050 -22q43 461 78 743h-377zM342 440l-39 -32q-9 -67 -35 -195q-17 -74 -22 -102q-3 -20 -11 -53t-10 -42q718 52 1323 52q590 0 1288 -52l-6 99q-1 19 -2 56t-2 56q-8 152 -8 211q-626 39 -1241 39q-566 0 -1235 -37z" />
    <glyph glyph-name="twosuperior" unicode="&#xb2;" horiz-adv-x="2035" 
d="M1128 1751l105 90q82 69 127 108.5t111.5 103t117.5 120.5q184 210 244 416q4 32 4 67q0 222 -199 324q-160 78 -393 78q-221 0 -547 -84q-6 -105 -6 -131v-35q-2 -14 -2 -45q-2 -16 -2 -45q-2 -14 -2 -35q324 123 531 123q112 0 194 -58q92 -65 92 -163v-15
q0 -10 -2 -16q-68 -156 -223 -318q-121 -129 -297 -276q-66 -58 -98 -84q-55 -49 -97 -88q-63 -48 -133 -115l-82 -69q0 -9 -2 -17q-2 -10 -2 -22q-1 -5 -4 -22t-4 -27q-3 -23 -10 -60q-8 -39 -10 -59q-2 -8 -6 -25.5t-5 -25.5q351 38 637 38q298 0 609 -38v59
q-5 122 -5 151v62q-317 27 -579 27h-98q-50 0 -99 -3z" />
    <glyph glyph-name="threesuperior" unicode="&#xb3;" horiz-adv-x="1949" 
d="M1825 2689q0 211 -203 303q-150 68 -387 68q-190 0 -528 -47v-62v-39q0 -25 -2 -39v-26v-37q-3 -21 -3 -37v-29q315 62 476 62q125 0 206 -33q107 -47 107 -139q0 -124 -109 -191q-91 -59 -225 -59h-33q-12 0 -18 2h-16h-162l-6 -82q-1 -10 -7 -84l-4 -84h191q6 2 20 2
h21q126 0 217 -55q102 -62 102 -174q0 -158 -139 -238q-109 -65 -283 -65q-144 0 -256.5 16t-232.5 70l-14 -123q-12 -83 -27 -162q283 -55 518 -55q163 4 285 26q156 29 289 111q102 69 149 186q39 97 39 223q0 123 -76 230q-75 102 -192 143q134 52 215 162q88 115 88 256
z" />
    <glyph glyph-name="acute" unicode="&#xb4;" horiz-adv-x="1685" 
d="M1346 3310l-29 -13q-155 -176 -279 -331q-157 -189 -221 -263q-181 -203 -231 -256l92 7q61 4 110 6q114 6 203 6q149 142 371 383l111 117q21 22 63 65.5t63 65.5q138 138 246 237q-66 -6 -250 -14l-135 -6q-86 -4 -114 -4z" />
    <glyph glyph-name="mu" unicode="&#xb5;" horiz-adv-x="3088" 
d="M324 -772l43 -47q155 20 356 31q49 373 108 1013q66 -112 201 -176q118 -59 271 -59h47q154 0 297 73t245 193q26 -117 99 -193q76 -83 194 -83q46 0 100 19t89 38.5t98 58.5h-2q12 7 49.5 31t54.5 33l6 76q1 13 3.5 43t3.5 47l6 88q1 13 2 37.5t2 35.5l-78 -24
q-44 -23 -74 -23q-66 0 -116 23q-62 28 -62 80v6q85 925 219 1694l-159 -9q-93 -8 -246 -12q-79 -512 -121 -868v2q-22 -146 -60.5 -261t-121.5 -214q-77 -73 -182 -110.5t-214 -37.5q-121 0 -204 29q-110 38 -177 119q-83 116 -83 317q0 22 4 76q20 396 24 981q-14 1 -45 2
t-47 2l-104 6q-179 10 -199 12v-225q0 -1450 -227 -2824z" />
    <glyph glyph-name="paragraph" unicode="&#xb6;" horiz-adv-x="3203" 
d="M1524 2972h-2q-213 0 -363 -39q-205 -53 -338 -160q-152 -117 -221 -303q-59 -158 -59 -359q0 -151 48 -292.5t140 -249.5q184 -203 387 -252q-157 -939 -317 -1649q207 12 348 17q123 4 348 4q79 992 260 3002q213 0 330 6q-198 -1593 -270 -3014q364 -9 759 -62
q-88 662 -122.5 1347.5t-34.5 1456.5q0 213 4 573q-397 -28 -713 -28h-92q-61 0 -92 2z" />
    <glyph glyph-name="periodcentered" unicode="&#xb7;" horiz-adv-x="1142" 
d="M471 1731l-45 -39q0 -246 -53 -514q161 14 243 14q89 0 230 -12q0 297 55 557q-129 -17 -246 -17q-97 0 -184 11z" />
    <glyph glyph-name="cedilla" unicode="&#xb8;" horiz-adv-x="1433" 
d="M606 49h-55q-90 -4 -141 -4h-58q73 -123 101 -180q47 -96 47 -174q0 -74 -62 -123q-60 -47 -137 -47q-14 0 -20 2h-29q-145 0 -272 67l-15 -96q-18 -135 -37 -211q182 -37 342 -37q216 0 355 62q83 44 131 141q41 83 41 182q0 106 -42 203.5t-114 200.5z" />
    <glyph glyph-name="onesuperior" unicode="&#xb9;" horiz-adv-x="2004" 
d="M662 1614l-37 -37q-1 -13 -11 -76q-6 -27 -14 -78l-4 -71q299 30 553 30q276 0 594 -36q-6 81 -6 122q0 72 4 142q-190 21 -395 24q50 712 131 1397h-39q-62 -4 -95 -4h-38h-129q-252 -37 -476 -45v-62q-2 -31 -2 -71v-31q-2 -12 -2 -39v-39v-33q39 2 183 19
q142 18 180 24l65 11q-18 -249 -45 -563l-24 -277q-13 -152 -27 -287q-208 -3 -366 -20z" />
    <glyph glyph-name="ordmasculine" unicode="&#xba;" horiz-adv-x="2236" 
d="M1364 3025q-171 0 -307 -43q-176 -58 -275 -162q-128 -125 -182 -323q-47 -162 -47 -359q0 -322 145 -510q82 -103 232 -158q126 -49 287 -49q175 0 303 43q156 49 268 164h-2q136 136 203 365q51 174 51 395q0 275 -135 432h2q-92 114 -244 164q-124 41 -299 41z
M1352 2832h16q160 0 256 -96q100 -100 100 -264q0 -102 -30.5 -200t-87.5 -173q-132 -172 -340 -172q-176 0 -275 113q-98 112 -98 289q0 110 33 212.5t106 170.5q112 120 320 120zM504 1100l-21 -150q383 35 709 35q336 0 698 -33v39q-2 18 -2 39v100q0 29 2 54v51
q-380 25 -671 25q-318 0 -660 -25l-37 -33z" />
    <glyph glyph-name="guillemotright" unicode="&#xbb;" horiz-adv-x="2566" 
d="M594 2177l-70 -25q-2 -18 -2 -55v-57q0 -124 -12 -230l57 -63q131 -149 221 -246l222 -246q-315 -237 -633 -491q-1 -38 -15 -260q-4 -47 -10.5 -136.5t-9.5 -123.5l135 102q47 36 297 225l135 103l518 393q-6 25 -22 131l-21 127q-476 518 -790 852zM1454 2101l-70 -20
q-11 -66 -16 -107q-3 -17 -8 -53t-8 -55l-17 -123l148 -160q226 -251 237 -264l92 -107q-351 -274 -620 -475q1 -17 2 -55.5t2 -58.5q0 -6 12 -267q1 -20 2 -58.5t2 -55.5l514 383q183 136 508 393l-30 160q-1 5 -4.5 23t-4.5 28t-4 27t-4 22q-500 575 -733 823z" />
    <glyph glyph-name="onequarter" unicode="&#xbc;" horiz-adv-x="3643" 
d="M2556 2294q-115 -165 -561 -821q-632 -943 -1026 -1483l-88 -8l-64 -7q-13 -1 -40.5 -4t-41.5 -4q-15 -1 -42 -4t-40 -4q-5 -1 -63 -8q224 307 547 774q154 223 272 397q83 123 162 240q-220 20 -422 20q-255 0 -553 -30l4 71q8 51 14 78q10 62 11 76l37 37
q158 17 366 20q14 135 27 287l24 277q27 314 45 563l-65 -11q-38 -6 -180 -24q-144 -17 -183 -19v33v39q0 27 2 39v31q0 40 2 71v62q224 8 476 45h129h38q33 0 95 4h39q-81 -685 -131 -1397q203 -3 393 -24q586 868 1001 1439l27 17q64 6 84 8q27 2 100 10q19 1 101 11
q70 9 81 10q-183 -247 -577 -811zM3140 598q18 -2 49 -2q-3 -25 -6 -70l-7 -73q0 -52 -8 -107h-57q-8 1 -26 2t-25 2q-29 0 -43 2q-58 4 -99 4q-8 -153 -8 -362q-11 1 -36 2t-38 2q-57 0 -88 2q-122 4 -163 4q1 11 4 59.5t4 79.5t4 80t4 60l6 77h-119q-294 0 -667 -18
q5 46 8 64l18 145q1 13 4 34t4 27q394 510 822 1010l30 14q195 4 347 13q-67 -400 -119 -1045h20q6 -2 21 -2q12 0 48.5 -1t57.5 -1q18 -2 58 -2zM2490 606h133q31 400 66 713q-25 -29 -207 -254l-207 -256l-166 -205q54 0 89 2h102h104h86z" />
    <glyph glyph-name="onehalf" unicode="&#xbd;" horiz-adv-x="4300" 
d="M3133 3105q-183 -247 -577 -811q-115 -165 -561 -821q-632 -943 -1026 -1483l-88 -8l-64 -7q-13 -1 -40.5 -4t-41.5 -4q-15 -1 -42 -4t-40 -4q-5 -1 -63 -8q224 307 547 774q154 223 272 397q83 123 162 240q-220 20 -422 20q-255 0 -553 -30l4 71q8 51 14 78
q10 62 11 76l37 37q158 17 366 20q14 135 27 287l24 277q27 314 45 563l-65 -11q-38 -6 -180 -24q-144 -17 -183 -19v33v39q0 27 2 39v31q0 40 2 71v62q224 8 476 45h129h38q33 0 95 4h39q-81 -685 -131 -1397q203 -3 393 -24q586 868 1001 1439l27 17q64 6 84 8
q27 2 100 10q19 1 101 11q70 9 81 10zM3103 387l-135 -108q33 2 98 2h98q264 0 580 -27v-61q0 -54 4 -152v-59q-311 38 -608 38q-286 0 -637 -38q1 3 10 51q2 20 10 59q7 38 10 60q1 10 4.5 27t4.5 22q0 12 2 22q2 8 2 17l82 69q70 67 133 115q60 56 96 88q32 26 98 84
q176 147 297 276q155 162 223 318q3 9 3 16v15q0 97 -93 163q-82 58 -194 58q-207 0 -531 -123q0 21 2 35q0 29 2 45q0 31 2 45v35q0 9 7 131q326 84 546 84q234 0 394 -78q198 -102 198 -324q0 -35 -4 -67q-60 -207 -243 -416q-51 -57 -118.5 -121.5t-110.5 -101.5
t-128 -109z" />
    <glyph glyph-name="threequarters" unicode="&#xbe;" horiz-adv-x="3577" 
d="M2490 2294q-115 -165 -561 -821q-632 -943 -1026 -1483l-88 -8l-63 -7q-13 -1 -40.5 -4t-41.5 -4q-15 -1 -42 -4t-40 -4l-64 -8q224 307 547 774q154 223 272 397q41 62 121 180.5t119 176.5q-129 -76 -270 -101q-122 -22 -285 -26q-235 0 -518 55q15 79 27 162l14 123
q120 -54 232.5 -70t256.5 -16q174 0 283 65q139 80 139 238q0 112 -102 174q-91 55 -217 55h-21q-14 0 -20 -2h-191l4 84l7 84q3 43 6 82h162h16q6 -2 18 -2h33q134 0 225 59q109 67 109 191q0 92 -107 139q-81 33 -206 33q-161 0 -476 -62v29q0 16 3 37v37v26q2 14 2 39v39
v62q338 47 528 47q237 0 387 -68q203 -92 203 -303q0 -141 -88 -256q-81 -110 -215 -162q117 -41 192 -143q76 -107 76 -230q0 -69 -12 -133q527 775 897 1284l26 17q64 6 84 8q29 2 101 10q18 1 100 11q68 9 82 10q-201 -271 -578 -811zM3074 598q18 -2 49 -2
q-3 -25 -6 -70l-6 -73q0 -52 -8 -107h-58q-8 1 -26 2t-25 2q-29 0 -43 2q-58 4 -98 4q-8 -153 -8 -362q-11 1 -36 2t-38 2q-57 0 -88 2q-122 4 -164 4q1 11 4 59.5t4 79.5t4 80t4 60l7 77h-119q-295 0 -668 -18q5 46 8 64l19 145q1 13 4 34t4 27q403 522 821 1010l31 14
q194 4 346 13q-67 -400 -119 -1045h21q6 -2 20 -2q12 0 49 -1t58 -1q18 -2 57 -2zM2425 606h133q33 427 65 713q-7 -8 -206 -254l-207 -256l-166 -205q53 0 88 2h102h105h86z" />
    <glyph glyph-name="questiondown" unicode="&#xbf;" horiz-adv-x="2260" 
d="M1470 2486l29 252q5 45 15 129t14 123q-79 -8 -221 -8q-41 -2 -121 -2q-39 -2 -105 -2q-8 -76 -10 -125l-12 -141q-5 -57 -13 -160.5t-8 -106.5q275 0 396 6zM1004 1952l-7 -51q-12 -139 -36 -199q-16 -38 -46 -78.5t-55 -66.5t-67 -66l-27 -23v2l-84 -79
q-5 -4 -39.5 -37t-41.5 -40t-37 -36t-40.5 -40t-35.5 -36.5t-38 -40.5t-32 -37.5t-34.5 -42.5t-29.5 -41q-145 -209 -145 -454q0 -304 244 -451q195 -117 508 -117q418 0 792 177q1 19 2 62t2 65l6 145q9 221 13 270q-218 -122 -363 -174q-203 -71 -354 -71q-165 0 -275 69
q-131 82 -131 238q0 112 74 227q54 85 166 182q71 63 107.5 96.5t94 89.5t100 107t77.5 105q55 100 74 278l26 324h-78q-31 -2 -92 -2h-96h-80z" />
    <glyph glyph-name="Agrave" unicode="&#xc0;" horiz-adv-x="3420" 
d="M1225 3396l-144 176q-51 60 -61 71q72 -9 205 -12q19 -1 56 -2t56 -2q35 -2 93 -2l30 -16q47 -63 129 -195q72 -113 97 -149q60 -85 151 -195q-159 7 -180 8q-17 1 -51 2t-50 2q-33 2 -79 2q-22 25 -97 117l-94 117q-60 77 -61 78zM2476 1114q196 -618 399 -1100
q-145 13 -309 25q-64 5 -174 11.5t-139 8.5q-60 244 -105 478q-211 6 -626 6q-412 0 -633 -6q-32 -80 -107 -242q-78 -159 -114 -238q-15 -1 -63 -4t-77 -4l-157 -12q-111 -8 -160 -10l-141 -13q189 323 386 706.5t325.5 654.5t320.5 689q334 720 430 916h403
q59 -197 226 -791q198 -708 315 -1075zM1829 1038h219q-62 251 -100 420q-71 301 -101 420q-16 65 -42.5 185t-32.5 145l-80 329l-246 -608q-232 -562 -371 -891q82 2 242 2h239h138q45 -2 135 -2z" />
    <glyph glyph-name="Aacute" unicode="&#xc1;" horiz-adv-x="3420" 
d="M1686 3078q-12 -1 -36 -2t-36 -2q-53 -2 -127 -8q91 94 184 201q88 103 137 165v-2q6 8 63.5 77.5t86.5 103.5l29 14q57 0 96 2q19 1 58 2t59 2q141 4 213 12q-124 -113 -209 -198q-59 -59 -72 -74q-70 -76 -166 -178q-11 -11 -49.5 -50.5t-58.5 -58.5q-70 -4 -117 -4
q-32 0 -55 -2zM2476 1114q196 -618 399 -1100q-145 13 -309 25q-64 5 -174 11.5t-139 8.5q-60 244 -105 478q-211 6 -626 6q-412 0 -633 -6q-32 -80 -107 -242q-78 -159 -114 -238q-15 -1 -63 -4t-77 -4l-157 -12q-111 -8 -160 -10l-141 -13q189 323 386 706.5t325.5 654.5
t320.5 689q334 720 430 916h403q59 -197 226 -791q198 -708 315 -1075zM1829 1038h219q-62 251 -100 420q-71 301 -101 420q-16 65 -42.5 185t-32.5 145l-80 329l-246 -608q-232 -562 -371 -891q82 2 242 2h239h138q45 -2 135 -2z" />
    <glyph glyph-name="Acircumflex" unicode="&#xc2;" horiz-adv-x="3420" 
d="M1165 3117q-20 -2 -55 -2h-37q148 128 252 242q62 68 174 202h-2l90 111h393l62 -98v2q78 -131 143 -215q91 -126 217 -244h-35q-35 0 -53 2h-53h-35q-98 4 -166 4q-99 91 -245 275v2q-6 7 -25 26q-8 8 -23 29l-32 -33l-47.5 -47.5l-52.5 -52.5t-48 -47t-56 -53
t-53 -47.5t-61 -51.5q-64 0 -162 -4h-34h-56zM2476 1114q196 -618 399 -1100q-145 13 -309 25q-64 5 -174 11.5t-139 8.5q-60 244 -105 478q-211 6 -626 6q-412 0 -633 -6q-32 -80 -107 -242q-78 -159 -114 -238q-15 -1 -63 -4t-77 -4l-157 -12q-111 -8 -160 -10l-141 -13
q189 323 386 706.5t325.5 654.5t320.5 689q334 720 430 916h403q59 -197 226 -791q198 -708 315 -1075zM1829 1038h219q-62 251 -100 420q-71 301 -101 420q-16 65 -42.5 185t-32.5 145l-80 329l-246 -608q-232 -562 -371 -891q82 2 242 2h239h138q45 -2 135 -2z" />
    <glyph glyph-name="Atilde" unicode="&#xc3;" horiz-adv-x="3420" 
d="M1366 3140h-43q-16 -2 -45 -2h-35l53 131q5 11 41 90q16 41 45 88q49 76 125 115.5t156 39.5h33q64 0 129 -19t108 -41.5t111 -63.5l-2 2q20 -15 24 -19q67 -43 138 -43q-4 4 16 19q52 35 111 69q12 6 47 27l-23 71q128 5 154 5h28q25 0 39 2h37h29l-49 -109
q-82 -173 -137 -240q-99 -118 -238 -118q-62 0 -118.5 12.5t-91.5 27t-95 44.5h-2l-66 41q-38 25 -53.5 34t-45.5 21t-56 12q-55 0 -101 -63q-40 -55 -57 -125l-74 12q0 -13 -16 -16q-46 -4 -76 -4zM2476 1114q196 -618 399 -1100q-145 13 -309 25q-64 5 -174 11.5t-139 8.5
q-60 244 -105 478q-211 6 -626 6q-412 0 -633 -6q-32 -80 -107 -242q-78 -159 -114 -238q-15 -1 -63 -4t-77 -4l-157 -12q-111 -8 -160 -10l-141 -13q189 323 386 706.5t325.5 654.5t320.5 689q334 720 430 916h403q59 -197 226 -791q198 -708 315 -1075zM1829 1038h219
q-62 251 -100 420q-71 301 -101 420q-16 65 -42.5 185t-32.5 145l-80 329l-246 -608q-232 -562 -371 -891q82 2 242 2h239h138q45 -2 135 -2z" />
    <glyph glyph-name="Adieresis" unicode="&#xc4;" horiz-adv-x="3420" 
d="M1126 3897l-39 -51q19 -71 19 -139q0 -130 -86 -287q18 1 57.5 2t59.5 2q88 0 135 2q180 4 248 4q36 171 36 342q0 67 -4 117q-34 1 -105 2t-108 2q-81 0 -213 4zM1958 3889l-35 -31q-39 -156 -39 -297q0 -70 8 -129q198 -6 234 -6l254 -4q-45 116 -45 191q0 110 88 284
l-266 -4q-67 0 -199 -4zM1935 2980h-403q-96 -196 -430 -916q-192 -418 -320.5 -689t-325.5 -654.5t-386 -706.5l141 13q49 2 160 10l157 12q29 1 77 4t63 4q36 79 114 238q75 162 107 242q221 6 633 6q415 0 626 -6q45 -234 105 -478q29 -2 139 -8.5t174 -11.5
q164 -12 309 -25q-203 482 -399 1100q-117 367 -315 1075q-167 594 -226 791zM1847 1878q30 -119 101 -420q38 -169 100 -420h-219q-90 0 -135 2h-138h-239q-160 0 -242 -2q231 547 371 891l246 608l80 -329q6 -25 32.5 -145t42.5 -185z" />
    <glyph glyph-name="Aring" unicode="&#xc5;" horiz-adv-x="3418" 
d="M1257 2470q-310 -683 -575 -1237q-334 -701 -614 -1223l110 15q42 4 130 12t130 12q25 1 64 4t47 4q145 290 362 758q410 10 707 10q367 0 553 -6q113 -403 237 -760q19 -1 109 -10l125 -12q128 -12 231 -25q-191 495 -379 1110q-131 426 -307 1069l-164 582
q131 93 206 231t75 291q0 204 -143 344q-68 65 -159 101.5t-190 36.5q-257 0 -432 -164q-182 -171 -182 -422q0 -122 53.5 -231t147.5 -183l-70 -154q-14 -29 -37.5 -80t-34.5 -73zM2023 3232v-2q-12 -114 -98 -193q-87 -84 -194 -84q-106 0 -181 72t-75 176q0 125 92 211
q87 84 211 84q104 0 176 -66q71 -68 71 -170v-12q0 -10 -2 -16zM1692 2523l131 -485q19 -71 57 -212t57 -212l117 -428q-80 0 -115 2h-108h-107h-118h-258q-85 0 -261 -4q152 329 238 524l117 256q23 50 65 145.5t54 122.5z" />
    <glyph glyph-name="AE" unicode="&#xc6;" horiz-adv-x="4392" 
d="M4059 2988l-41 49q-845 -57 -1814 -57h-299q-109 0 -301 4l-236 -502q-363 -788 -588 -1225q-356 -694 -710 -1243l192 13q252 15 428 22q39 1 104 4t87 4q28 195 55 402l12 110q549 13 979 13q-2 -14 -2 -37l-6 -56q-1 -5 -2 -17.5t-2 -18.5q-32 -358 -33 -377
q481 0 985 -15q419 -12 981 -45q-18 178 -24 281q-15 181 -17 281q-722 35 -1448 38l19 242l20 254q770 0 1331 -10q3 89 15 215q1 5 2 18t2 19q0 29 2 45q4 62 4 82h-1325q9 114 53 565q25 295 60 565q814 10 1441 45q62 279 76 332zM1686 2161l202 473q39 -2 111 -2h106
q-97 -1125 -147 -1686q-279 0 -410 -2l-407 -6q41 86 81.5 171.5t84 182.5t74 164.5t80 181.5t72 166t79 183.5t74.5 173.5z" />
    <glyph glyph-name="Ccedilla" unicode="&#xc7;" horiz-adv-x="3131" 
d="M2812 2781l49 -4q-8 -43 -18 -106q-3 -18 -10.5 -58.5t-10.5 -62.5q-23 -132 -35 -230q-169 171 -380.5 261t-430.5 90q-233 0 -420 -56q-231 -68 -376 -217h2q-191 -202 -271 -493q-69 -244 -69 -529q0 -175 39 -299q48 -153 147 -241l-2 2q135 -111 354 -156
q167 -35 396 -35q222 0 446 94q235 99 436 279q-2 -29 -12 -338q-8 -242 -8 -336v-86q-389 -242 -914 -242q-24 0 -151 5q37 -95 37 -189q0 -99 -41 -182q-48 -97 -131 -141q-139 -62 -355 -62q-160 0 -342 37q19 76 37 211l15 96q127 -67 272 -67h29q6 -2 20 -2
q77 0 137 47q62 49 62 123q0 78 -47 174q-43 10 -125 34q-297 94 -486 306q-137 173 -200 413q-56 205 -56 471q0 366 97 699q120 408 350 649q220 211 545 311q268 82 604 82q526 0 854 -231z" />
    <glyph glyph-name="Egrave" unicode="&#xc8;" horiz-adv-x="3137" 
d="M1280 3609l-31 16q-57 0 -92 2q-19 1 -56.5 2t-56.5 2q-131 3 -204 12q10 -11 61 -71l143 -176q13 -18 35.5 -45.5t26.5 -32.5l94 -117q87 -106 96 -117q47 0 80 -2q16 -1 50 -2t51 -2q21 -1 180 -8q-98 118 -152 195q-16 23 -96 149q-82 132 -129 195zM938 3039l-47 -39
q-12 -1499 -264 -2986q560 62 999 62q456 0 967 -62v158q0 115 2 174q4 236 10 330q-477 39 -932 39q-226 0 -516 -10q3 34 10.5 97t10.5 89l20 180q20 195 33 367h629q227 0 352 2h352q0 28 2 51t2 51q11 151 33 275q-609 -13 -883 -13q-142 0 -454 4q4 55 13 196t15 214
q17 222 25 405q266 -14 541 -14q452 0 903 47q9 67 32 215l29 170q-529 -63 -979 -63q-460 0 -905 61z" />
    <glyph glyph-name="Eacute" unicode="&#xc9;" horiz-adv-x="2951" 
d="M1868 4758l-29 -13q-135 -154 -278 -332q-119 -143 -222 -262q-181 -203 -231 -256l92 6q14 1 51.5 3.5t59.5 3.5q114 6 202 6q149 142 371 383l111 116q21 22 63.5 66t63.5 66q149 149 245 237q-67 -6 -249 -14l-136 -6q-86 -4 -114 -4zM752 3039l-47 -39
q-12 -1492 -265 -2986q560 62 1000 62q455 0 966 -62v158q0 115 2 174q4 213 11 330q-477 39 -932 39q-226 0 -516 -10q3 35 10.5 98.5t9.5 87.5l21 180q15 152 32 367h629q227 0 352 2h353q0 28 2 51t2 51q11 151 33 275q-609 -13 -883 -13q-143 0 -455 4q3 49 9 132.5
t11 151.5t9 126q15 194 24 405q266 -14 541 -14q452 0 903 47q5 35 33 215l29 170q-529 -63 -979 -63q-460 0 -905 61z" />
    <glyph glyph-name="Ecircumflex" unicode="&#xca;" horiz-adv-x="2951" 
d="M1225 3518h2q-112 -134 -174 -202q-104 -114 -252 -242h37q35 0 55 2h55h35q98 4 162 4q35 29 68 57.5t71 65t57 55t65 65t56 56.5l33 33q15 -21 23 -29q12 -12 24 -26v-2q143 -180 246 -275q68 0 166 -4h35h53q18 -2 53 -2h35q-126 118 -217 244q-69 90 -144 215v-2
l-61 98h-393zM752 3039l-47 -39q-12 -1492 -265 -2986q560 62 1000 62q455 0 966 -62v158q0 115 2 174q4 213 11 330q-477 39 -932 39q-226 0 -516 -10q3 35 10.5 98.5t9.5 87.5l21 180q15 152 32 367h629q227 0 352 2h353q0 28 2 51t2 51q11 151 33 275q-609 -13 -883 -13
q-143 0 -455 4q3 49 9 132.5t11 151.5t9 126q15 194 24 405q266 -14 541 -14q452 0 903 47q5 35 33 215l29 170q-529 -63 -979 -63q-460 0 -905 61z" />
    <glyph glyph-name="Edieresis" unicode="&#xcb;" horiz-adv-x="2951" 
d="M1864 3572l-37 -29q-35 -134 -35 -274q0 -71 4 -125h80q33 -2 80 -2h69q27 -2 80 -2q27 -2 78 -2q40 -3 70 -3q-41 118 -41 181q0 99 82 266q-31 -2 -101 -2q-19 -1 -56.5 -2t-57.5 -2q-152 -4 -215 -4zM1096 3580l-41 -51q20 -61 20 -129q0 -118 -78 -265q31 0 72 3
q53 0 82 2q55 0 82 2h67q45 0 78 2h76q39 179 39 323v15q-2 4 -2 16v74q-31 1 -97 2t-100 2q-76 0 -198 4zM752 3039l-47 -39q-12 -1492 -265 -2986q560 62 1000 62q455 0 966 -62v158q0 115 2 174q4 213 11 330q-477 39 -932 39q-226 0 -516 -10q3 35 10.5 98.5t9.5 87.5
l21 180q15 152 32 367h629q227 0 352 2h353q0 28 2 51t2 51q11 151 33 275q-609 -13 -883 -13q-143 0 -455 4q3 49 9 132.5t11 151.5t9 126q15 194 24 405q266 -14 541 -14q452 0 903 47q5 35 33 215l29 170q-529 -63 -979 -63q-460 0 -905 61z" />
    <glyph glyph-name="Igrave" unicode="&#xcc;" horiz-adv-x="2265" 
d="M1280 3609l-31 16q-57 0 -92 2q-19 1 -56.5 2t-56.5 2q-131 3 -204 12q10 -11 61 -71l143 -176q13 -18 35.5 -45.5t26.5 -32.5l94 -117q87 -106 96 -117q47 0 80 -2q16 -1 50 -2t51 -2q21 -1 180 -8q-98 118 -152 195q-16 23 -96 149q-82 132 -129 195zM1565 3004
l-54 -32q-152 -1610 -325 -2982q177 86 278 86q106 0 250 -84q47 840 101 1528q62 820 124 1525q-145 -65 -233 -65q-60 0 -141 24z" />
    <glyph glyph-name="Iacute" unicode="&#xcd;" horiz-adv-x="1925" 
d="M1262 3830l-29 -15q-15 -17 -150 -180v2q-57 -73 -137 -166q-85 -98 -184 -200q74 6 127 8q12 1 36 2t36 2q23 2 55 2q47 0 117 4q20 19 58.5 58.5t49.5 50.5q96 102 166 178q13 15 72 74q85 85 209 198q-72 -8 -213 -12q-20 -1 -59 -2t-58 -2q-39 -2 -96 -2zM1225 3004
l-54 -32q-152 -1610 -325 -2982q177 86 278 86q106 0 250 -84q47 840 101 1528q62 820 124 1525q-145 -65 -233 -65q-60 0 -141 24z" />
    <glyph glyph-name="Icircumflex" unicode="&#xce;" horiz-adv-x="2201" 
d="M1143 3518h2q-112 -134 -174 -202q-104 -114 -252 -242h37q35 0 55 2h55h35q98 4 162 4q35 29 68 57.5t71 65t57 55t65 65t56 56.5l33 33q15 -21 23 -29q12 -12 24 -26v-2q143 -180 246 -275q68 0 166 -4h35h53q18 -2 53 -2h35q-126 118 -217 244q-65 84 -143 215v-2
l-62 98h-393zM1501 3004l-53 -32q-149 -1579 -326 -2982q177 86 279 86q106 0 250 -84q49 884 100 1528q56 747 125 1525q-145 -65 -234 -65q-60 0 -141 24z" />
    <glyph glyph-name="Idieresis" unicode="&#xcf;" horiz-adv-x="1894" 
d="M1624 3572l-37 -29q-35 -134 -35 -274q0 -71 4 -125h80q33 -2 80 -2h70q27 -2 80 -2q27 -2 78 -2q40 -3 69 -3q-41 118 -41 181q0 99 82 266q-31 -2 -100 -2q-19 -1 -57 -2t-58 -2q-152 -4 -215 -4zM856 3580l-41 -51q21 -65 21 -129q0 -118 -78 -265q30 0 71 3
q53 0 82 2q55 0 82 2h68q45 0 78 2h75q39 179 39 323v15q-2 4 -2 16v74q-31 1 -96.5 2t-99.5 2q-77 0 -199 4zM1139 3004l-54 -32q-152 -1610 -325 -2982q177 86 278 86q106 0 250 -84q47 840 101 1528q62 820 124 1525q-145 -65 -233 -65q-60 0 -141 24z" />
    <glyph glyph-name="Eth" unicode="&#xd0;" horiz-adv-x="3432" 
d="M3144 2265q51 -184 51 -446t-31 -473q-43 -294 -133 -508q-112 -271 -301 -432q-248 -196 -614 -271q-240 -49 -656 -61q-236 0 -432 -8q-236 -9 -434 -21q118 639 190 1370h-368q1 10 2 37.5t2 40.5l6 76q0 27 2 41q1 7 2 23t2 24q0 33 2 47t2 39h82q132 -4 187 -4
q31 -2 104 -2q47 559 47 1231l41 38q184 -11 711 -24h51q18 -2 49 -2q139 -4 221.5 -8t205.5 -16.5t222 -33.5q360 -76 576 -276q142 -146 211 -381zM2695 1206q58 234 58 551q0 185 -39 328q-46 165 -144 280q-150 144 -381 203q-178 45 -446 49l-453 4q-18 -340 -22 -442
q-12 -215 -33 -444h631l-27 -318h-315q-212 0 -316 -2q-16 -168 -22 -248q-26 -262 -53 -487q-4 -36 -16 -121t-17 -131l223 6q258 0 453 15q254 20 450 114q110 52 195 131h-2q189 173 276 512z" />
    <glyph glyph-name="Ntilde" unicode="&#xd1;" horiz-adv-x="3233" 
d="M1178 3140h-43q-16 -2 -45 -2h-35l53 131q5 11 41 90q16 41 45 88q49 76 125 115.5t156 39.5h32q64 0 129 -19t108 -41.5t111 -63.5l-2 2q24 -18 25 -19q67 -43 137 -43q-4 4 17 19q59 39 110 69q12 6 47 27l-22 71q128 5 153 5h29q25 0 39 2h37h29l-50 -109
q-82 -173 -137 -240q-99 -118 -237 -118q-62 0 -118.5 12.5t-92 27.5t-95.5 44h-2l-65 41q-37 24 -53.5 34t-46.5 21.5t-56 11.5q-54 0 -100 -63q-41 -57 -58 -125l-73 12q0 -13 -17 -16q-46 -4 -75 -4zM2953 3045q-268 -1458 -268 -2752q0 -117 4 -277q-171 19 -307 29
q-79 6 -307 21q-248 499 -629 1382q-80 189 -209 500q-118 281 -215 493q-9 -1154 -123 -2382l-60 -4t-71 -4q-92 -8 -145 -10q-55 -4 -281 -27q304 1422 346 2917l45 39q151 -19 381 -33q31 0 51 -2t52 -2q36 -71 71.5 -142.5t75 -154.5t67.5 -142t73 -157t66 -144t71 -158
t64 -144t69.5 -157t64.5 -145q15 -35 50.5 -113t52.5 -118q152 -340 188 -416q18 -40 55 -118t53 -113q90 1200 299 2295q44 3 97 9q33 2 112 10q39 2 113 10q76 9 94 10z" />
    <glyph glyph-name="Ograve" unicode="&#xd2;" 
d="M1546 3813l-30 17q-58 0 -93 2q-19 1 -56 2t-56 2q-133 3 -205 12q10 -11 61 -71l144 -177q14 -18 35.5 -45t25.5 -32l94 -117q75 -92 97 -117q46 0 79 -2q16 -1 50 -2t51 -2q21 -1 180 -8q-96 116 -151 194q-20 27 -97 150q-78 126 -129 194zM1862 3031q-298 0 -549 -86
q-285 -98 -477 -307h2q-243 -254 -349 -662q-81 -311 -81 -710q0 -243 53 -451q61 -240 184 -401q153 -201 414 -301q239 -93 516 -93q303 0 559 84q284 93 487 308q232 265 340 659q91 328 91 713q0 251 -50 450q-59 231 -186 402q-152 202 -424 305q-237 90 -530 90z
M1837 2673q191 0 355 -75.5t264 -219.5v2q153 -248 153 -654q0 -240 -47 -415q-73 -263 -240 -369q-266 -143 -659 -143q-184 0 -332 28q-178 33 -305 113q-97 58 -139 190q-35 101 -35 252q0 270 66 514q79 291 235 476q119 150 311 229q175 72 373 72z" />
    <glyph glyph-name="Oacute" unicode="&#xd3;" 
d="M1663 3830l-29 -15q-29 -34 -84.5 -101.5t-64.5 -78.5v2q-57 -73 -137 -166q-77 -89 -185 -200q74 6 127 8q12 1 36 2t36 2q23 2 55 2q47 0 117 4q20 19 58.5 58.5t49.5 50.5q96 102 166 178q13 15 72 74q85 85 209 198q-72 -8 -213 -12q-19 -1 -58 -2t-59 -2
q-39 -2 -96 -2zM1862 3031q-298 0 -549 -86q-285 -98 -477 -307h2q-243 -254 -349 -662q-81 -311 -81 -710q0 -243 53 -451q61 -240 184 -401q153 -201 414 -301q239 -93 516 -93q303 0 559 84q284 93 487 308q232 265 340 659q91 328 91 713q0 251 -50 450
q-59 231 -186 402q-152 202 -424 305q-237 90 -530 90zM1837 2673q191 0 355 -75.5t264 -219.5v2q153 -248 153 -654q0 -240 -47 -415q-73 -263 -240 -369q-266 -143 -659 -143q-184 0 -332 28q-178 33 -305 113q-97 58 -139 190q-35 101 -35 252q0 270 66 514
q79 291 235 476q119 150 311 229q175 72 373 72z" />
    <glyph glyph-name="Ocircumflex" unicode="&#xd4;" 
d="M1473 3518h2q-102 -122 -175 -202q-108 -118 -251 -242h36q36 0 56 2h55h35q98 4 162 4q35 29 68 57.5t71 65t57 55t65 65t56 56.5l33 33q17 -24 22 -29q19 -19 25 -26v-2q143 -180 246 -275q68 0 166 -4h34h54q18 -2 53 -2h35q-126 118 -217 244q-69 90 -144 215v-2
l-61 98h-393zM1862 3031q-298 0 -549 -86q-285 -98 -477 -307h2q-243 -254 -349 -662q-81 -311 -81 -710q0 -243 53 -451q61 -240 184 -401q153 -201 414 -301q239 -93 516 -93q303 0 559 84q284 93 487 308q232 265 340 659q91 328 91 713q0 251 -50 450q-59 231 -186 402
q-152 202 -424 305q-237 90 -530 90zM1837 2673q191 0 355 -75.5t264 -219.5v2q153 -248 153 -654q0 -240 -47 -415q-73 -263 -240 -369q-266 -143 -659 -143q-184 0 -332 28q-178 33 -305 113q-97 58 -139 190q-35 101 -35 252q0 270 66 514q79 291 235 476
q119 150 311 229q175 72 373 72z" />
    <glyph glyph-name="Otilde" unicode="&#xd5;" 
d="M1997 3228h2q60 -30 95 -44.5t91.5 -27t118.5 -12.5q139 0 238 118q55 67 137 240l49 109h-29h-37q-14 -2 -39 -2h-28q-27 0 -154 -5l23 -71q-35 -21 -47 -27q-59 -34 -111 -69q-20 -15 -16 -19q-71 0 -138 43q-4 4 -24 19l2 -2q-68 41 -111 63.5t-108 41.5t-129 19h-33
q-80 0 -156 -39.5t-125 -115.5q-29 -47 -45 -88q-35 -79 -41 -90l-53 -131h35q29 0 45 2h43q30 0 76 4q16 3 16 16l74 -12q17 70 57 125q46 63 101 63q26 0 56 -12t45.5 -21t53.5 -34zM1862 3031q-298 0 -549 -86q-285 -98 -477 -307h2q-243 -254 -349 -662
q-81 -311 -81 -710q0 -243 53 -451q61 -240 184 -401q153 -201 414 -301q239 -93 516 -93q303 0 559 84q284 93 487 308q232 265 340 659q91 328 91 713q0 251 -50 450q-59 231 -186 402q-152 202 -424 305q-237 90 -530 90zM1837 2673q191 0 355 -75.5t264 -219.5v2
q153 -248 153 -654q0 -240 -47 -415q-73 -263 -240 -369q-266 -143 -659 -143q-184 0 -332 28q-178 33 -305 113q-97 58 -139 190q-35 101 -35 252q0 270 66 514q79 291 235 476q119 150 311 229q175 72 373 72z" />
    <glyph glyph-name="Odieresis" unicode="&#xd6;" 
d="M2109 3572l-36 -29q-35 -134 -35 -274q0 -71 4 -125h80q33 -2 80 -2h69q27 -2 80 -2q27 -2 78 -2q41 -3 70 -3q-41 118 -41 181q0 99 82 266q-31 -2 -101 -2q-20 -1 -57.5 -2t-57.5 -2q-152 -4 -215 -4zM1341 3580l-41 -51q21 -64 21 -129q0 -118 -78 -265q31 0 72 3
q53 0 82 2q55 0 82 2h67q45 0 78 2h76q39 179 39 323v15q-2 4 -2 16v74q-31 1 -97 2t-100 2q-77 0 -199 4zM1862 3031q-298 0 -549 -86q-285 -98 -477 -307h2q-243 -254 -349 -662q-81 -311 -81 -710q0 -243 53 -451q61 -240 184 -401q153 -201 414 -301q239 -93 516 -93
q303 0 559 84q284 93 487 308q232 265 340 659q91 328 91 713q0 251 -50 450q-59 231 -186 402q-152 202 -424 305q-237 90 -530 90zM1837 2673q191 0 355 -75.5t264 -219.5v2q153 -248 153 -654q0 -240 -47 -415q-73 -263 -240 -369q-266 -143 -659 -143q-184 0 -332 28
q-178 33 -305 113q-97 58 -139 190q-35 101 -35 252q0 270 66 514q79 291 235 476q119 150 311 229q175 72 373 72z" />
    <glyph glyph-name="multiply" unicode="&#xd7;" horiz-adv-x="2916" 
d="M1829 1354l823 774q-23 26 -43 55q-10 11 -49 60q-68 76 -96 110h2l-109 129q-505 -445 -850 -770q-144 167 -221 248q-1 1 -227 244l-201 217l-115 -113l-118 -117q-22 -22 -119 -118q110 -130 418 -482l104 -116q52 -59 102 -117q-140 -131 -372 -346
q-180 -169 -424 -402l28 -32q5 -6 15.5 -18.5t15.5 -18.5q6 -8 19 -22.5t14 -16.5l27 -35q161 -194 174 -209q333 290 823 743q394 -437 698 -741q25 23 88 86q48 51 88 88q23 27 86 90q53 50 89 86q-376 412 -670 744z" />
    <glyph glyph-name="Oslash" unicode="&#xd8;" 
d="M3158 2851q-82 -82 -115 -117l-176 -184q185 -321 185 -797q0 -372 -95 -698q-112 -385 -340 -643q-193 -207 -481 -306q-254 -86 -555 -86q-230 0 -440.5 65.5t-372.5 197.5q-55 -55 -82 -84q-132 -141 -190 -201q-19 -20 -56 -58t-53 -55l-45 45q-10 9 -29 29t-24 25
l-56 55q-28 25 -43 43q56 64 220 233l174 183q-181 324 -181 782q0 378 89 702q114 409 342 654q190 201 477 303q254 90 549 90q242 0 442 -61q220 -68 381 -205q208 218 387 397l59 -53l58 -58q6 -9 26 -26q13 -13 60 -53q-17 -16 -55 -56t-60 -63zM797 1495
q0 -271 196 -537l602 646q258 278 795 850q-99 161 -223 217q-87 36 -197.5 56.5t-214.5 20.5q-190 0 -358 -73q-181 -80 -301 -224q-154 -191 -230 -458q-69 -234 -69 -498zM2615 1690q6 65 6 127q0 183 -79 381l-582 -629q-18 -19 -162 -174.5t-223 -241.5
q-250 -273 -393 -420q96 -61 190 -69q112 -7 295 -7q195 30 328 80q182 67 293 170v-2q128 131 211 346q50 131 112 387q0 17 2 27t2 25z" />
    <glyph glyph-name="Ugrave" unicode="&#xd9;" horiz-adv-x="3119" 
d="M1464 3813l-30 17q-58 0 -93 2q-19 1 -56 2t-56 2q-133 3 -205 12q10 -11 61 -71l144 -177q14 -18 35.5 -45t25.5 -32l94 -117q75 -92 97 -117q47 0 80 -2q16 -1 49.5 -2t50.5 -2q21 -1 180 -8q-96 116 -151 194q-20 27 -97 150q-78 126 -129 194zM702 2998v-141
q0 -772 -92 -1694q-14 -147 -14 -260q0 -190 41 -330q52 -181 158 -301q136 -144 372 -206q183 -48 441 -48q256 0 456 54q248 67 424 235q155 167 228 404q57 184 75 444q82 1075 242 1886l-156 -14q-153 -17 -294 -27q-38 -229 -56 -368q-57 -417 -92 -768
q-23 -215 -39 -373q-18 -203 -59 -346q-53 -186 -150 -314q-88 -99 -245 -147q-126 -39 -289 -39q-166 0 -283 35q-148 45 -219 147h2q-104 155 -104 441q0 93 10 213q71 859 84 1515q-160 10 -395 41z" />
    <glyph glyph-name="Uacute" unicode="&#xda;" horiz-adv-x="3119" 
d="M2300 4758l-29 -13q-135 -154 -278 -332q-139 -168 -221 -262q-164 -184 -232 -256l92 6q14 1 51.5 3.5t59.5 3.5q114 6 203 6q141 134 370 383l111 116q21 22 63.5 66t63.5 66q138 138 246 237q-66 -6 -250 -14l-135 -6q-86 -4 -115 -4zM702 2998v-141q0 -772 -92 -1694
q-14 -147 -14 -260q0 -190 41 -330q52 -181 158 -301q136 -144 372 -206q183 -48 441 -48q256 0 456 54q248 67 424 235q155 167 228 404q57 184 75 444q82 1075 242 1886l-156 -14q-153 -17 -294 -27q-38 -229 -56 -368q-57 -417 -92 -768q-23 -215 -39 -373
q-18 -203 -59 -346q-53 -186 -150 -314q-88 -99 -245 -147q-126 -39 -289 -39q-166 0 -283 35q-148 45 -219 147h2q-104 155 -104 441q0 93 10 213q71 859 84 1515q-160 10 -395 41z" />
    <glyph glyph-name="Ucircumflex" unicode="&#xdb;" horiz-adv-x="3119" 
d="M1391 3518h2q-112 -134 -174 -202q-104 -114 -252 -242h37q35 0 55 2h55h35q98 4 162 4q35 29 68 57.5t71 65t57 55t65 65t56 56.5l33 33q17 -24 22 -29q19 -19 25 -26v-2q143 -180 246 -275q68 0 166 -4h34h54q18 -2 53 -2h35q-126 118 -217 244q-69 90 -144 215v-2
l-61 98h-393zM702 2998v-141q0 -772 -92 -1694q-14 -147 -14 -260q0 -190 41 -330q52 -181 158 -301q136 -144 372 -206q183 -48 441 -48q256 0 456 54q248 67 424 235q155 167 228 404q57 184 75 444q82 1075 242 1886l-156 -14q-153 -17 -294 -27q-38 -229 -56 -368
q-57 -417 -92 -768q-23 -215 -39 -373q-18 -203 -59 -346q-53 -186 -150 -314q-88 -99 -245 -147q-126 -39 -289 -39q-166 0 -283 35q-148 45 -219 147h2q-104 155 -104 441q0 93 10 213q71 859 84 1515q-160 10 -395 41z" />
    <glyph glyph-name="Udieresis" unicode="&#xdc;" horiz-adv-x="3119" 
d="M2028 3572l-37 -29q-35 -134 -35 -274q0 -71 4 -125h80q33 -2 80 -2h69q27 -2 80 -2q27 -2 78 -2q40 -3 70 -3q-41 118 -41 181q0 99 82 266q-31 -2 -101 -2q-19 -1 -56.5 -2t-57.5 -2q-152 -4 -215 -4zM1260 3580l-41 -51q20 -61 20 -129q0 -118 -78 -265q31 0 72 3
q53 0 82 2q55 0 82 2h67q45 0 78 2h76q39 179 39 323v15q-2 4 -2 16v74q-31 1 -97 2t-100 2q-76 0 -198 4zM702 2998v-141q0 -772 -92 -1694q-14 -147 -14 -260q0 -190 41 -330q52 -181 158 -301q136 -144 372 -206q183 -48 441 -48q256 0 456 54q248 67 424 235
q155 167 228 404q57 184 75 444q82 1075 242 1886l-156 -14q-153 -17 -294 -27q-38 -229 -56 -368q-57 -417 -92 -768q-23 -215 -39 -373q-18 -203 -59 -346q-53 -186 -150 -314q-88 -99 -245 -147q-126 -39 -289 -39q-166 0 -283 35q-148 45 -219 147h2q-104 155 -104 441
q0 93 10 213q71 859 84 1515q-160 10 -395 41z" />
    <glyph glyph-name="Yacute" unicode="&#xdd;" horiz-adv-x="3162" 
d="M1999 3625l-29 -14q-28 -33 -81 -98t-68 -83v2q-39 -49 -138 -165q-93 -107 -184 -201q74 6 127 8q12 1 36 2t36 2q23 2 55 2q47 0 117 4q20 19 58.5 58.5t49.5 50.5q96 102 166 178q13 15 72 74q85 85 209 198q-72 -8 -213 -12q-19 -1 -58 -2t-59 -2q-39 -2 -96 -2z
M739 3039l-39 -57q138 -292 297 -667.5t235.5 -565.5t268.5 -676q-17 -203 -49 -500q-26 -241 -51 -499h45q33 0 51 2h51h43h144q110 0 254 -4q37 668 69 1001q81 143 88 154l90 153q228 395 498 842q279 462 526 823l-161 -14q-161 -15 -326 -25q-351 -508 -942 -1468
q-257 578 -332 737q-182 386 -354 725q-237 18 -406 39z" />
    <glyph glyph-name="Thorn" unicode="&#xde;" horiz-adv-x="2703" 
d="M2437 2046q53 -136 53 -311q0 -226 -61 -414q-78 -240 -229 -371q-154 -129 -373 -184q-163 -41 -389 -41q-240 0 -467 -8q-5 -55 -39 -332q-20 -143 -23 -170q-4 -28 -20 -158l-156 -12l-69 -6q-14 -1 -39 -4t-39 -4q-89 -10 -150 -19q254 1512 269 2988l45 39
q239 -35 395 -41q-1 -24 -4 -89t-4 -105l-5.5 -88t-5.5 -105q-1 -11 -2 -32t-2 -31q-2 -18 -2 -68q195 -10 465 -10q207 -4 342 -31q188 -38 314 -125q130 -103 196 -268zM2009 1432q37 105 37 247q0 230 -160 342q-125 88 -325 88q-287 0 -463 9l-19 -260
q-7 -101 -23.5 -288t-19.5 -224q-18 -190 -26 -265q152 4 229 4h225q249 0 387 117q110 91 158 230z" />
    <glyph glyph-name="germandbls" unicode="&#xdf;" horiz-adv-x="2785" 
d="M565 2277v2q-139 -1278 -360 -2265q65 6 141 15q56 7 158 14q60 4 162.5 11t134.5 9q94 1083 119 2194v-8q24 144 65 253.5t121 192.5v-2q131 123 383 123q205 0 330 -61q72 -62 119 -154.5t90 -222.5q-169 -34 -271 -72q-149 -59 -239 -160q-160 -193 -160 -477
q0 -133 67 -264q9 -20 21 -41.5t21.5 -37.5t25.5 -41t24 -37t27 -40t25 -37q74 -49 143 -106q133 -92 178 -141q86 -96 86 -203q0 -121 -145 -176q-97 -39 -260 -39q-265 0 -586 117l-31 -267q-14 -123 -24 -247q305 -83 555 -91q174 0 293 19q161 26 307 102
q152 83 225 258q60 145 60 330q0 222 -144 399q-31 37 -65 71t-84 74.5t-71.5 57t-84.5 64.5q-17 11 -31 24q-15 12 -30 21v-2q-106 73 -154 125q-78 85 -78 176q0 206 223 327q182 99 416 117q10 98 10 178q0 307 -168 523q-108 100 -270 151q-132 41 -313 41
q-208 0 -365 -35q-199 -44 -336 -157q-127 -105 -194 -277q-56 -144 -66 -328z" />
    <glyph glyph-name="agrave" unicode="&#xe0;" horiz-adv-x="2613" 
d="M1278 4178l-33 14q-59 0 -211 8q-171 9 -209 13q72 -118 154 -283q33 -68 104 -233q55 -118 60 -131q23 -53 59 -132h90q76 0 121 -2q22 -1 67 -2t68 -2l138 -6q68 -3 120 -6q-122 148 -192 252q-132 195 -240 369q-46 71 -96 141zM2380 2314q-7 -4 -41.5 -1.5t-38.5 1.5
t-17 -1.5t-29 -0.5t-31 0.5t-27 1.5h-11h-225q-7 -44 -12 -85.5t-12.5 -111t-16.5 -141.5q-91 146 -251 232t-343 86h-57q-173 0 -344 -80q-177 -83 -287 -225l2 2q-179 -213 -260 -525q-68 -264 -68 -551q0 -362 156 -602q95 -143 251.5 -219t340.5 -76h20q7 0 11 2h8h30
q183 0 365 84q174 80 301 232q12 -68 13.5 -120t-3 -83.5t-16.5 -75.5l129 -10q215 -16 313 -29q-54 258 -72 474.5t10 502t57 463t111 617.5q29 156 44 239zM1223 1999h49q144 0 250 -92t141 -250q33 -149 33 -318q0 -172 -27 -284q-39 -163 -149 -242l2 2
q-57 -37 -134.5 -58.5t-132 -26.5t-145.5 -9q-120 0 -205 18q-107 23 -172 88q-41 42 -62 74t-32 78q-5 19 -8.5 39t-5 43.5t-2.5 38.5t-1.5 44.5t-0.5 39.5q10 85 15.5 125.5t21.5 113t38 129.5q78 200 197 314q139 133 330 133z" />
    <glyph glyph-name="aacute" unicode="&#xe1;" horiz-adv-x="2613" 
d="M1823 4047l-29 -12q-135 -154 -278 -332q-119 -143 -222 -262q-181 -203 -231 -256l92 6q53 3 111 6q114 6 202 6q149 142 371 383l111 117q21 22 63.5 65.5t63.5 65.5q149 149 245 237q-67 -6 -249 -14l-136 -6q-86 -4 -114 -4zM2380 2314q-7 -4 -41.5 -1.5t-38.5 1.5
t-17 -1.5t-29 -0.5t-31 0.5t-27 1.5h-11h-225q-7 -44 -12 -85.5t-12.5 -111t-16.5 -141.5q-91 146 -251 232t-343 86h-57q-173 0 -344 -80q-177 -83 -287 -225l2 2q-179 -213 -260 -525q-68 -264 -68 -551q0 -362 156 -602q95 -143 251.5 -219t340.5 -76h20q7 0 11 2h8h30
q183 0 365 84q174 80 301 232q12 -68 13.5 -120t-3 -83.5t-16.5 -75.5l129 -10q215 -16 313 -29q-54 258 -72 474.5t10 502t57 463t111 617.5q29 156 44 239zM1223 1999h49q144 0 250 -92t141 -250q33 -149 33 -318q0 -172 -27 -284q-39 -163 -149 -242l2 2
q-57 -37 -134.5 -58.5t-132 -26.5t-145.5 -9q-120 0 -205 18q-107 23 -172 88q-41 42 -62 74t-32 78q-5 19 -8.5 39t-5 43.5t-2.5 38.5t-1.5 44.5t-0.5 39.5q10 85 15.5 125.5t21.5 113t38 129.5q78 200 197 314q139 133 330 133z" />
    <glyph glyph-name="acircumflex" unicode="&#xe2;" horiz-adv-x="2826" 
d="M1526 3312h-322q-49 -68 -84 -119l-86 -119q-114 -165 -176 -246q-109 -141 -252 -291l209 5l133 4q32 34 65.5 70.5t56.5 62.5t59 68.5t51 60t55.5 66.5t50.5 61h-2l55 69l35 -57q163 -257 277 -401l133 -4l203 -5q-130 166 -222 322q-75 128 -159 295zM2380 2314
q-7 -4 -41.5 -1.5t-38.5 1.5t-17 -1.5t-29 -0.5t-31 0.5t-27 1.5h-11h-225q-7 -44 -12 -85.5t-12.5 -111t-16.5 -141.5q-91 146 -251 232t-343 86h-57q-173 0 -344 -80q-177 -83 -287 -225l2 2q-179 -213 -260 -525q-68 -264 -68 -551q0 -362 156 -602q95 -143 251.5 -219
t340.5 -76h20q7 0 11 2h8h30q183 0 365 84q174 80 301 232q12 -68 13.5 -120t-3 -83.5t-16.5 -75.5l129 -10q215 -16 313 -29q-54 258 -72 474.5t10 502t57 463t111 617.5q29 156 44 239zM1223 1999h49q144 0 250 -92t141 -250q33 -149 33 -318q0 -172 -27 -284
q-39 -163 -149 -242l2 2q-57 -37 -134.5 -58.5t-132 -26.5t-145.5 -9q-120 0 -205 18q-107 23 -172 88q-41 42 -62 74t-32 78q-5 19 -8.5 39t-5 43.5t-2.5 38.5t-1.5 44.5t-0.5 39.5q10 85 15.5 125.5t21.5 113t38 129.5q78 200 197 314q139 133 330 133z" />
    <glyph glyph-name="atilde" unicode="&#xe3;" horiz-adv-x="2613" 
d="M1354 3570l94 -105q124 -127 303 -127q147 0 236 117q56 73 131 262v-2q9 25 47 111l24 59q4 9 23 47h-27h-39q-14 -2 -41 -2h-28h-82q-31 -2 -82 -2q-5 -13 -12 -30t-11 -27l-6 -15q-10 -24 -18 -47q-20 -51 -35 -81.5t-43.5 -62.5t-63.5 -40q-47 7 -104 68l-100 106
q-127 127 -301 127q-88 0 -168 -56t-127 -153q-34 -70 -66 -160q-6 -14 -4 -14q4 0 6 2q2 0 2 -4q-1 -1 -2 -4t-3.5 -9t-4.5 -12q-3 -7 -31 -65l-61 -121h35h49q33 0 49 2h39q22 0 127 6q29 65 45 113v-2q26 77 55 117q40 61 84 71q52 -8 111 -67zM2380 2314
q-7 -4 -41.5 -1.5t-38.5 1.5t-17 -1.5t-29 -0.5t-31 0.5t-27 1.5h-11h-225q-7 -44 -12 -85.5t-12.5 -111t-16.5 -141.5q-91 146 -251 232t-343 86h-57q-173 0 -344 -80q-177 -83 -287 -225l2 2q-179 -213 -260 -525q-68 -264 -68 -551q0 -362 156 -602q95 -143 251.5 -219
t340.5 -76h20q7 0 11 2h8h30q183 0 365 84q174 80 301 232q12 -68 13.5 -120t-3 -83.5t-16.5 -75.5l129 -10q215 -16 313 -29q-54 258 -72 474.5t10 502t57 463t111 617.5q29 156 44 239zM1223 1999h49q144 0 250 -92t141 -250q33 -149 33 -318q0 -172 -27 -284
q-39 -163 -149 -242l2 2q-57 -37 -134.5 -58.5t-132 -26.5t-145.5 -9q-120 0 -205 18q-107 23 -172 88q-41 42 -62 74t-32 78q-5 19 -8.5 39t-5 43.5t-2.5 38.5t-1.5 44.5t-0.5 39.5q10 85 15.5 125.5t21.5 113t38 129.5q78 200 197 314q139 133 330 133z" />
    <glyph glyph-name="adieresis" unicode="&#xe4;" horiz-adv-x="2613" 
d="M723 3187l-39 -52q18 -67 18 -139q0 -129 -86 -286q18 1 57.5 2t59.5 2q88 0 135 2q180 4 248 4q37 176 37 342q0 66 -4 116q-36 1 -108 2.5t-105 2.5q-81 0 -213 4zM1554 3178l-34 -30q-39 -156 -39 -297q0 -70 8 -129q198 -6 233 -6l254 -4q-45 116 -45 190
q0 111 88 285l-266 -4q-34 0 -199 -5zM2380 2314q-7 -4 -41.5 -1.5t-38.5 1.5t-17 -1.5t-29 -0.5t-31 0.5t-27 1.5h-11h-225q-7 -44 -12 -85.5t-12.5 -111t-16.5 -141.5q-91 146 -251 232t-343 86h-57q-173 0 -344 -80q-177 -83 -287 -225l2 2q-179 -213 -260 -525
q-68 -264 -68 -551q0 -362 156 -602q95 -143 251.5 -219t340.5 -76h20q7 0 11 2h8h30q183 0 365 84q174 80 301 232q12 -68 13.5 -120t-3 -83.5t-16.5 -75.5l129 -10q215 -16 313 -29q-54 258 -72 474.5t10 502t57 463t111 617.5q29 156 44 239zM1223 1999h49q144 0 250 -92
t141 -250q33 -149 33 -318q0 -172 -27 -284q-39 -163 -149 -242l2 2q-57 -37 -134.5 -58.5t-132 -26.5t-145.5 -9q-120 0 -205 18q-107 23 -172 88q-41 42 -62 74t-32 78q-5 19 -8.5 39t-5 43.5t-2.5 38.5t-1.5 44.5t-0.5 39.5q10 85 15.5 125.5t21.5 113t38 129.5
q78 200 197 314q139 133 330 133z" />
    <glyph glyph-name="aring" unicode="&#xe5;" horiz-adv-x="2613" 
d="M1851 3078q0 21 2 31v35q0 217 -139 350q-141 131 -344 131q-265 0 -430 -180q-77 -83 -118.5 -195t-41.5 -235q0 -218 135 -353q131 -131 349 -131q245 0 405 154q161 152 182 393zM1579 3095v-13q-22 -118 -96 -192q-82 -82 -195 -82q-104 0 -169.5 63t-65.5 168
q0 131 82 219t208 88q106 -5 172 -68.5t66 -166.5v-8q-2 -2 -2 -8zM2380 2314q-7 -4 -41.5 -1.5t-38.5 1.5t-17 -1.5t-29 -0.5t-31 0.5t-27 1.5h-11h-225q-7 -44 -12 -85.5t-12.5 -111t-16.5 -141.5q-91 146 -251 232t-343 86h-57q-173 0 -344 -80q-177 -83 -287 -225l2 2
q-179 -213 -260 -525q-68 -264 -68 -551q0 -362 156 -602q95 -143 251.5 -219t340.5 -76h20q7 0 11 2h8h30q183 0 365 84q174 80 301 232q12 -68 13.5 -120t-3 -83.5t-16.5 -75.5l129 -10q215 -16 313 -29q-54 258 -72 474.5t10 502t57 463t111 617.5q29 156 44 239z
M1223 1999h49q144 0 250 -92t141 -250q33 -149 33 -318q0 -172 -27 -284q-39 -163 -149 -242l2 2q-57 -37 -134.5 -58.5t-132 -26.5t-145.5 -9q-120 0 -205 18q-107 23 -172 88q-41 42 -62 74t-32 78q-5 19 -8.5 39t-5 43.5t-2.5 38.5t-1.5 44.5t-0.5 39.5q10 85 15.5 125.5
t21.5 113t38 129.5q78 200 197 314q139 133 330 133z" />
    <glyph glyph-name="ae" unicode="&#xe6;" horiz-adv-x="4112" 
d="M3580 2013l-2 2q149 -215 149 -518q0 -89 -14 -199l-6 -69q-3 -45 -6 -70q-1048 -4 -1567 -4q7 -114 51 -218.5t117 -184.5q95 -95 250 -146q128 -45 295 -45q356 0 743 207v-27v-39q-2 -14 -2 -38v-25v-61q0 -180 19 -379l-119 -43q-178 -69 -322 -111
q-172 -49 -338 -49q-312 0 -553 102q-277 117 -417 344q-170 -221 -412 -336q-240 -114 -512 -114q-164 0 -283 35q-149 41 -241 135q-117 134 -117 360q0 90 12 170v-2q47 249 92 369q76 203 215 319q147 106 353 150q155 31 374 31h127q61 -3 125 -3h213q0 7 2 9v8
q0 38 -11 76t-33.5 76.5t-42 65.5t-50.5 67l2 -3q-154 170 -454 170q-355 0 -680 -170q0 41 -2 68q-1 15 -2.5 43t-2.5 41q-1 14 -2 42t-2 42q-2 27 -2 66q380 133 715 133q265 0 465 -72q239 -87 358 -276q174 180 424 270q230 80 486 80q193 0 344 -64q175 -74 264 -215z
M2175 1466h119q523 0 1054 9q3 15 3 26v23q0 216 -109 364q-124 164 -315 164q-323 0 -523 -203q-175 -175 -229 -383zM1780 1243h-357q-10 0 -52.5 -1.5t-55.5 -2t-51.5 -2.5t-55 -3.5t-51.5 -4.5t-55 -7t-51.5 -9.5t-54.5 -12.5t-50.5 -15.5t-52.5 -19.5l2 2
q-95 -44 -150 -174q-47 -108 -47 -225q0 -115 111 -184q94 -64 227 -64q334 0 523 168q104 92 157 238q47 127 60 280z" />
    <glyph glyph-name="ccedilla" unicode="&#xe7;" horiz-adv-x="2486" 
d="M2089 2148l53 9q-6 -29 -20 -111q-2 -14 -10 -51.5t-11 -59.5v2l-16 -122q-291 147 -572 147q-165 0 -299 -49q-161 -58 -256 -172q-94 -105 -151 -287q-49 -149 -66 -317q0 -107 31 -205q33 -104 105 -162h-3q88 -59 199.5 -83.5t272.5 -37.5h-3l299 -6h25q127 0 303 84
q-1 -19 -4 -84.5t-4 -105.5q-4 -140 -4 -193q0 -89 4 -233q-273 -102 -569 -109q28 -79 28 -166q0 -99 -41 -182q-48 -97 -131 -141q-139 -62 -354 -62q-160 0 -342 37q19 76 37 211l14 96q127 -67 273 -67h28q6 -2 21 -2q77 0 137 47q61 48 61 123q0 58 -24 120
q-110 15 -211 45q-244 75 -379 244l2 -2q-103 122 -154 307q-41 149 -41 351q0 282 70 532q83 309 272 492q166 155 435 235q219 66 473 66q293 0 557 -99z" />
    <glyph glyph-name="egrave" unicode="&#xe8;" horiz-adv-x="2682" 
d="M1042 2816q-71 165 -104 233q-82 165 -154 283q19 -2 209 -12q152 -8 211 -8l33 -15q49 -71 96 -141q108 -174 240 -369q70 -104 192 -252l-120 7q-67 3 -138 6q-23 1 -68 2t-67 2q-45 2 -121 2h-90q-42 90 -59 131q-5 13 -60 131zM2284 1372l-66 27l68 -29
q-2 -14 -2 -37q-1 -5 -2.5 -17.5t-2.5 -17.5v2l-10 -81q-385 -7 -1018 -7q-94 0 -141 2h-143h-246v-10q-4 -78 -4 -104q0 -130 28 -228q33 -116 115 -176v2q212 -133 582 -133h37q207 0 329 17q183 23 355 104v-65q-4 -102 -4 -156v-68q0 -178 6 -254q-407 -137 -838 -137
q-243 18 -432 84q-236 79 -377 217q-107 124 -160 309q-47 161 -47 351q0 269 78 524q92 301 264 487q150 155 379 234q194 66 428 69q203 -11 348 -53q191 -56 303 -168q100 -110 144 -278q31 -126 31 -320v-20q-2 -8 -2 -25v-45zM981 1556h197q329 0 784 7
q-22 214 -158 350q-144 141 -358 141q-299 0 -475 -168q-160 -141 -187 -327q151 -4 197 -3z" />
    <glyph glyph-name="eacute" unicode="&#xe9;" horiz-adv-x="2682" 
d="M1360 3197l-111 -6q-52 -3 -92 -6q68 72 232 256q82 94 221 262q143 178 278 332l29 12q29 0 115 4l135 6q184 8 250 14q-108 -99 -246 -237l-127 -131q-62 -65 -111 -117q-229 -249 -370 -383q-89 0 -203 -6zM2111 2060q100 -110 144 -278q31 -126 31 -320v-20
q-2 -8 -2 -25v-45l-66 27l68 -29q-2 -14 -2 -37q-1 -5 -2.5 -17.5t-2.5 -17.5v2l-10 -81q-385 -7 -1018 -7q-94 0 -141 2h-143h-246v-10q-4 -78 -4 -104q0 -130 28 -228q33 -116 115 -176v2q212 -133 582 -133h37q207 0 329 17q183 23 355 104v-65q-4 -102 -4 -156v-68
q0 -178 6 -254q-407 -137 -838 -137q-243 18 -432 84q-236 79 -377 217q-107 124 -160 309q-47 161 -47 351q0 269 78 524q92 301 264 487q150 155 379 234q194 66 428 69q203 -11 348 -53q191 -56 303 -168zM981 1556h197q329 0 784 7q-22 214 -158 350q-144 141 -358 141
q-299 0 -475 -168q-160 -141 -187 -327q151 -4 197 -3z" />
    <glyph glyph-name="ecircumflex" unicode="&#xea;" horiz-adv-x="2682" 
d="M780 2339l-209 -4q143 150 252 291q69 89 176 245l86 119q35 51 84 119h322l80 -158q78 -156 160 -295q93 -157 221 -321l-203 4l-133 4q-114 143 -277 401l-34 58l-56 -70h2q-10 -12 -50.5 -61t-55.5 -66.5t-51 -60t-59 -68.5t-56.5 -62.5t-65.5 -70.5zM2284 1372
l-66 27l68 -29q-2 -14 -2 -37q-1 -5 -2.5 -17.5t-2.5 -17.5v2l-10 -81q-385 -7 -1018 -7q-94 0 -141 2h-143h-246v-10q-4 -78 -4 -104q0 -130 28 -228q33 -116 115 -176v2q212 -133 582 -133h37q207 0 329 17q183 23 355 104v-65q-4 -102 -4 -156v-68q0 -178 6 -254
q-407 -137 -838 -137q-243 18 -432 84q-236 79 -377 217q-107 124 -160 309q-47 161 -47 351q0 269 78 524q92 301 264 487q150 155 379 234q194 66 428 69q203 -11 348 -53q191 -56 303 -168q100 -110 144 -278q31 -126 31 -320v-20q-2 -8 -2 -25v-45zM981 1556h197
q329 0 784 7q-22 214 -158 350q-144 141 -358 141q-299 0 -475 -168q-160 -141 -187 -327q151 -4 197 -3z" />
    <glyph glyph-name="edieresis" unicode="&#xeb;" horiz-adv-x="2682" 
d="M899 2511q-20 -1 -59.5 -2t-57.5 -2q86 157 86 286q0 73 -18 140l39 51q132 -4 213 -4q37 -1 108 -2t105 -2q4 -50 4 -117q0 -166 -37 -342q-68 0 -248 -4q-47 -2 -135 -2zM2142 2509l-254 4q-35 0 -233 6q-8 59 -8 129q0 141 39 297l34 31q132 4 199 4l266 4
q-88 -174 -88 -285q0 -74 45 -190zM2284 1372l-66 27l68 -29q-2 -14 -2 -37q-1 -5 -2.5 -17.5t-2.5 -17.5v2l-10 -81q-385 -7 -1018 -7q-94 0 -141 2h-143h-246v-10q-4 -78 -4 -104q0 -130 28 -228q33 -116 115 -176v2q212 -133 582 -133h37q207 0 329 17q183 23 355 104
v-65q-4 -102 -4 -156v-68q0 -178 6 -254q-407 -137 -838 -137q-243 18 -432 84q-236 79 -377 217q-107 124 -160 309q-47 161 -47 351q0 269 78 524q92 301 264 487q150 155 379 234q194 66 428 69q203 -11 348 -53q191 -56 303 -168q100 -110 144 -278q31 -126 31 -320v-20
q-2 -8 -2 -25v-45zM981 1556h197q329 0 784 7q-22 214 -158 350q-144 141 -358 141q-299 0 -475 -168q-160 -141 -187 -327q151 -4 197 -3z" />
    <glyph glyph-name="igrave" unicode="&#xec;" horiz-adv-x="2410" 
d="M1227 3297l-33 15q-59 0 -211 8q-190 10 -209 12q72 -118 154 -283q33 -68 104 -233q55 -118 60 -131q17 -41 59 -131h90q76 0 121 -2q22 -1 67 -2t68 -2l137 -6q27 -1 73.5 -4t47.5 -3q-122 148 -192 252q-132 195 -240 369q-47 70 -96 141zM1714 2267l-61 -31
q-71 -1065 -201 -2246q139 71 219 71q77 0 189 -69q36 524 92 1157q56 635 112 1155q-137 -76 -219 -76q-75 0 -131 39z" />
    <glyph glyph-name="iacute" unicode="&#xed;" horiz-adv-x="1386" 
d="M1346 3652l-29 -13q-155 -176 -279 -331q-157 -189 -221 -263q-181 -203 -231 -256l92 7q61 4 110 6q114 6 203 6q149 142 371 383l111 117q21 22 63 65.5t63 65.5q138 138 246 237q-66 -6 -250 -14l-135 -6q-86 -4 -114 -4zM602 2267l-61 -31q-71 -1065 -201 -2246
q139 71 219 71q77 0 189 -69q36 524 92 1157q56 635 112 1155q-137 -76 -219 -76q-75 0 -131 39z" />
    <glyph glyph-name="icircumflex" unicode="&#xee;" horiz-adv-x="2250" 
d="M1526 3312h-322q-49 -68 -84 -119l-86 -119q-114 -165 -176 -246q-109 -141 -252 -291l209 5l133 4q32 34 65.5 70.5t56.5 62.5t59 68.5t51 60t55.5 66.5t50.5 61h-2l55 69l35 -57q163 -257 277 -401l133 -4l203 -5q-130 166 -222 322q-75 128 -159 295zM1554 2267
l-61 -31q-71 -1065 -201 -2246q139 71 219 71q77 0 189 -69q36 524 92 1157q51 584 113 1155q-137 -76 -219 -76q-76 0 -132 39z" />
    <glyph glyph-name="idieresis" unicode="&#xef;" horiz-adv-x="1996" 
d="M760 3127l-39 -51q18 -68 18 -139q0 -130 -86 -287q18 1 57.5 2t59.5 2q88 0 135 2q180 4 248 4q37 176 37 342q0 67 -4 117q-34 1 -105 2t-108 2q-81 0 -213 4zM1591 3119l-35 -31q-38 -152 -38 -297q0 -70 8 -129q198 -6 233 -6l254 -4q-45 116 -45 191q0 110 88 284
l-266 -4q-67 0 -199 -4zM1186 2267l-62 -31q-73 -1088 -200 -2246q139 71 219 71q76 0 188 -69q36 524 92 1157q51 584 113 1155q-137 -76 -219 -76q-75 0 -131 39z" />
    <glyph glyph-name="eth" unicode="&#xf0;" horiz-adv-x="2603" 
d="M1806 2433l-133 172q356 125 584 219l-45 225q-99 -39 -160 -61q-245 -89 -338 -121q-57 -19 -160 -55h2l-30 -10q-62 82 -111 131q-6 8 -26 32t-31 39t-31.5 39.5t-26.5 32.5q-67 0 -251 8q-205 9 -250 13q20 -27 78 -97q13 -15 42 -51.5t46 -56.5q70 -88 176 -215
l-107 -33q-238 -71 -432 -119l25 -96q30 -100 37 -137l153 43q22 6 142 40.5t182 53.5q138 43 151 47q46 -52 72 -88q38 -51 70 -88l88 -113q-34 3 -47 6q-63 5 -68 5q-28 0 -51 2q-193 0 -379 -74q-197 -79 -328 -221q-175 -189 -262 -475q-78 -256 -78 -515
q0 -388 180 -614q127 -144 324 -215q180 -66 393 -66q205 0 400 68q203 71 354 213q171 182 252 457q67 227 67 499q0 584 -350 1022zM1874 1278q0 -198 -45 -371q-57 -218 -156 -352q-79 -92 -193 -143.5t-233 -51.5q-304 -3 -428 191q-106 160 -106 403q0 206 47 377
q58 210 180 346q88 97 213 148t258 51q163 0 334 -59q73 -109 101 -242t28 -297zM1743 1817l-10 10l10 -8v-2z" />
    <glyph glyph-name="ntilde" unicode="&#xf1;" horiz-adv-x="2879" 
d="M1307 2666l94 -104q124 -127 303 -127q146 0 235 117q58 76 132 262v-2q7 19 47 110l24 60q4 9 23 47h-27h-39q-14 -2 -41 -2h-28h-82q-31 -2 -82 -2q-5 -13 -12 -30t-11 -27l-6 -15q-11 -25 -18 -47q-20 -51 -35 -81.5t-43.5 -62.5t-63.5 -40q-48 7 -104 67l-100 107
q-127 127 -302 127q-87 0 -167 -56t-127 -153q-34 -70 -66 -160q-6 -14 -4 -14q4 0 6 2q2 0 2 -4q-1 -1 -2 -4t-3.5 -9t-4.5 -12q-3 -7 -31 -65l-61 -121h35h49q33 0 49 2h39q22 0 127 6q29 65 45 113v-2q26 75 55 116q41 62 84 72q50 -7 111 -68zM2331 1372q4 98 4 150
q0 285 -92 489q-73 141 -230 211q-146 64 -315 64q-202 0 -384.5 -67.5t-369.5 -197.5v23q0 6 2 8q0 4 2 6v23l4 180l-92 6q-18 1 -53.5 4t-52.5 4q-127 10 -201 19q-15 -1182 -264 -2280l129 13q36 2 137 8.5t154 9.5q26 1 69.5 4t59.5 4q67 635 88 1250v-3q26 317 182 486
q84 91 231 137q114 33 263 33q96 0 165 -31q86 -42 127 -117v2q45 -103 45 -249q0 -77 -8 -140v2q-2 -6 -2 -20v-21q-112 -736 -155 -1329q83 -2 282 -14q267 -22 279 -23q-31 355 -31 641q0 310 27 715z" />
    <glyph glyph-name="ograve" unicode="&#xf2;" horiz-adv-x="2656" 
d="M1227 3297l-33 15q-59 0 -211 8q-190 10 -209 12q72 -118 154 -283q33 -68 104 -233q55 -118 60 -131q17 -41 59 -131h90q76 0 121 -2q22 -1 67 -2t68 -2l137 -6q27 -1 73.5 -4t47.5 -3q-122 148 -192 252q-132 195 -240 369q-47 70 -96 141zM1460 2281q-210 0 -405 -69
q-215 -76 -361 -219q-173 -195 -254 -518q-61 -244 -61 -543q0 -402 170 -635v2q103 -153 313 -229q175 -64 393 -64q214 0 412 66q217 72 358 225q176 207 254 520q64 256 64 545q0 391 -170 627q-114 158 -315 231q-169 61 -398 61zM1438 1980q128 -2 236.5 -53
t166.5 -147q101 -171 101 -441q0 -185 -27 -307q-48 -205 -168 -287h2q-162 -94 -434 -94q-131 0 -233.5 18.5t-186.5 73.5l2 -2q-63 50 -86 127t-23 183q0 219 41 374q53 215 162 353q79 100 197.5 151t249.5 51z" />
    <glyph glyph-name="oacute" unicode="&#xf3;" horiz-adv-x="2596" 
d="M1905 4047l-29 -12q-146 -166 -279 -332q-139 -168 -221 -262q-181 -203 -231 -256l92 6q53 3 111 6q114 6 202 6q149 142 371 383l111 117q21 22 63.5 65.5t63.5 65.5q149 149 245 237q-66 -6 -250 -14l-135 -6q-86 -4 -114 -4zM1401 2281q-211 0 -406 -69
q-214 -75 -360 -219q-173 -195 -254 -518q-62 -248 -62 -543q0 -402 170 -635v2q103 -153 314 -229q175 -64 393 -64q214 0 412 66q217 72 358 225q176 207 254 520q64 256 64 545q0 391 -170 627q-114 157 -316 231q-169 61 -397 61zM1378 1980q129 -2 237.5 -53
t166.5 -147q100 -170 100 -441q0 -185 -27 -307q-48 -206 -167 -287h2q-162 -94 -435 -94q-131 0 -233 18.5t-186 73.5l2 -2q-63 50 -86 127t-23 183q0 219 41 374q53 215 162 353q79 100 197 151t249 51z" />
    <glyph glyph-name="ocircumflex" unicode="&#xf4;" horiz-adv-x="2596" 
d="M1626 3312h-321q-49 -68 -84 -119l-86 -119q-106 -154 -177 -246q-114 -147 -251 -291l208 5l134 4q38 40 73.5 79t75 85t61 71t68 81.5t59.5 72.5h-2l56 69l35 -57q166 -264 276 -401l133 -4l203 -5q-126 161 -221 322q-82 139 -160 295zM1401 2281q-211 0 -406 -69
q-214 -75 -360 -219q-173 -195 -254 -518q-62 -248 -62 -543q0 -402 170 -635v2q103 -153 314 -229q175 -64 393 -64q214 0 412 66q217 72 358 225q176 207 254 520q64 256 64 545q0 391 -170 627q-114 157 -316 231q-169 61 -397 61zM1378 1980q129 -2 237.5 -53
t166.5 -147q100 -170 100 -441q0 -185 -27 -307q-48 -206 -167 -287h2q-162 -94 -435 -94q-131 0 -233 18.5t-186 73.5l2 -2q-63 50 -86 127t-23 183q0 219 41 374q53 215 162 353q79 100 197 151t249 51z" />
    <glyph glyph-name="otilde" unicode="&#xf5;" horiz-adv-x="2596" 
d="M1389 2666l94 -104q124 -127 303 -127q146 0 235 117q56 73 131 262v-2q2 4 48 110l24 60q4 9 23 47h-27h-39q-14 -2 -41 -2h-29h-81q-31 -2 -82 -2q-5 -13 -12 -30t-11 -27l-6 -15q-11 -25 -18 -47q-20 -51 -35 -81.5t-43.5 -62.5t-63.5 -40q-48 7 -104 67l-101 107
q-127 127 -301 127q-88 0 -168 -56t-127 -153q-31 -63 -65 -160q-6 -14 -4 -14q4 0 6 2q2 0 2 -4q-1 -1 -2 -4t-3.5 -9t-4.5 -12q-3 -7 -31 -65l-61 -121h34h50q33 0 49 2h39q22 0 127 6q29 65 45 113v-2q26 75 55 116q41 62 84 72q50 -7 111 -68zM1401 2281
q-211 0 -406 -69q-214 -75 -360 -219q-173 -195 -254 -518q-62 -248 -62 -543q0 -402 170 -635v2q103 -153 314 -229q175 -64 393 -64q214 0 412 66q217 72 358 225q176 207 254 520q64 256 64 545q0 391 -170 627q-114 157 -316 231q-169 61 -397 61zM1378 1980
q129 -2 237.5 -53t166.5 -147q100 -170 100 -441q0 -185 -27 -307q-48 -206 -167 -287h2q-162 -94 -435 -94q-131 0 -233 18.5t-186 73.5l2 -2q-63 50 -86 127t-23 183q0 219 41 374q53 215 162 353q79 100 197 151t249 51z" />
    <glyph glyph-name="odieresis" unicode="&#xf6;" horiz-adv-x="2596" 
d="M1024 2781l-39 -51q19 -71 19 -139q0 -130 -86 -287q18 1 57 2t59 2q88 0 135 2q180 4 248 4q37 176 37 342q0 67 -4 117q-34 1 -105 2t-108 2q-81 0 -213 4zM1855 2773l-34 -31q-39 -156 -39 -297q0 -70 8 -129q198 -6 233 -6l254 -4q-45 116 -45 191q0 110 88 284
l-266 -4q-67 0 -199 -4zM1401 2281q-211 0 -406 -69q-214 -75 -360 -219q-173 -195 -254 -518q-62 -248 -62 -543q0 -402 170 -635v2q103 -153 314 -229q175 -64 393 -64q214 0 412 66q217 72 358 225q176 207 254 520q64 256 64 545q0 391 -170 627q-114 157 -316 231
q-169 61 -397 61zM1378 1980q129 -2 237.5 -53t166.5 -147q100 -170 100 -441q0 -185 -27 -307q-48 -206 -167 -287h2q-162 -94 -435 -94q-131 0 -233 18.5t-186 73.5l2 -2q-63 50 -86 127t-23 183q0 219 41 374q53 215 162 353q79 100 197 151t249 51z" />
    <glyph glyph-name="divide" unicode="&#xf7;" horiz-adv-x="3205" 
d="M1448 2382l-41 -39q-15 -266 -39 -574h74q27 -2 80 -2h80h71h150q106 0 149 2q2 25 8.5 77.5t8.5 68.5l18 160q6 55 18 161l19 146h-86q-31 -2 -94 -2h-97h-88h-114q-78 0 -117 2zM420 1509l-41 -36q-2 -26 -17 -222q-4 -47 -11.5 -127t-8.5 -94q633 8 1464 8
q725 0 1069 -6q2 53 19 240l12 127q2 46 10 110q-737 -10 -1355 -10q-662 0 -1141 10zM1249 467l-37 -307h205q55 0 82 2h80q110 0 270 -4q2 106 17 305q12 215 20 305h-174q-45 0 -65 2h-68h-129h-66q-23 -2 -65 -2l-41 -37z" />
    <glyph glyph-name="oslash" unicode="&#xf8;" horiz-adv-x="2594" 
d="M2396 2154q-64 -70 -117 -126v2l-55 -62q-5 -7 -57 -63q114 -237 114 -564q0 -292 -65 -536q-84 -314 -254 -506q-137 -148 -352 -225q-192 -68 -404 -68q-373 0 -596 178q-47 -52 -94 -100q-22 -23 -56.5 -58.5t-60 -62.5t-47.5 -51q-10 -10 -24.5 -26t-24.5 -27
t-18 -19l-84 74q-11 8 -56 47q-50 43 -55 47l119 125q15 16 55.5 60t59.5 65l116 129q-118 226 -118 567q0 291 63 535q81 315 254 504q137 137 360 219q190 67 410 67q363 0 584 -174l137 144q33 34 107 114t79 86q59 -48 123 -104h-2l76 -66q-80 -85 -117 -125zM719 973
q0 -159 26 -252l207 231q34 38 102.5 115t102.5 115q114 129 565 630q-136 130 -362 130q-117 0 -236 -58q-122 -60 -198 -153q-110 -149 -162 -371q-45 -181 -45 -387zM1841 934q39 172 39 399q0 137 -29 230q-126 -136 -211 -234q-115 -132 -210 -237q-46 -52 -138 -155.5
t-137 -154.5q-132 -150 -276 -309q129 -129 360 -129q125 0 240.5 54.5t187.5 154.5q117 142 174 381z" />
    <glyph glyph-name="ugrave" unicode="&#xf9;" horiz-adv-x="2770" 
d="M1188 3095l-33 14q-59 0 -211 8q-190 10 -209 12q75 -123 154 -282q28 -58 104 -234q55 -118 60 -131q17 -41 59 -131h90q76 0 121 -2q22 -1 67 -2t68 -2l137 -6q72 -3 121 -6q-122 148 -192 252q-140 207 -240 368q-57 87 -96 142zM489 918q-10 -113 -10 -209
q0 -246 82 -437q74 -142 238 -209q139 -61 321 -61h54q188 0 364.5 87.5t308.5 238.5q-4 -36 -22 -281q14 -1 45 -2t47 -2q86 -5 217 -16l92 -7q3 1116 250 2261q-70 -8 -235 -20q-140 -13 -238 -16q-99 -583 -137 -934v2q-48 -309 -209 -488v2q-163 -174 -451 -174
q-94 0 -173.5 39.5t-127.5 124.5l2 -2q-65 135 -65 354q0 13 2 19v18v29q37 491 47 1012l-150 12l-43 6q-9 1 -26.5 3t-26.5 3l-51 6q-7 1 -22 2t-21 2v-135q0 -29 2 -43v-45q0 -542 -64 -1140z" />
    <glyph glyph-name="uacute" unicode="&#xfa;" horiz-adv-x="2770" 
d="M1997 4047l-29 -12q-135 -154 -278 -332q-119 -143 -222 -262q-181 -203 -231 -256l92 6q53 3 111 6q114 6 202 6q149 142 371 383l111 117q21 22 63.5 65.5t63.5 65.5q138 138 246 237q-66 -6 -250 -14l-136 -6q-86 -4 -114 -4zM489 918q-10 -113 -10 -209
q0 -246 82 -437q74 -142 238 -209q139 -61 321 -61h54q188 0 364.5 87.5t308.5 238.5q-4 -36 -22 -281q14 -1 45 -2t47 -2q86 -5 217 -16l92 -7q3 1116 250 2261q-70 -8 -235 -20q-140 -13 -238 -16q-99 -583 -137 -934v2q-48 -309 -209 -488v2q-163 -174 -451 -174
q-94 0 -173.5 39.5t-127.5 124.5l2 -2q-65 135 -65 354q0 13 2 19v18v29q37 491 47 1012l-150 12l-43 6q-9 1 -26.5 3t-26.5 3l-51 6q-7 1 -22 2t-21 2v-135q0 -29 2 -43v-45q0 -542 -64 -1140z" />
    <glyph glyph-name="ucircumflex" unicode="&#xfb;" horiz-adv-x="2854" 
d="M1526 3312h-322q-49 -68 -84 -119l-86 -119q-114 -165 -176 -246q-109 -141 -252 -291l209 5l133 4q32 34 65.5 70.5t56.5 62.5t59 68.5t51 60t55.5 66.5t50.5 61h-2l55 69l35 -57q163 -257 277 -401l133 -4l203 -5q-130 166 -222 322q-75 128 -159 295zM573 918
q-10 -113 -10 -209q0 -246 82 -437q74 -142 238 -209q139 -61 321 -61h53q188 0 365 87.5t309 238.5q-4 -36 -22 -281q14 -1 45 -2t47 -2q86 -5 217 -16l92 -7q3 1116 250 2261q-69 -8 -236 -20q-141 -13 -237 -16q-99 -583 -137 -934v2q-48 -309 -209 -488v2
q-163 -174 -451 -174q-94 0 -173.5 39.5t-127.5 124.5l2 -2q-65 135 -65 354q0 13 2 19v18v29q37 491 47 1012l-150 12l-43 6q-9 1 -26.5 3t-26.5 3l-51 6q-7 1 -22 2t-21 2v-135q0 -29 2 -43v-45q0 -542 -64 -1140z" />
    <glyph glyph-name="udieresis" unicode="&#xfc;" horiz-adv-x="2770" 
d="M1047 2984l-39 -51q18 -68 18 -140q0 -129 -86 -286q18 1 57.5 2t59.5 2q88 0 135 2q180 4 248 4q37 176 37 342q0 67 -4 117q-34 1 -105 2t-108 2q-81 0 -213 4zM1878 2976l-35 -31q-39 -156 -39 -297q0 -70 8 -129q198 -6 234 -6l254 -4q-45 116 -45 190q0 111 88 285
l-266 -4q-67 0 -199 -4zM489 918q-10 -113 -10 -209q0 -246 82 -437q74 -142 238 -209q139 -61 321 -61h54q188 0 364.5 87.5t308.5 238.5q-4 -36 -22 -281q14 -1 45 -2t47 -2q86 -5 217 -16l92 -7q3 1116 250 2261q-70 -8 -235 -20q-140 -13 -238 -16q-99 -583 -137 -934v2
q-48 -309 -209 -488v2q-163 -174 -451 -174q-94 0 -173.5 39.5t-127.5 124.5l2 -2q-65 135 -65 354q0 13 2 19v18v29q37 491 47 1012l-150 12l-43 6q-9 1 -26.5 3t-26.5 3l-51 6q-7 1 -22 2t-21 2v-135q0 -29 2 -43v-45q0 -542 -64 -1140z" />
    <glyph glyph-name="yacute" unicode="&#xfd;" horiz-adv-x="2848" 
d="M1509 3310l-28 -13q-155 -176 -279 -331q-157 -189 -221 -263q-181 -203 -231 -256l92 7q61 4 110 6q114 6 203 6q149 142 371 383l110 117q21 22 63.5 65.5t63.5 65.5q138 138 246 237q-66 -6 -250 -14l-135 -6q-86 -4 -115 -4zM1610 -141l250 538q185 399 301.5 646.5
t293.5 604t330 636.5q-72 -10 -102 -13l-121 -12q-176 -21 -221 -23q-281 -460 -707 -1237q-109 215 -321 621q-55 103 -336 614q-46 2 -213 23q-93 10 -213 27q164 -390 375 -941q29 -75 358 -952l55 -149l-39 -68q-70 -110 -133 -227q-123 -133 -194 -191l2 2
q-34 -26 -72 -42t-89 -24t-80.5 -10.5t-94.5 -5.5q-10 -1 -35.5 -2t-38.5 -2l-76 -6q-2 -14 -4.5 -30.5t-6 -38.5t-5.5 -35l-16 -103q-3 -20 -11 -73.5t-12 -83.5l-28 -158q18 2 49 6q77 8 118 10q8 1 26.5 2t25.5 2q194 12 299 33q161 33 280 117q120 93 236 254
q77 113 170 291z" />
    <glyph glyph-name="thorn" unicode="&#xfe;" horiz-adv-x="2840" 
d="M1524 6h53q180 0 350 78q164 75 287 223h-2q173 200 250 496q63 239 63 528q0 392 -168 645q-93 141 -248 219t-335 78h-54q-181 0 -352 -84.5t-297 -228.5q12 153 21 291q20 368 28 540q6 138 15 291q-68 7 -201 29q-17 3 -52.5 8t-54.5 8q-68 12 -92 17
q-54 -2035 -350 -3971q97 9 115 14q160 25 297 35q47 357 131 1087q83 -151 248 -229q157 -74 348 -74zM2122 1147q-25 -321 -162 -539q-172 -268 -459 -268q-133 0 -240 49t-161 152q-105 169 -105 440q0 214 43 385q56 222 168 367q73 97 183.5 151.5t228.5 54.5
q259 0 393 -188q119 -170 119 -448q0 -88 -8 -156z" />
    <glyph glyph-name="ydieresis" unicode="&#xff;" horiz-adv-x="2848" 
d="M1174 2984l-39 -51q18 -68 18 -140q0 -129 -86 -286q18 1 57.5 2t59.5 2q88 0 135 2q180 4 248 4q37 176 37 342q0 55 -5 117q-34 1 -105 2t-108 2q-80 0 -212 4zM2005 2976l-35 -31q-39 -156 -39 -297q0 -70 8 -129q198 -6 234 -6l254 -4q-45 116 -45 190q0 111 88 285
l-266 -4q-67 0 -199 -4zM1610 -141l250 538q185 399 301.5 646.5t293.5 604t330 636.5q-72 -10 -102 -13l-121 -12q-176 -21 -221 -23q-281 -460 -707 -1237q-109 215 -321 621q-55 103 -336 614q-46 2 -213 23q-93 10 -213 27q164 -390 375 -941q29 -75 358 -952l55 -149
l-39 -68q-70 -110 -133 -227q-123 -133 -194 -191l2 2q-34 -26 -72 -42t-89 -24t-80.5 -10.5t-94.5 -5.5q-10 -1 -35.5 -2t-38.5 -2l-76 -6q-2 -14 -4.5 -30.5t-6 -38.5t-5.5 -35l-16 -103q-3 -20 -11 -73.5t-12 -83.5l-28 -158q18 2 49 6q77 8 118 10q8 1 26.5 2t25.5 2
q194 12 299 33q161 33 280 117q120 93 236 254q77 113 170 291z" />
    <glyph glyph-name="Amacron" unicode="&#x100;" horiz-adv-x="3420" 
d="M1155 3813l-35 -59q21 -41 21 -86q0 -69 -88 -188q100 0 157 2q56 0 171 1t173 1h156h156q57 0 170.5 -1t169.5 -1q55 -2 155 -2q-63 91 -63 143q0 66 90 192q-196 -4 -328 -4q-59 -2 -172 -2q-57 -2 -157 -2q-291 0 -576 6zM1935 2980h-403q-96 -196 -430 -916
q-192 -418 -320.5 -689t-325.5 -654.5t-386 -706.5l141 13q49 2 160 10l157 12q29 1 77 4t63 4q36 79 114 238q75 162 107 242q221 6 633 6q415 0 626 -6q45 -234 105 -478q29 -2 139 -8.5t174 -11.5q164 -12 309 -25q-203 482 -399 1100q-117 367 -315 1075
q-167 594 -226 791zM1847 1878q30 -119 101 -420q38 -169 100 -420h-219q-90 0 -135 2h-138h-239q-160 0 -242 -2q231 547 371 891l246 608l80 -329q6 -25 32.5 -145t42.5 -185z" />
    <glyph glyph-name="amacron" unicode="&#x101;" horiz-adv-x="2613" 
d="M752 3103l-35 -60q20 -39 20 -86q0 -69 -88 -188q101 0 158 2q56 0 171 1t173 1h156h155q56 0 170 -1t170 -1q55 -2 156 -2q-64 93 -64 143q0 65 91 193q-196 -4 -328 -4q-59 -2 -172 -2q-57 -2 -158 -2q-290 0 -575 6zM2380 2314q-7 -4 -41.5 -1.5t-38.5 1.5t-17 -1.5
t-29 -0.5t-31 0.5t-27 1.5h-11h-225q-7 -44 -12 -85.5t-12.5 -111t-16.5 -141.5q-91 146 -251 232t-343 86h-57q-173 0 -344 -80q-177 -83 -287 -225l2 2q-179 -213 -260 -525q-68 -264 -68 -551q0 -362 156 -602q95 -143 251.5 -219t340.5 -76h20q7 0 11 2h8h30
q183 0 365 84q174 80 301 232q12 -68 13.5 -120t-3 -83.5t-16.5 -75.5l129 -10q215 -16 313 -29q-54 258 -72 474.5t10 502t57 463t111 617.5q29 156 44 239zM1223 1999h49q144 0 250 -92t141 -250q33 -149 33 -318q0 -172 -27 -284q-39 -163 -149 -242l2 2
q-57 -37 -134.5 -58.5t-132 -26.5t-145.5 -9q-120 0 -205 18q-107 23 -172 88q-41 42 -62 74t-32 78q-5 19 -8.5 39t-5 43.5t-2.5 38.5t-1.5 44.5t-0.5 39.5q10 85 15.5 125.5t21.5 113t38 129.5q78 200 197 314q139 133 330 133z" />
    <glyph glyph-name="Abreve" unicode="&#x102;" horiz-adv-x="3420" 
d="M1348 3938l-33 31q-20 4 -41 4q-16 -2 -53 -2q-56 -3 -66 -12q-4 -3 -6 -8l-78 -5q3 -8 14 -45l13 -47q17 -73 32 -121.5t49 -116t83 -124.5q127 -117 405 -117q293 0 459 154q54 57 92 124t82 167l70 157h-25h-37q-14 -2 -37 -2h-26q-94 -4 -156 -4q-51 -126 -154 -209
q-107 -86 -223 -86h-14q-4 0 -6 2h-6h-7q-2 -2 -8 -2h-12q-118 0 -203 76q-87 74 -108 186zM1935 2980h-403q-96 -196 -430 -916q-192 -418 -320.5 -689t-325.5 -654.5t-386 -706.5l141 13q49 2 160 10l157 12q29 1 77 4t63 4q36 79 114 238q75 162 107 242q221 6 633 6
q415 0 626 -6q45 -234 105 -478q29 -2 139 -8.5t174 -11.5q164 -12 309 -25q-203 482 -399 1100q-117 367 -315 1075q-167 594 -226 791zM1847 1878q30 -119 101 -420q38 -169 100 -420h-219q-90 0 -135 2h-138h-239q-160 0 -242 -2q231 547 371 891l246 608l80 -329
q6 -25 32.5 -145t42.5 -185z" />
    <glyph glyph-name="abreve" unicode="&#x103;" horiz-adv-x="2613" 
d="M944 3228l-33 30q-20 4 -41 4q-16 -2 -53 -2q-56 -3 -66 -12q-4 -3 -6 -8l-77 -4q3 -8 14 -45l12 -47q17 -73 32 -121.5t49 -116.5t83 -125q127 -117 406 -117q292 0 458 154q54 57 92 124t82 167l70 158h-24h-37q-14 -2 -37 -2h-27q-118 -5 -155 -5q-50 -125 -154 -208
q-107 -86 -223 -86h-15q-4 0 -6 2h-6h-6q-2 -2 -8 -2h-13q-118 0 -202 75q-88 75 -109 187zM2380 2314q-7 -4 -41.5 -1.5t-38.5 1.5t-17 -1.5t-29 -0.5t-31 0.5t-27 1.5h-11h-225q-7 -44 -12 -85.5t-12.5 -111t-16.5 -141.5q-91 146 -251 232t-343 86h-57q-173 0 -344 -80
q-177 -83 -287 -225l2 2q-179 -213 -260 -525q-68 -264 -68 -551q0 -362 156 -602q95 -143 251.5 -219t340.5 -76h20q7 0 11 2h8h30q183 0 365 84q174 80 301 232q12 -68 13.5 -120t-3 -83.5t-16.5 -75.5l129 -10q215 -16 313 -29q-54 258 -72 474.5t10 502t57 463
t111 617.5q29 156 44 239zM1223 1999h49q144 0 250 -92t141 -250q33 -149 33 -318q0 -172 -27 -284q-39 -163 -149 -242l2 2q-57 -37 -134.5 -58.5t-132 -26.5t-145.5 -9q-120 0 -205 18q-107 23 -172 88q-41 42 -62 74t-32 78q-5 19 -8.5 39t-5 43.5t-2.5 38.5t-1.5 44.5
t-0.5 39.5q10 85 15.5 125.5t21.5 113t38 129.5q78 200 197 314q139 133 330 133z" />
    <glyph glyph-name="Aogonek" unicode="&#x104;" horiz-adv-x="3420" 
d="M2324 -356q0 -56 43 -90.5t105 -34.5q135 0 287 69v-47q-2 -20 -2 -61q-2 -20 -2 -60q-2 -20 -2 -49q0 -12 2 -16v-17v-63q-179 -31 -289 -31q-11 0 -15 2h-16q-61 4 -97.5 7.5t-88 15t-92.5 29.5q-140 76 -140 256q0 122 78 274q55 104 143 205l31 12h62q25 -2 77 -2h78
h23l-256 16q-60 244 -105 478q-211 6 -626 6q-412 0 -633 -6q-32 -80 -107 -242q-78 -159 -114 -238q-15 -1 -63 -4t-77 -4l-157 -12q-111 -8 -160 -10l-141 -13q189 323 386 706.5t325.5 654.5t320.5 689q334 720 430 916h403q59 -197 226 -791q198 -708 315 -1075
q196 -618 399 -1100q-145 13 -309 25l-20 2q-107 -138 -146 -201q-76 -124 -76 -196zM1829 1038h219q-62 251 -100 420q-71 301 -101 420q-16 65 -42.5 185t-32.5 145l-80 329l-246 -608q-140 -344 -371 -891q82 2 242 2h239h138q45 -2 135 -2z" />
    <glyph glyph-name="aogonek" unicode="&#x105;" horiz-adv-x="2613" 
d="M1946 -246q0 -56 42.5 -90.5t104.5 -34.5q133 0 287 70v-47q-2 -20 -2 -62q-2 -20 -2 -59q-2 -20 -2 -49q0 -13 2 -17v-16v-63q-179 -31 -289 -31q-10 0 -14 2h-17q-63 4 -98 7.5t-87 14.5t-93 29q-140 76 -140 256q0 123 78 275q22 41 74 118h-2q12 44 16.5 75.5t3 83.5
t-13.5 120q-127 -152 -301 -232q-182 -84 -365 -84h-30h-8q-4 -2 -11 -2h-20q-184 0 -340.5 76t-251.5 219q-156 240 -156 602q0 287 68 551q81 312 260 525l-2 -2q110 142 287 225q171 80 344 80h57q183 0 343 -86t251 -232q9 72 16.5 141.5t12.5 111t12 85.5h225h11
q12 -1 27 -1.5t31 -0.5t29 0.5t17 1.5t38.5 -1.5t41.5 1.5q-129 -696 -147 -807q-82 -494 -78 -828q3 -316 75 -661q-13 1 -66 7.5t-85 9.5q-7 -10 -19.5 -27t-22 -30.5t-16.5 -26.5q-75 -122 -75 -197zM1669 1055q27 112 27 284q0 169 -33 318q-35 158 -141 250t-250 92
h-49q-191 0 -330 -133q-119 -114 -197 -314q-22 -57 -38 -129.5t-21.5 -113t-15.5 -125.5q0 -10 0.5 -39.5t1.5 -44.5t2.5 -38.5t5 -43.5t8.5 -39q11 -46 32 -78t62 -74q65 -65 172 -88q85 -18 205 -18q91 4 145.5 9t132 26.5t134.5 58.5l-2 -2q110 79 149 242z" />
    <glyph glyph-name="Cacute" unicode="&#x106;" horiz-adv-x="3131" 
d="M1694 3830l-29 -15q-29 -34 -84.5 -101.5t-64.5 -78.5v2q-47 -60 -138 -166q-85 -98 -184 -200q74 6 127 8q12 1 36 2t36 2q23 2 55 2q47 0 117 4q20 19 58.5 58.5t49.5 50.5q96 102 166 178q13 15 72 74q85 85 209 198q-72 -8 -213 -12q-20 -1 -59 -2t-58 -2
q-39 -2 -96 -2zM2812 2781l37 21q-328 231 -854 231q-336 0 -604 -82q-325 -100 -545 -311q-230 -241 -350 -649q-97 -333 -97 -699q0 -266 56 -471q63 -240 200 -413q189 -212 486 -306q265 -84 583 -84q525 0 914 242v86q0 94 8 336q10 309 12 338q-201 -180 -436 -279
q-224 -94 -446 -94q-229 0 -396 35q-219 45 -354 156l2 -2q-99 88 -147 241q-39 124 -39 299q0 285 69 529q80 291 271 493h-2q145 149 376 217q187 56 420 56q219 0 430.5 -90t380.5 -261q12 98 35 230q3 22 10.5 62.5t10.5 58.5q10 63 18 106z" />
    <glyph glyph-name="cacute" unicode="&#x107;" horiz-adv-x="2486" 
d="M1448 3310l-29 -13q-144 -164 -278 -331q-157 -189 -221 -263q-164 -184 -232 -256l92 7q52 3 111 6q114 6 203 6q141 134 370 383l111 117q21 22 63.5 65.5t63.5 65.5q138 138 246 237q-66 -6 -250 -14l-135 -6q-86 -4 -115 -4zM2089 2148l35 39q-264 99 -557 99
q-254 0 -473 -66q-269 -80 -435 -235q-189 -183 -272 -492q-70 -250 -70 -532q0 -202 41 -351q51 -185 154 -307l-2 2q135 -169 379 -244q193 -59 457 -59q326 0 616 109q-4 144 -4 233q0 53 4 193q1 40 4 105.5t4 84.5q-176 -84 -303 -84h-25l-299 6h3q-161 13 -272.5 37.5
t-199.5 83.5h3q-72 58 -105 162q-31 98 -31 205q17 168 66 317q57 182 151 287q95 114 256 172q134 49 299 49q281 0 572 -147l16 122v-2q3 22 11 59.5t10 51.5q14 82 20 111z" />
    <glyph glyph-name="Cdotaccent" unicode="&#x10a;" horiz-adv-x="3131" 
d="M1518 3826v-35q0 -11 2 -17v-16q0 -130 -47 -344q9 1 28 2t29 2q44 0 67 2q90 4 123 4q29 0 107 -4q18 -2 57 -2q8 -1 24 -2t23 -2v14v23q-2 6 -2 20v13v26q0 141 47 361q-184 -15 -235 -15q-91 0 -180 9zM2812 2781l37 21q-328 231 -854 231q-336 0 -604 -82
q-325 -100 -545 -311q-230 -241 -350 -649q-97 -333 -97 -699q0 -266 56 -471q63 -240 200 -413q189 -212 486 -306q265 -84 583 -84q525 0 914 242v86q0 94 8 336q10 309 12 338q-201 -180 -436 -279q-224 -94 -446 -94q-229 0 -396 35q-219 45 -354 156l2 -2
q-99 88 -147 241q-39 124 -39 299q0 285 69 529q80 291 271 493h-2q145 149 376 217q187 56 420 56q219 0 430.5 -90t380.5 -261q12 98 35 230q3 22 10.5 62.5t10.5 58.5q10 63 18 106z" />
    <glyph glyph-name="cdotaccent" unicode="&#x10b;" horiz-adv-x="2486" 
d="M1133 3115v-35q0 -10 2 -16v-17q0 -126 -48 -344q9 1 28.5 2t29.5 2q33 0 67 3q90 4 123 4q29 0 107 -4q27 -3 57 -3q8 -1 24 -2t23 -2v15v22q-2 6 -2 21v12v27q0 140 47 360q-171 -14 -235 -14q-101 0 -180 8zM2089 2148l35 39q-264 99 -557 99q-254 0 -473 -66
q-269 -80 -435 -235q-189 -183 -272 -492q-70 -250 -70 -532q0 -202 41 -351q51 -185 154 -307l-2 2q135 -169 379 -244q193 -59 457 -59q326 0 616 109q-4 144 -4 233q0 53 4 193q1 40 4 105.5t4 84.5q-176 -84 -303 -84h-25l-299 6h3q-161 13 -272.5 37.5t-199.5 83.5h3
q-72 58 -105 162q-31 98 -31 205q17 168 66 317q57 182 151 287q95 114 256 172q134 49 299 49q281 0 572 -147l16 122v-2q3 22 11 59.5t10 51.5q14 82 20 111z" />
    <glyph glyph-name="Ccaron" unicode="&#x10c;" horiz-adv-x="3131" 
d="M1583 3260h320q13 17 40.5 59.5t36.5 55.5q103 146 150.5 211.5t157.5 203t219 253.5l-219 -13h2l-133 -4q-164 -169 -316 -364l-76 -94l-2 4q-16 25 -55.5 87t-61 95.5t-56 85t-67.5 96.5t-69 90q-43 0 -72 2q-16 1 -46.5 2.5t-45.5 2.5q-29 1 -168 8q79 -107 151 -221
t111 -184.5t103 -192.5zM2812 2781l37 21q-328 231 -854 231q-336 0 -604 -82q-325 -100 -545 -311q-230 -241 -350 -649q-97 -333 -97 -699q0 -266 56 -471q63 -240 200 -413q189 -212 486 -306q265 -84 583 -84q525 0 914 242v86q0 94 8 336q10 309 12 338
q-201 -180 -436 -279q-224 -94 -446 -94q-229 0 -396 35q-219 45 -354 156l2 -2q-99 88 -147 241q-39 124 -39 299q0 285 69 529q80 291 271 493h-2q145 149 376 217q187 56 420 56q219 0 430.5 -90t380.5 -261q12 98 35 230q3 22 10.5 62.5t10.5 58.5q10 63 18 106z" />
    <glyph glyph-name="ccaron" unicode="&#x10d;" horiz-adv-x="2605" 
d="M1192 2347h319q13 18 41.5 60.5t36.5 54.5q100 141 149.5 209.5t159 205t218.5 252.5l-220 -12h2l-133 -4q-155 -160 -315 -365l-76 -94l-2 4q-11 17 -67.5 106.5t-80 124.5t-70.5 102t-91 122q-43 0 -72 2q-15 1 -46 2t-46 2q-29 1 -168 8q79 -107 151 -221t111 -184.5
t103 -192.5zM2208 2148l35 39q-264 99 -557 99q-255 0 -474 -66q-268 -80 -434 -235q-189 -183 -272 -492q-70 -250 -70 -532q0 -202 41 -351q51 -185 154 -307l-2 2q135 -169 379 -244q193 -59 456 -59q327 0 617 109q-4 144 -4 233q0 53 4 193q1 40 4 105.5t4 84.5
q-176 -84 -303 -84h-25l-299 6h2q-161 13 -272 37.5t-199 83.5h2q-71 57 -104 162q-31 98 -31 205q17 168 66 317q57 182 151 287q95 114 256 172q134 49 299 49q281 0 572 -147l16 122v-2q3 22 11 59.5t10 51.5q14 82 20 111z" />
    <glyph glyph-name="Dcaron" unicode="&#x10e;" horiz-adv-x="3289" 
d="M1513 3260l-96 183q-66 125 -103.5 193t-109.5 183t-151 222q139 -7 168 -8q16 -1 46.5 -2.5t45.5 -2.5q29 -2 71 -2q36 -45 69 -89.5t69 -98.5t55 -83t62 -97t55 -86l2 -4l76 94q156 200 315 364l133 4h-2l219 13q-102 -109 -202.5 -233.5t-157 -201.5t-140.5 -196
q-17 -25 -26 -37q-8 -12 -36.5 -54.5t-41.5 -60.5h-320zM2996 2261q56 -193 56 -444q0 -414 -82 -730q-115 -446 -390 -677q-247 -193 -618 -273q-241 -51 -662 -67q-226 -10 -430 -21q-263 -18 -434 -35q271 1397 271 2728v129q0 86 -2 129l43 39q352 -43 798 -53
q428 -20 656 -70q360 -79 577 -274q150 -150 217 -381zM2623 1573q7 74 7 192q0 370 -170 582q-147 143 -398 213q-183 50 -454 61q-208 0 -455 13q-37 -990 -137 -1807q184 8 440 11q21 0 31 2h31q213 3 387 28q203 29 364 121h-2q131 89 225 262q64 118 131 322z" />
    <glyph glyph-name="dcaron" unicode="&#x10f;" horiz-adv-x="2732" 
d="M3152 3564l-41 -37q-10 -166 -27 -387l-47 -123q-89 -221 -112 -275q-18 -44 -39 -91.5t-45 -101.5t-35 -79q3 0 27 3.5t40 4.5q99 11 168 16q63 5 66 5q96 113 205 254q153 198 198 258l86 120q2 15 33 228q26 176 37 229q-225 -27 -393 -27h-62q-29 0 -59 3zM1325 2294
h-57q-173 0 -344 -80q-177 -83 -287 -225l2 2q-179 -213 -260 -525q-68 -264 -68 -551q0 -362 156 -602q95 -143 251.5 -219t340.5 -76h20q7 0 11 2h8h30q183 0 365 84q174 80 301 232q-2 -23 -2 -49q-2 -10 -2 -23v-24v-50v-67q-2 -29 -2 -66l129 -10q115 -9 270 -29
q23 1506 324 3134q-25 -8 -51 -12q-25 -7 -29 -7q-144 -19 -334 -34q-117 -642 -178 -1123q-89 153 -247.5 235.5t-346.5 82.5zM608 1184q24 200 88 368q78 200 197 314q139 133 330 133h49q144 0 250 -92t141 -250q33 -149 33 -318q0 -172 -27 -284q-46 -190 -149 -264l2 2
q-57 -37 -134 -58.5t-132.5 -27t-145.5 -9.5q-115 0 -205 19q-106 22 -174 88h2q-69 72 -94 174q-28 103 -31 205z" />
    <glyph glyph-name="Dcroat" unicode="&#x110;" horiz-adv-x="3289" 
d="M1145 3482q-57 -2 -158 -2q88 119 88 188q0 47 -20 86l35 59q285 -6 575 -6q101 0 158 2q113 0 172 2q131 0 327 4q-90 -126 -90 -192q0 -50 64 -143q-101 0 -156 2q-56 0 -169.5 1t-170.5 1h-155h-156q-58 0 -173 -1t-171 -1zM2996 2261q56 -193 56 -444
q0 -414 -82 -730q-115 -446 -390 -677q-247 -193 -618 -273q-241 -51 -662 -67q-226 -10 -430 -21q-263 -18 -434 -35q271 1397 271 2728v129q0 86 -2 129l43 39q352 -43 798 -53q428 -20 656 -70q360 -79 577 -274q150 -150 217 -381zM2623 1573q7 74 7 192q0 370 -170 582
q-147 143 -398 213q-183 50 -454 61q-208 0 -455 13q-37 -990 -137 -1807q184 8 440 11q21 0 31 2h31q213 3 387 28q203 29 364 121h-2q131 89 225 262q64 118 131 322z" />
    <glyph glyph-name="dcroat" unicode="&#x111;" horiz-adv-x="2723" 
d="M1321 2294h-51q-181 0 -349 -79.5t-282 -225.5l2 2q-178 -209 -262 -531q-66 -256 -66 -555q0 -373 154 -592h-2q86 -142 254 -223q154 -74 332 -74h18q6 0 10 2h13h22q190 0 369.5 88t308.5 242q-4 -126 -4 -141v-60q-2 -23 -2 -79q102 -3 252 -15l147 -8
q10 1094 189 2490q120 8 243 19q13 0 27 2h25q3 31 12 80q10 76 10 78l21 135l-302 -29q5 39 23 146l25 143l-119 -10h2q-140 -10 -291 -13l-39 -286q-159 -9 -315 -9h-318l-10 -137q-3 -26 -6 -69q-1 -12 -2 -37.5t-2 -34.5q419 0 618 6q-22 -191 -26 -244q-6 -82 -25 -245
l-6 -56q-85 150 -252 238q-158 82 -346 82zM729 1231q20 167 64 302t133 241q76 91 186 138.5t231 47.5q127 0 235 -45.5t171 -140.5q111 -155 111 -422q0 -185 -41 -334q-50 -181 -158 -309q-169 -191 -461 -191q-120 0 -220.5 45.5t-158.5 134.5q-100 155 -100 396
q0 74 8 137z" />
    <glyph glyph-name="Emacron" unicode="&#x112;" horiz-adv-x="2951" 
d="M797 3813l-35 -59q20 -39 20 -86q0 -69 -88 -188q101 0 158 2q56 0 171 1t173 1h156h155q57 0 170 -1t170 -1q55 -2 156 -2q-64 93 -64 143q0 64 91 192q-196 -4 -328 -4q-59 -2 -172 -2q-57 -2 -158 -2q-290 0 -575 6zM752 3039l-47 -39q-12 -1492 -265 -2986
q560 62 1000 62q455 0 966 -62v158q0 115 2 174q4 213 11 330q-477 39 -932 39q-226 0 -516 -10q3 35 10.5 98.5t9.5 87.5l21 180q15 152 32 367h629q227 0 352 2h353q0 28 2 51t2 51q11 151 33 275q-609 -13 -883 -13q-143 0 -455 4q3 49 9 132.5t11 151.5t9 126
q15 194 24 405q266 -14 541 -14q452 0 903 47q5 35 33 215l29 170q-529 -63 -979 -63q-460 0 -905 61z" />
    <glyph glyph-name="emacron" unicode="&#x113;" horiz-adv-x="2682" 
d="M901 2771q-57 -2 -158 -2q88 119 88 188q0 47 -20 86l35 60q285 -6 575 -6q101 0 158 2q113 0 172 2q132 0 328 4q-90 -126 -90 -193q0 -52 63 -143q-101 0 -156 2q-56 0 -170 1t-170 1h-155h-156q-58 0 -173 -1t-171 -1zM2284 1372l-66 27l68 -29q-2 -14 -2 -37
q-1 -5 -2.5 -17.5t-2.5 -17.5v2l-10 -81q-385 -7 -1018 -7q-94 0 -141 2h-143h-246v-10q-4 -78 -4 -104q0 -130 28 -228q33 -116 115 -176v2q212 -133 582 -133h37q207 0 329 17q183 23 355 104v-65q-4 -102 -4 -156v-68q0 -178 6 -254q-407 -137 -838 -137q-243 18 -432 84
q-236 79 -377 217q-107 124 -160 309q-47 161 -47 351q0 269 78 524q92 301 264 487q150 155 379 234q194 66 428 69q203 -11 348 -53q191 -56 303 -168q100 -110 144 -278q31 -126 31 -320v-20q-2 -8 -2 -25v-45zM981 1556h197q329 0 784 7q-22 214 -158 350
q-144 141 -358 141q-299 0 -475 -168q-160 -141 -187 -327q151 -4 197 -3z" />
    <glyph glyph-name="Edotaccent" unicode="&#x116;" horiz-adv-x="2951" 
d="M1155 3826v-35q0 -11 2 -17v-16q0 -130 -47 -344q9 1 28 2t29 2q45 0 68 2q90 4 123 4q28 0 106 -4q18 -2 58 -2q8 -1 24 -2t23 -2v14v23q-2 6 -2 20v13v26q0 141 47 361q-184 -15 -236 -15q-92 0 -180 9zM752 3039l-47 -39q-12 -1492 -265 -2986q560 62 1000 62
q455 0 966 -62v158q0 115 2 174q4 213 11 330q-477 39 -932 39q-226 0 -516 -10q3 35 10.5 98.5t9.5 87.5l21 180q15 152 32 367h629q227 0 352 2h353q0 28 2 51t2 51q11 151 33 275q-609 -13 -883 -13q-143 0 -455 4q3 49 9 132.5t11 151.5t9 126q15 194 24 405
q266 -14 541 -14q452 0 903 47q5 35 33 215l29 170q-529 -63 -979 -63q-460 0 -905 61z" />
    <glyph glyph-name="edotaccent" unicode="&#x117;" horiz-adv-x="2682" 
d="M1159 2703q47 214 47 344v17q-2 6 -2 16v35l43 39q79 -8 180 -8q65 0 236 14q-47 -220 -47 -360v-27v-12q0 -15 2 -21v-22v-15q-7 1 -23 2t-24 2q-31 0 -58 3q-78 4 -106 4q-33 0 -123 -4q-34 -3 -67 -3q-10 -1 -29.5 -2t-28.5 -2zM2284 1372l-66 27l68 -29
q-2 -14 -2 -37q-1 -5 -2.5 -17.5t-2.5 -17.5v2l-10 -81q-385 -7 -1018 -7q-94 0 -141 2h-143h-246v-10q-4 -78 -4 -104q0 -130 28 -228q33 -116 115 -176v2q212 -133 582 -133h37q207 0 329 17q183 23 355 104v-65q-4 -102 -4 -156v-68q0 -178 6 -254q-407 -137 -838 -137
q-243 18 -432 84q-236 79 -377 217q-107 124 -160 309q-47 161 -47 351q0 269 78 524q92 301 264 487q150 155 379 234q194 66 428 69q203 -11 348 -53q191 -56 303 -168q100 -110 144 -278q31 -126 31 -320v-20q-2 -8 -2 -25v-45zM981 1556h197q329 0 784 7
q-22 214 -158 350q-144 141 -358 141q-299 0 -475 -168q-160 -141 -187 -327q151 -4 197 -3z" />
    <glyph glyph-name="Eogonek" unicode="&#x118;" horiz-adv-x="2951" 
d="M1657 2978q450 0 979 63l-29 -170q-28 -179 -33 -215q-451 -47 -903 -47q-275 0 -541 14q-9 -211 -24 -405q-4 -58 -9 -126t-11 -151.5t-9 -132.5q312 -4 455 -4q274 0 883 13q-22 -124 -33 -275q0 -28 -2 -51t-2 -51h-353q-125 -2 -352 -2h-629q-17 -215 -32 -367
l-21 -180q-2 -24 -9.5 -87.5t-10.5 -98.5q290 10 516 10q455 0 932 -39q-7 -117 -11 -330q-2 -59 -2 -174v-158q-56 6 -116 15q-101 -132 -136 -189q-75 -122 -75 -196q0 -56 42.5 -90.5t104.5 -34.5q135 0 287 69v-47q-2 -20 -2 -61q-2 -20 -2 -60q-2 -20 -2 -49
q0 -12 2 -16v-17v-63q-179 -31 -289 -31q-10 0 -14 2h-17q-61 4 -97.5 7.5t-88 15t-92.5 29.5q-139 75 -139 256q0 124 77 274q53 102 144 205l30 12h62q16 -2 51 -2q-347 33 -696 33q-440 0 -1000 -62q253 1494 265 2986l47 39q445 -61 905 -61z" />
    <glyph glyph-name="eogonek" unicode="&#x119;" horiz-adv-x="2682" 
d="M2284 1372l-66 27l68 -29q-2 -14 -2 -37q-1 -5 -2.5 -17.5t-2.5 -17.5v2l-10 -81q-385 -7 -1018 -7q-94 0 -141 2h-143h-246v-10q-4 -78 -4 -104q0 -130 28 -228q33 -116 115 -176v2q212 -133 582 -133h37q207 0 329 17q183 23 355 104v-65q-4 -102 -4 -156v-68
q0 -178 6 -254q-342 -116 -713 -135q-81 -99 -129 -178q-76 -124 -76 -197q0 -56 43 -90.5t105 -34.5q132 0 286 70v-47q-2 -20 -2 -61q-2 -20 -2 -60q-2 -20 -2 -49q0 -12 2 -16v-17v-63q-179 -31 -288 -31q-11 0 -15 2h-16q-64 4 -99 7.5t-87 14.5t-93 29
q-139 75 -139 256q0 123 78 275q55 104 143 205l4 2q-158 25 -270 65q-236 79 -377 217q-107 124 -160 309q-47 161 -47 351q0 269 78 524q92 301 264 487q150 155 379 234q194 66 428 69q203 -11 348 -53q191 -56 303 -168q100 -110 144 -278q31 -126 31 -320v-20
q-2 -8 -2 -25v-45zM981 1556h197q329 0 784 7q-22 214 -158 350q-144 141 -358 141q-299 0 -475 -168q-160 -141 -187 -327q151 -4 197 -3z" />
    <glyph glyph-name="Ecaron" unicode="&#x11a;" horiz-adv-x="2951" 
d="M1221 3260h319q13 18 41.5 60.5t36.5 54.5q195 275 298 404q111 139 228 264l-219 -13h2l-133 -4q-159 -164 -315 -364l-76 -94l-2 4q-16 25 -55.5 87t-61 95.5t-56 85t-67.5 96.5t-69 90q-43 0 -72 2q-15 1 -45.5 2.5t-46.5 2.5q-29 1 -168 8q79 -107 151 -222
t109.5 -183t103.5 -193zM752 3039l-47 -39q-12 -1492 -265 -2986q560 62 1000 62q455 0 966 -62v158q0 115 2 174q4 213 11 330q-477 39 -932 39q-226 0 -516 -10q3 35 10.5 98.5t9.5 87.5l21 180q15 152 32 367h629q227 0 352 2h353q0 28 2 51t2 51q11 151 33 275
q-609 -13 -883 -13q-143 0 -455 4q3 49 9 132.5t11 151.5t9 126q15 194 24 405q266 -14 541 -14q452 0 903 47q5 35 33 215l29 170q-529 -63 -979 -63q-460 0 -905 61z" />
    <glyph glyph-name="ecaron" unicode="&#x11b;" horiz-adv-x="2682" 
d="M1270 2550l-96 182q-64 122 -103 192.5t-111 184.5t-151 221q139 -7 168 -8q15 -1 46 -2t46 -2q29 -2 72 -2q44 -55 91 -122t70.5 -102t80 -124.5t67.5 -106.5l2 -4l76 94q160 205 315 365l133 4h-2l219 12q-102 -109 -202.5 -233.5t-157 -201.5t-140.5 -196
q-17 -25 -26 -37q-7 -10 -36 -53t-42 -61h-319zM2284 1372l-66 27l68 -29q-2 -14 -2 -37q-1 -5 -2.5 -17.5t-2.5 -17.5v2l-10 -81q-385 -7 -1018 -7q-94 0 -141 2h-143h-246v-10q-4 -78 -4 -104q0 -130 28 -228q33 -116 115 -176v2q212 -133 582 -133h37q207 0 329 17
q183 23 355 104v-65q-4 -102 -4 -156v-68q0 -178 6 -254q-407 -137 -838 -137q-243 18 -432 84q-236 79 -377 217q-107 124 -160 309q-47 161 -47 351q0 269 78 524q92 301 264 487q150 155 379 234q194 66 428 69q203 -11 348 -53q191 -56 303 -168q100 -110 144 -278
q31 -126 31 -320v-20q-2 -8 -2 -25v-45zM981 1556h197q329 0 784 7q-22 214 -158 350q-144 141 -358 141q-299 0 -475 -168q-160 -141 -187 -327q151 -4 197 -3z" />
    <glyph glyph-name="Gbreve" unicode="&#x11e;" horiz-adv-x="3317" 
d="M1454 3439q-56 51 -89 107.5t-60 133.5q17 67 28 92q21 55 51 66q12 4 23 4q16 2 53 2q23 0 43 -4l29 -29q31 -90 118.5 -139t196.5 -49h13q6 0 8 2h8h8q2 -2 6 -2h15q104 0 202 55q102 60 160 162q94 4 154 4h26q23 0 37 2h39h25l-64 -129q-5 -9 -22.5 -44.5
t-24.5 -48.5t-24 -42t-30 -45.5t-32.5 -38.5t-40.5 -39q-97 -75 -227 -102q-92 -19 -223 -23q-129 2 -228 23.5t-178 81.5zM1305 3680l-5 -16l-18 86zM2501 2984q267 -58 481 -195l-19 -108q-6 -29 -12 -74l-12 -90q-7 -43 -25 -164q-192 177 -428.5 265.5t-484.5 88.5
q-236 0 -428 -55q-235 -67 -387 -207q-177 -190 -262 -485q-70 -242 -70 -520q0 -198 33 -320q46 -172 153 -260l-2 2q132 -97 353 -141q160 -31 393 -35q25 1 76.5 2t78.5 2q177 0 308 47q62 19 116 70l4 4q1 23 4.5 71t4.5 72q1 23 4 70.5t4 71.5q-192 4 -301 4h-299
l39 456h532q127 0 271 3h268q-60 -658 -60 -1252q-451 -287 -1079 -287q-336 0 -596 78q-315 95 -500 303q-130 159 -198 406q-58 208 -58 457q0 393 89 718q114 424 362 664q216 200 539 299q287 88 596 88q287 0 512 -49zM2363 797l4 4v2z" />
    <glyph glyph-name="gbreve" unicode="&#x11f;" horiz-adv-x="2654" 
d="M1073 3228l-33 30q-20 4 -41 4q-16 -2 -53 -2q-56 -3 -66 -12q-4 -3 -6 -8l-77 -4q3 -8 14 -45l12 -47q17 -73 32 -121.5t49 -116.5t83 -125q127 -117 406 -117q292 0 458 154q54 57 92 124t82 167l70 158h-24h-37q-14 -2 -37 -2h-27q-117 -5 -155 -5q-50 -125 -154 -208
q-107 -86 -223 -86h-15q-4 0 -6 2h-6h-6q-2 -2 -8 -2h-13q-118 0 -202 75q-88 75 -109 187zM2136 240l10 73q111 1058 293 1971l-276 -35h2l-133 -11l-56 -219q-2 -14 -10 -41q-9 -20 -12 -43q-99 147 -268 238q-172 90 -359 90h-61q-183 0 -351 -70q-176 -73 -299 -211
q-159 -181 -227 -464q-57 -225 -57 -496q0 -421 170 -678q89 -138 254 -221q160 -80 331 -80q410 0 674 279q-4 -46 -4 -66q-56 -192 -219 -358q-83 -94 -233 -144q-116 -37 -273 -41q-328 0 -606 156q0 -2 -8 -64.5t-12 -97.5q-2 -21 -23 -180q-28 -216 -49 -344
q295 -82 649 -82q270 0 442 41q245 55 404 211q151 164 225 426q48 169 82 461zM1708 1180v2q-15 -149 -53 -250q-53 -141 -148 -203q-194 -78 -438 -78q-115 0 -201 13q-107 13 -180 63q-59 68 -82 178q-19 88 -22 211q0 21 -2 31t-2 31q14 170 53 305q50 172 133 280
q73 89 188.5 138t237.5 49q241 0 379 -150q145 -161 145 -469q0 -83 -8 -151z" />
    <glyph glyph-name="Gdotaccent" unicode="&#x120;" horiz-adv-x="3317" 
d="M1561 3414q47 214 47 344v16q-2 6 -2 17v35l43 39q89 -9 180 -9q51 0 235 15q-47 -220 -47 -361v-26v-13q0 -14 2 -20v-23v-14q-7 1 -23 2t-24 2q-39 0 -57 2q-78 4 -107 4q-32 0 -122 -4q-23 -2 -68 -2q-10 -1 -29 -2t-28 -2zM2501 2984q267 -58 481 -195l-19 -108
q-6 -29 -12 -74l-12 -90q-7 -43 -25 -164q-192 177 -428.5 265.5t-484.5 88.5q-236 0 -428 -55q-235 -67 -387 -207q-177 -190 -262 -485q-70 -242 -70 -520q0 -198 33 -320q46 -172 153 -260l-2 2q132 -97 353 -141q160 -31 393 -35q25 1 76.5 2t78.5 2q177 0 308 47
q62 19 116 70l4 4q1 23 4.5 71t4.5 72q1 23 4 70.5t4 71.5q-192 4 -301 4h-299l39 456h532q127 0 271 3h268q-60 -658 -60 -1252q-451 -287 -1079 -287q-336 0 -596 78q-315 95 -500 303q-130 159 -198 406q-58 208 -58 457q0 393 89 718q114 424 362 664q216 200 539 299
q287 88 596 88q287 0 512 -49zM2363 797l4 4v2z" />
    <glyph glyph-name="gdotaccent" unicode="&#x121;" horiz-adv-x="2654" 
d="M1241 3115v-35q0 -10 2 -16v-17q0 -130 -47 -344q9 1 28 2t29 2q33 0 68 3q90 4 123 4q28 0 106 -4q27 -3 58 -3q8 -1 24 -2t23 -2v15v22q-2 6 -2 21v12v27q0 140 47 360q-172 -14 -236 -14q-101 0 -180 8zM2136 240l10 73q111 1058 293 1971l-276 -35h2l-133 -11
l-56 -219q-2 -14 -10 -41q-9 -20 -12 -43q-99 147 -268 238q-172 90 -359 90h-61q-183 0 -351 -70q-176 -73 -299 -211q-159 -181 -227 -464q-57 -225 -57 -496q0 -421 170 -678q89 -138 254 -221q160 -80 331 -80q410 0 674 279q-4 -46 -4 -66q-56 -192 -219 -358
q-83 -94 -233 -144q-116 -37 -273 -41q-328 0 -606 156q0 -2 -8 -64.5t-12 -97.5q-2 -21 -23 -180q-28 -216 -49 -344q295 -82 649 -82q270 0 442 41q245 55 404 211q151 164 225 426q48 169 82 461zM1708 1180v2q-15 -149 -53 -250q-53 -141 -148 -203q-194 -78 -438 -78
q-115 0 -201 13q-107 13 -180 63q-59 68 -82 178q-19 88 -22 211q0 21 -2 31t-2 31q14 170 53 305q50 172 133 280q73 89 188.5 138t237.5 49q241 0 379 -150q145 -161 145 -469q0 -83 -8 -151z" />
    <glyph glyph-name="Gcommaaccent" unicode="&#x122;" horiz-adv-x="3317" 
d="M2501 2984q267 -58 481 -195l-19 -108q-6 -29 -12 -74l-12 -90q-7 -43 -25 -164q-192 177 -428.5 265.5t-484.5 88.5q-236 0 -428 -55q-235 -67 -387 -207q-177 -190 -262 -485q-70 -242 -70 -520q0 -198 33 -320q46 -172 153 -260l-2 2q132 -97 353 -141
q160 -31 393 -35q25 1 76.5 2t78.5 2q177 0 308 47q62 19 116 70l4 4q1 23 4.5 71t4.5 72q1 23 4 70.5t4 71.5q-192 4 -301 4h-299l39 456h532q127 0 271 3h268q-60 -658 -60 -1252q-451 -287 -1079 -287q-336 0 -596 78q-315 95 -500 303q-130 159 -198 406
q-58 208 -58 457q0 393 89 718q114 424 362 664q216 200 539 299q287 88 596 88q287 0 512 -49zM2363 797l4 4v2zM1577 -150h61q169 0 394 27q-11 -53 -37 -229q-31 -213 -33 -228l-86 -120q-12 -16 -199 -258q-119 -154 -204 -254q-3 0 -66 -5q-69 -5 -168 -16
q-16 -1 -41 -4.5t-27 -3.5q11 25 35 79t45 101.5t39 91.5q40 95 113 275l47 123q17 220 27 387l41 37q30 -3 59 -3z" />
    <glyph glyph-name="gcommaaccent" unicode="&#x123;" horiz-adv-x="2654" 
d="M2136 240l10 73q111 1058 293 1971l-276 -35h2l-133 -11l-56 -219q-2 -14 -10 -41q-9 -20 -12 -43q-99 147 -268 238q-172 90 -359 90h-61q-183 0 -351 -70q-176 -73 -299 -211q-159 -181 -227 -464q-57 -225 -57 -496q0 -421 170 -678q89 -138 254 -221q160 -80 331 -80
q410 0 674 279q-4 -46 -4 -66q-56 -192 -219 -358q-83 -94 -233 -144q-116 -37 -273 -41q-328 0 -606 156q0 -2 -8 -64.5t-12 -97.5q-2 -21 -23 -180q-28 -216 -49 -344q295 -82 649 -82q270 0 442 41q245 55 404 211q151 164 225 426q48 169 82 461zM1708 1180v2
q-15 -149 -53 -250q-53 -141 -148 -203q-194 -78 -438 -78q-115 0 -201 13q-107 13 -180 63q-59 68 -82 178q-19 88 -22 211q0 21 -2 31t-2 31q14 170 53 305q50 172 133 280q73 89 188.5 138t237.5 49q241 0 379 -150q145 -161 145 -469q0 -83 -8 -151zM799 -1118l-41 -37
q-10 -167 -27 -387l-47 -123q-66 -163 -113 -274q-31 -75 -118 -273q3 0 27 3.5t40 4.5q129 14 168 17q12 1 34 2t32 2q85 100 204 254q187 242 199 258l86 121q1 9 33 227q26 176 37 229q-217 -26 -393 -26h-62q-39 0 -59 2z" />
    <glyph glyph-name="Hbar" unicode="&#x126;" horiz-adv-x="3301" 
d="M2912 2609h164q-29 -19 -52 -87t-18.5 -142.5t48.5 -100.5h-189q-119 -928 -119 -1787q0 -212 11 -478q-103 12 -248 25q-49 2 -133 10q-24 1 -65 4t-54 4q3 524 35 975q-208 4 -314 4h-313h-317q-92 0 -318 -4q-62 -558 -125 -975q-28 -2 -115.5 -9t-138.5 -11
q-96 -8 -135 -10l-121 -13q224 1090 285 2267q-90 -2 -254 -2q42 76 65.5 120.5t31.5 62t26.5 64.5t32.5 81h112q4 127 8 389l48 39q189 -28 411 -37q-8 -262 -14 -393q908 0 1307 2q13 98 59 393l186 15q71 4 142 12q14 1 38.5 4t36.5 4l66 6q-51 -294 -70 -432zM2343 1618
q29 348 67 663h-1280q-19 -350 -47 -665h76q23 -2 76 -2h197q277 0 911 4z" />
    <glyph glyph-name="hbar" unicode="&#x127;" horiz-adv-x="2906" 
d="M1143 2454h-58q-24 -229 -53 -486q134 153 302 239.5t354 86.5h53q174 0 313 -64q155 -73 225 -213q103 -203 103 -481q0 -82 -6 -162q-25 -445 -25 -846q0 -82 2 -125q0 -88 2 -133q0 -28 6 -256q-168 20 -241 27l-127 12q-96 9 -115 10q33 513 113 1309q6 39 6 125
q0 186 -55 307q-55 89 -145.5 136t-192.5 47q-120 0 -236.5 -50.5t-196.5 -140.5q-88 -101 -138.5 -233.5t-61.5 -272.5l-13 -174q-6 -86 -12 -174q-55 -684 -78 -881q-13 -1 -112 -10l-131 -12q-76 -7 -248 -27q234 1212 317 2439h-145q-96 -2 -270 -2q165 113 165 177
q0 52 -36 81l26 70l281 -2q12 232 16 354q51 -8 94 -10l109 -12q162 -18 203 -19l-25 -317h324q174 0 272 2q197 0 297 2q231 0 571 4q-85 -55 -131 -104q-47 -50 -47 -78q0 -54 156 -148q-177 0 -273 2q-99 0 -298.5 1.5t-296.5 1.5h-273h-270z" />
    <glyph glyph-name="Itilde" unicode="&#x128;" horiz-adv-x="1452" 
d="M989 4280l94 -104q124 -127 303 -127q147 0 236 117q56 73 131 262v-2q7 19 47 110l25 60q12 27 22 47h-26h-39q-14 -2 -41 -2h-29h-82q-31 -2 -82 -2q-24 -60 -28 -72q-15 -35 -19 -47q-20 -51 -34.5 -81.5t-43 -62.5t-63.5 -40q-49 7 -105 67l-100 107
q-127 127 -301 127q-88 0 -168 -56t-127 -153q-31 -63 -65 -160q-6 -14 -5 -14q5 0 7 2q2 0 2 -4l-11 -25q-11 -25 -30 -65l-62 -121h35h49q33 0 49 2h39q22 0 127 6q29 65 45 113v-3q25 74 56 117q41 62 84 72q49 -7 110 -68zM752 3004l-54 -32q-152 -1610 -325 -2982
q177 86 278 86q106 0 250 -84q49 884 100 1528q56 747 125 1525q-145 -65 -233 -65q-60 0 -141 24z" />
    <glyph glyph-name="itilde" unicode="&#x129;" horiz-adv-x="1298" 
d="M614 3570l95 -105q124 -127 303 -127q146 0 235 117q56 73 131 262v-2q9 25 47 111l25 59q4 9 23 47h-27h-39q-14 -2 -41 -2h-29h-82q-31 -2 -81 -2q-5 -13 -12 -30t-11 -27l-6 -15q-15 -35 -19 -47q-20 -51 -34.5 -81.5t-43 -62.5t-63.5 -40q-47 7 -104 68l-101 106
q-127 127 -301 127q-88 0 -168 -56t-127 -153q-31 -63 -65 -160q-6 -14 -4 -14q4 0 6 2q2 0 2 -4q-1 -1 -2 -4t-3.5 -9t-4.5 -12q-3 -7 -31 -65l-62 -121h35h49q34 0 50 2h39q21 0 126 6q33 72 46 113v-2q26 77 55 117q40 61 84 71q50 -7 110 -67zM602 2267l-61 -31
q-71 -1065 -201 -2246q139 71 219 71q77 0 189 -69q36 524 92 1157q56 635 112 1155q-137 -76 -219 -76q-75 0 -131 39z" />
    <glyph glyph-name="Imacron" unicode="&#x12a;" horiz-adv-x="1452" 
d="M387 3813l-35 -59q21 -41 21 -86q0 -69 -88 -188q100 0 157 2q56 0 171 1t173 1h156h156q56 0 170 -1t170 -1q55 -2 155 -2q-63 91 -63 143q0 66 90 192q-196 -4 -328 -4q-59 -2 -172 -2q-57 -2 -157 -2q-291 0 -576 6zM752 3004l-54 -32q-152 -1610 -325 -2982
q177 86 278 86q106 0 250 -84q49 884 100 1528q56 747 125 1525q-145 -65 -233 -65q-60 0 -141 24z" />
    <glyph glyph-name="imacron" unicode="&#x12b;" horiz-adv-x="1298" 
d="M12 3103l-35 -60q21 -41 21 -86q0 -69 -88 -188q101 0 158 2q56 0 171 1t173 1h155h156q57 0 170 -1t170 -1q55 -2 156 -2q-64 93 -64 143q0 67 90 193q-196 -4 -327 -4q-59 -2 -173 -2q-57 -2 -157 -2q-291 0 -576 6zM602 2267l-61 -31q-71 -1065 -201 -2246
q139 71 219 71q77 0 189 -69q36 524 92 1157q56 635 112 1155q-137 -76 -219 -76q-75 0 -131 39z" />
    <glyph glyph-name="Iogonek" unicode="&#x12e;" horiz-adv-x="1452" 
d="M662 -289q0 -56 42.5 -90.5t104.5 -34.5q133 0 287 70v-47q-2 -20 -2 -62q-2 -20 -2 -59q-2 -20 -2 -49q0 -13 2 -17v-16v-63q-179 -31 -289 -31q-11 0 -15 2h-16q-63 4 -98 7.5t-87 14.5t-93 29q-140 76 -140 256q0 123 78 275q42 77 107 161q-78 -22 -166 -67
q173 1372 325 2982l54 32q81 -24 141 -24q88 0 233 65q-69 -778 -125 -1525q-51 -644 -100 -1528q-43 25 -78 41q-29 -38 -86 -125q-75 -122 -75 -197z" />
    <glyph glyph-name="iogonek" unicode="&#x12f;" horiz-adv-x="1298" 
d="M326 2703q47 214 47 344v17q-2 6 -2 16v35l43 39q79 -8 180 -8q63 0 235 14q-47 -220 -47 -360v-27v-12q0 -15 2 -21v-22v-15q-7 1 -23 2t-24 2q-30 0 -57 3q-78 4 -107 4q-32 0 -122 -4q-34 -3 -68 -3q-10 -1 -29 -2t-28 -2zM682 -426q133 0 287 70v-47q-2 -20 -2 -62
q-2 -20 -2 -59q-2 -20 -2 -49q0 -13 2 -17v-16v-64q-173 -30 -289 -30q-10 0 -14 2h-17q-63 4 -98 7.5t-87 14.5t-93 29q-140 76 -140 256q0 122 78 274q40 76 82 129l-47 -22q130 1181 201 2246l61 31q56 -39 131 -39q82 0 219 76q-56 -520 -112 -1155q-57 -656 -84 -1051
h2l-4 -4l-6 -102q-9 6 -28 16t-22 12q-60 -79 -88 -124q-75 -122 -75 -197q0 -56 42.5 -90.5t104.5 -34.5z" />
    <glyph glyph-name="Idotaccent" unicode="&#x130;" horiz-adv-x="1488" 
d="M862 3748v-51q0 -148 -41 -359q8 1 27.5 2t28.5 2q42 0 65 2q90 4 121 4q120 0 215 -10q-6 75 -6 119q0 148 45 338q-154 -16 -236 -16q-78 0 -176 10zM788 3004l-53 -32q-152 -1610 -325 -2982q177 86 278 86q106 0 250 -84q49 884 100 1528q56 747 125 1525
q-145 -65 -233 -65q-61 0 -142 24z" />
    <glyph glyph-name="dotlessi" unicode="&#x131;" horiz-adv-x="1298" 
d="M602 2267l-61 -31q-71 -1065 -201 -2246q139 71 219 71q77 0 189 -69q36 524 92 1157q56 635 112 1155q-137 -76 -219 -76q-75 0 -131 39z" />
    <glyph glyph-name="IJ" unicode="&#x132;" horiz-adv-x="3180" 
d="M752 3004l-54 -32q-152 -1610 -325 -2982q177 86 278 86q106 0 250 -84q49 884 100 1528q56 747 125 1525q-145 -65 -233 -65q-60 0 -141 24zM2601 2976l-39 -35q-46 -320 -98.5 -717.5t-78.5 -600.5t-94 -753t-79 -641v2q-24 -163 -191 -262q-128 -75 -323 -104l-205 16
q0 -1 -3.5 -37t-4.5 -59l-10 -96q-35 -345 -60 -512l64 6q11 1 34.5 4t36.5 4q82 10 136 10l102 19q194 31 309 69q171 56 287 154q141 141 201 348q36 122 65 385q180 1623 385 2851q-181 -39 -434 -51z" />
    <glyph glyph-name="ij" unicode="&#x133;" horiz-adv-x="2869" 
d="M696 2877l-26 -225q90 -67 188 -67q92 0 203 57q1 19 4 65t4 72t4 72t4 65q0 31 2 54q1 12 2 34.5t2 34.5q1 21 2.5 44t3.5 46t3 31q-127 -86 -197 -86q-62 0 -109 35l-65 -25zM2406 3068l-36 -33q-13 -82 -27 -182q-5 -35 -29 -184l-14 -97q242 24 405 68l7 84
q3 50 6 84q4 85 12 170q1 16 4 45t4 45l6 78q-157 -52 -338 -78zM707 2259l-54 -33q-60 -655 -108 -1126q-81 -794 -119 -1129q140 107 221 107q72 0 187 -103q64 919 81 1153q48 645 91 1149q-119 -36 -187 -36q-53 0 -112 18zM2243 2214l-39 -33q-33 -233 -78 -567
q-73 -548 -76 -570q-28 -206 -51 -389q-9 -65 -26.5 -194t-26.5 -193q0 -6 -2 -10q-2 -6 -2 -14q-17 -123 -33 -181q-29 -105 -74 -161q-54 -50 -130.5 -75t-182.5 -42l-121 -25q-6 -47 -51 -366l-33 -236q68 23 94 31q57 17 137 33q26 3 58 10q177 34 254 63
q137 52 233 136q106 103 162 274q33 106 53 303q103 950 275 2237q-219 -28 -340 -31z" />
    <glyph glyph-name="Kcommaaccent" unicode="&#x136;" horiz-adv-x="3395" 
d="M748 3029l-46 -39q-27 -1466 -346 -2976q235 23 287 27q53 2 150 10q28 1 73.5 4t59.5 4q62 664 90 1344q236 -402 401 -670q231 -379 420 -659q474 -9 1012 -66q-344 371 -668 733q-112 125 -338 376t-330 368q-9 12 -59 69q-42 49 -59 70l497 436q36 31 217.5 190.5
t278.5 243.5l618 539l-219 -14q-149 -12 -372 -23q-138 -120 -193 -166l-192 -168q-493 -420 -979 -856q25 226 55 596q32 441 39 596q-223 11 -397 31zM1217 -147l-41 -37q-10 -166 -27 -387l-47 -123q-73 -180 -113 -275q-18 -44 -39 -91.5t-45 -101.5t-35 -79q2 0 27 3.5
t41 4.5q99 11 168 16q60 4 65 5q96 113 205 254q187 242 199 258l86 120q2 15 33 228q26 176 37 229q-225 -27 -394 -27h-61q-29 0 -59 3z" />
    <glyph glyph-name="kcommaaccent" unicode="&#x137;" horiz-adv-x="3024" 
d="M768 3123l-45 -37q-50 -1528 -352 -3072q193 21 268 27l141 12q96 9 123 10q1 21 10 134q1 29 4.5 73.5t4.5 57.5l24 356q12 172 21 352q56 -80 178 -252q139 -194 342 -465q143 -190 184 -245q359 -9 807 -68q-54 59 -157.5 174t-194 214.5t-172.5 187.5
q-91 98 -272 289.5t-265 281.5l-74 76l267 301q30 35 153 176l164 186q80 88 320 361q-33 -2 -115 -2q-22 -1 -67 -2t-68 -2q-184 -4 -250 -4q-73 -76 -206.5 -219.5t-166.5 -178.5l-370 -401q45 414 75 823q26 343 49 823q-180 10 -360 33zM909 -147l-41 -37
q-14 -232 -26 -387l-47 -123q-73 -180 -113 -275l-119 -272q2 0 27 3.5t41 4.5q99 11 168 16q60 4 65 5q96 113 205 254q187 242 199 258l86 120q7 54 32 228q26 176 37 229q-225 -27 -393 -27h-61q-30 0 -60 3z" />
    <glyph glyph-name="Lacute" unicode="&#x139;" horiz-adv-x="2822" 
d="M1642 4758l-28 -13q-146 -166 -279 -332q-139 -168 -221 -262q-181 -203 -231 -256l92 6q14 1 51.5 3.5t58.5 3.5q114 6 203 6q149 142 371 383l110 116q21 22 63.5 66t63.5 66q138 138 246 237q-66 -6 -250 -14l-135 -6q-86 -4 -115 -4zM750 3033l-48 -37
q-39 -1528 -307 -2982q520 62 977 62q436 0 907 -53q8 128 25 327q6 85 31 326q-461 39 -895 39q-219 0 -492 -10q129 1034 193 2289q-178 7 -391 39z" />
    <glyph glyph-name="lacute" unicode="&#x13a;" horiz-adv-x="1632" 
d="M1419 4758l-28 -13q-146 -166 -279 -332q-139 -168 -221 -262q-164 -184 -232 -256l93 6q14 1 51.5 3.5t58.5 3.5q114 6 203 6q149 142 371 383l110 116q21 22 63.5 66t63.5 66q138 138 246 237q-66 -6 -250 -14l-135 -6q-86 -4 -115 -4zM776 3113l-55 -31
q-133 -1683 -311 -3084q218 80 352 80q142 0 321 -78l7 117q1 21 4 65.5t4 67.5q12 180 18 248q-125 42 -233 51q140 1658 223 2531q-66 -4 -70 -4q-14 -2 -39 -2q-135 0 -221 39z" />
    <glyph glyph-name="Lcommaaccent" unicode="&#x13b;" horiz-adv-x="2822" 
d="M750 3033l-48 -37q-39 -1528 -307 -2982q520 62 977 62q436 0 907 -53q8 128 25 327q6 85 31 326q-461 39 -895 39q-219 0 -492 -10q129 1034 193 2289q-178 7 -391 39zM958 -147l-40 -37q-10 -167 -27 -387l-47 -123q-73 -180 -113 -275l-119 -272q2 0 27 3.5t41 4.5
q99 11 168 16q60 4 65 5q96 113 205 254q187 242 199 258l86 120q2 15 33 228q26 176 37 229q-225 -27 -394 -27h-61q-30 0 -60 3z" />
    <glyph glyph-name="lcommaaccent" unicode="&#x13c;" horiz-adv-x="1632" 
d="M776 3113l-55 -31q-133 -1683 -311 -3084q218 80 352 80q142 0 321 -78l7 117q1 21 4 65.5t4 67.5q12 180 18 248q-125 42 -233 51q140 1658 223 2531q-66 -4 -70 -4q-14 -2 -39 -2q-135 0 -221 39zM319 -147l-40 -37q-10 -167 -27 -387l-47 -123q-73 -180 -113 -275
q-18 -44 -39 -91.5t-45 -101.5t-35 -79q2 0 27 3.5t41 4.5q99 11 168 16q60 4 65 5q96 113 205 254q187 242 199 258l86 120q2 15 33 228q26 176 37 229q-225 -27 -394 -27h-61q-30 0 -60 3z" />
    <glyph glyph-name="Lcaron" unicode="&#x13d;" horiz-adv-x="2822" 
d="M1991 3492l-41 -39q-1 -29 -11 -166l-12 -168l-39 -127q-20 -61 -64.5 -185.5t-54.5 -152.5q-76 -206 -129 -336l111 17q98 10 139 12q33 0 49 2q17 0 31 2h29q54 84 143 234l225 383q43 76 87 147q10 73 14 96q5 41 17 121t14 92q5 31 14 94q-190 -28 -387 -28h-68
q-44 0 -67 2zM750 3033l-48 -37q-39 -1528 -307 -2982q520 62 977 62q436 0 907 -53q8 128 25 327q6 85 31 326q-461 39 -895 39q-219 0 -492 -10q129 1034 193 2289q-178 7 -391 39z" />
    <glyph glyph-name="lcaron" unicode="&#x13e;" horiz-adv-x="1632" 
d="M1673 3590l-41 -39q-2 -57 -10 -166l-12 -168l-39 -127q-20 -60 -63.5 -181t-55.5 -156q-76 -206 -129 -336l111 16q98 10 139 12q33 0 49 2q17 0 31 2h28q71 111 144 234l225 383q55 97 86 147q11 78 14 97q5 41 17 121t14 92q5 31 14 94q-197 -29 -387 -29h-67
q-45 0 -68 2zM776 3113l-55 -31q-133 -1683 -311 -3084q218 80 352 80q142 0 321 -78l7 117q1 21 4 65.5t4 67.5q12 180 18 248q-125 42 -233 51q140 1658 223 2531q-66 -4 -70 -4q-14 -2 -39 -2q-135 0 -221 39z" />
    <glyph glyph-name="Ldot" unicode="&#x13f;" horiz-adv-x="2822" 
d="M750 3033l-48 -37q-39 -1528 -307 -2982q520 62 977 62q436 0 907 -53q8 128 25 327q6 85 31 326q-461 39 -895 39q-219 0 -492 -10q129 1034 193 2289q-178 7 -391 39zM1579 2015l-45 -39q0 -246 -53 -514q173 15 243 15q77 0 230 -13q0 297 55 557q-121 -16 -246 -16
q-105 0 -184 10z" />
    <glyph glyph-name="ldot" unicode="&#x140;" horiz-adv-x="1632" 
d="M776 3113l-55 -31q-133 -1683 -311 -3084q218 80 352 80q142 0 321 -78l7 117q1 21 4 65.5t4 67.5q12 180 18 248q-125 42 -233 51q140 1658 223 2531q-66 -4 -70 -4q-14 -2 -39 -2q-135 0 -221 39zM1278 1989l-45 -39q0 -246 -53 -514q161 14 243 14q89 0 230 -12
q0 297 55 557q-129 -17 -246 -17q-97 0 -184 11z" />
    <glyph glyph-name="Lslash" unicode="&#x141;" horiz-adv-x="3053" 
d="M903 2998l-43 -41q-23 -812 -84 -1448l-227 -157q-95 -65 -230 -162q40 -56 66 -113q6 -13 35 -59q12 -23 43 -74l37 25q24 17 84 61q66 49 98 70q22 17 59 43q-56 -536 -137 -1090q391 23 760 23q540 0 1145 -60q-4 98 -4 193v94q-2 37 -2 94q-568 47 -1137 47
q-90 0 -135 2q-90 0 -135 -2q4 37 13.5 123.5t14.5 132.5q41 424 47 490q0 5 23 254l156 104l153 105l486 327l-78 121l-78 125q-10 -6 -33.5 -22t-38.5 -25q-13 -9 -40.5 -26.5t-41.5 -26.5l-80 -55q-6 -4 -75 -52l-297 -196q34 386 82 1161q-179 3 -406 14z" />
    <glyph glyph-name="lslash" unicode="&#x142;" horiz-adv-x="1693" 
d="M911 3078l-43 -37q-58 -807 -108 -1364l-90 -61h2l-154 -107q-13 -10 -71 -50t-85 -60l56 -99q38 -59 82 -145q24 16 112 78q32 23 119 84q-25 -296 -57 -623l-31 -307q-5 -50 -16.5 -155t-16.5 -160q177 6 221 6q40 0 187 -6q60 904 119 1525q212 143 409 289l-57 88
q-56 88 -84 148l-197 -142l-39 -26q13 153 27 287q3 34 53 557q6 52 15.5 150t13.5 134q-73 -8 -207 -8h-80q-26 0 -80 4z" />
    <glyph glyph-name="Nacute" unicode="&#x143;" horiz-adv-x="3233" 
d="M1536 3908l-111 -7q-52 -3 -92 -6q68 72 232 256q82 94 221 262q143 178 278 332l29 13q29 0 115 4l135 6q184 8 250 14q-108 -99 -246 -237l-127 -132q-16 -16 -54 -56l-57 -60q-229 -249 -370 -383q-89 0 -203 -6zM2953 3045q-268 -1458 -268 -2752q0 -117 4 -277
q-171 19 -307 29q-79 6 -307 21q-248 499 -629 1382q-80 189 -209 500q-118 281 -215 493q-9 -1154 -123 -2382l-60 -4t-71 -4q-92 -8 -145 -10q-55 -4 -281 -27q304 1422 346 2917l45 39q151 -19 381 -33q31 0 51 -2t52 -2q36 -71 71.5 -142.5t75 -154.5t67.5 -142t73 -157
t66 -144t71 -158t64 -144t69.5 -157t64.5 -145q15 -35 50.5 -113t52.5 -118q152 -340 188 -416q18 -40 55 -118t53 -113q90 1200 299 2295q44 3 97 9q33 2 112 10q39 2 113 10q76 9 94 10z" />
    <glyph glyph-name="nacute" unicode="&#x144;" horiz-adv-x="2879" 
d="M1829 4047l-29 -12q-135 -154 -278 -332q-119 -143 -222 -262q-181 -203 -231 -256l92 6q53 3 111 6q114 6 203 6q141 134 370 383l111 117q21 22 63.5 65.5t63.5 65.5q138 138 246 237q-66 -6 -250 -14l-135 -6q-86 -4 -115 -4zM2331 1372q4 98 4 150q0 285 -92 489
q-73 141 -230 211q-146 64 -315 64q-202 0 -384.5 -67.5t-369.5 -197.5v23q0 6 2 8q0 4 2 6v23l4 180l-92 6q-18 1 -53.5 4t-52.5 4q-127 10 -201 19q-15 -1182 -264 -2280l129 13q36 2 137 8.5t154 9.5q26 1 69.5 4t59.5 4q67 635 88 1250v-3q26 317 182 486q84 91 231 137
q114 33 263 33q96 0 165 -31q86 -42 127 -117v2q45 -103 45 -249q0 -77 -8 -140v2q-2 -6 -2 -20v-21q-112 -736 -155 -1329q83 -2 282 -14q267 -22 279 -23q-31 355 -31 641q0 310 27 715z" />
    <glyph glyph-name="Ncommaaccent" unicode="&#x145;" horiz-adv-x="3233" 
d="M2953 3045q-268 -1458 -268 -2752q0 -117 4 -277q-171 19 -307 29q-79 6 -307 21q-248 499 -629 1382q-80 189 -209 500q-118 281 -215 493q-9 -1154 -123 -2382l-60 -4t-71 -4q-92 -8 -145 -10q-55 -4 -281 -27q304 1422 346 2917l45 39q151 -19 381 -33q31 0 51 -2
t52 -2q36 -71 71.5 -142.5t75 -154.5t67.5 -142t73 -157t66 -144t71 -158t64 -144t69.5 -157t64.5 -145q15 -35 50.5 -113t52.5 -118q152 -340 188 -416q18 -40 55 -118t53 -113q90 1200 299 2295q44 3 97 9q33 2 112 10q39 2 113 10q76 9 94 10zM1352 -150h61q168 0 393 27
q-11 -53 -37 -229q-25 -174 -32 -228l-86 -120q-12 -16 -199 -258q-109 -141 -205 -254q-5 -1 -65 -5q-69 -5 -168 -16q-16 -1 -41 -4.5t-27 -3.5l119 272q40 95 113 275l47 123q12 155 26 387l41 37q30 -3 60 -3z" />
    <glyph glyph-name="ncommaaccent" unicode="&#x146;" horiz-adv-x="2879" 
d="M2331 1372q4 98 4 150q0 285 -92 489q-73 141 -230 211q-146 64 -315 64q-202 0 -384.5 -67.5t-369.5 -197.5v23q0 6 2 8q0 4 2 6v23l4 180l-92 6q-18 1 -53.5 4t-52.5 4q-127 10 -201 19q-15 -1182 -264 -2280l129 13q36 2 137 8.5t154 9.5q26 1 69.5 4t59.5 4
q67 635 88 1250v-3q26 317 182 486q84 91 231 137q114 33 263 33q96 0 165 -31q86 -42 127 -117v2q45 -103 45 -249q0 -77 -8 -140v2q-2 -6 -2 -20v-21q-112 -736 -155 -1329q83 -2 282 -14q267 -22 279 -23q-31 355 -31 641q0 310 27 715zM1028 -147l-41 -37
q-14 -232 -26 -387l-48 -123q-89 -221 -112 -275q-18 -44 -39 -91.5t-45 -101.5t-35 -79q2 0 27 3.5t41 4.5q99 11 168 16q60 4 65 5q96 113 205 254q153 198 198 258l87 120q7 54 32 228q26 176 37 229q-225 -27 -393 -27h-62q-29 0 -59 3z" />
    <glyph glyph-name="Ncaron" unicode="&#x147;" horiz-adv-x="3233" 
d="M1446 3260l-96 183q-64 122 -103 192.5t-111 184.5t-151 221q139 -7 168 -8q15 -1 45.5 -2.5t46.5 -2.5q29 -2 72 -2q36 -45 69 -90t67.5 -96.5t56 -85t61 -95.5t55.5 -87l2 -4l76 94q156 200 315 364l133 4h-2l220 13q-109 -116 -219 -253.5t-157.5 -203t-150.5 -211.5
q-8 -12 -36.5 -54.5t-41.5 -60.5h-319zM2953 3045q-268 -1458 -268 -2752q0 -117 4 -277q-171 19 -307 29q-79 6 -307 21q-248 499 -629 1382q-80 189 -209 500q-118 281 -215 493q-9 -1154 -123 -2382l-60 -4t-71 -4q-92 -8 -145 -10q-55 -4 -281 -27q304 1422 346 2917
l45 39q151 -19 381 -33q31 0 51 -2t52 -2q36 -71 71.5 -142.5t75 -154.5t67.5 -142t73 -157t66 -144t71 -158t64 -144t69.5 -157t64.5 -145q15 -35 50.5 -113t52.5 -118q152 -340 188 -416q18 -40 55 -118t53 -113q90 1200 299 2295q44 3 97 9q33 2 112 10q39 2 113 10
q76 9 94 10z" />
    <glyph glyph-name="ncaron" unicode="&#x148;" horiz-adv-x="2879" 
d="M1182 2550h319q13 18 42 61t36 53q195 275 298 404q111 139 228 264l-219 -12h2l-133 -4q-155 -160 -315 -365l-76 -94l-2 4q-11 17 -67.5 106.5t-80 124.5t-70.5 102t-91 122q-43 0 -72 2q-15 1 -45.5 2t-46.5 2q-29 1 -168 8q79 -107 151 -222t109.5 -183t103.5 -193z
M2331 1372q4 98 4 150q0 285 -92 489q-73 141 -230 211q-146 64 -315 64q-202 0 -384.5 -67.5t-369.5 -197.5v23q0 6 2 8q0 4 2 6v23l4 180l-92 6q-18 1 -53.5 4t-52.5 4q-127 10 -201 19q-15 -1182 -264 -2280l129 13q36 2 137 8.5t154 9.5q26 1 69.5 4t59.5 4
q67 635 88 1250v-3q26 317 182 486q84 91 231 137q114 33 263 33q96 0 165 -31q86 -42 127 -117v2q45 -103 45 -249q0 -77 -8 -140v2q-2 -6 -2 -20v-21q-112 -736 -155 -1329q83 -2 282 -14q267 -22 279 -23q-31 355 -31 641q0 310 27 715z" />
    <glyph glyph-name="Eng" unicode="&#x14a;" horiz-adv-x="3233" 
d="M2685 293q0 -117 4 -277h-8q0 -106 -40.5 -199t-113.5 -164t-162.5 -125t-199.5 -95q-83 -31 -254 -64q-32 -7 -58 -10q-80 -16 -137 -33q-26 -8 -94 -31l33 236q44 312 51 367l121 24q76 12 127 45t121 99q-248 499 -629 1382q-80 189 -209 500q-118 281 -215 493
q-9 -1154 -123 -2382l-60 -4t-71 -4q-92 -8 -145 -10q-55 -4 -281 -27q304 1422 346 2917l45 39q151 -19 381 -33q31 0 51 -2t52 -2q36 -71 71.5 -142.5t75 -154.5t67.5 -142t73 -157t66 -144t71 -158t64 -144t69.5 -157t64.5 -145q15 -35 50.5 -113t52.5 -118
q152 -340 188 -416q18 -40 55 -118t53 -113q90 1200 299 2295q44 3 97 9q33 2 112 10q39 2 113 10q76 9 94 10q-268 -1458 -268 -2752z" />
    <glyph glyph-name="eng" unicode="&#x14b;" horiz-adv-x="2879" 
d="M2331 53q8 -44 8 -110q0 -107 -39 -197t-111.5 -157.5t-159.5 -117.5t-198 -92q-77 -29 -254 -63q-33 -7 -57 -10q-83 -17 -138 -33q-26 -8 -94 -31l33 236q45 320 51 366l121 25q21 3 40.5 9t33 10.5t32 15.5t26.5 15.5t27.5 21.5t24.5 21t28 26t28 26l41 39
q43 593 155 1329v21q0 14 2 20v-2q8 63 8 140q0 146 -45 249v-2q-41 75 -127 117q-69 31 -165 31q-149 0 -263 -33q-147 -46 -231 -137q-156 -169 -182 -486v3q-21 -615 -88 -1250q-16 -1 -59.5 -4t-69.5 -4l-291 -18q-13 -1 -129 -13q249 1098 264 2280q74 -9 201 -19
q17 -1 52.5 -4t53.5 -4l92 -6l-4 -180v-23q-2 -2 -2 -6q-2 -2 -2 -8v-23q187 130 369.5 197.5t384.5 67.5q169 0 315 -64q157 -70 230 -211q92 -204 92 -489q0 -52 -4 -150q-27 -405 -27 -715q0 -281 27 -604z" />
    <glyph glyph-name="Omacron" unicode="&#x14c;" 
d="M1282 3813l-35 -59q21 -41 21 -86q0 -69 -88 -188q100 0 157 2q56 0 171 1t173 1h156h156q57 0 170 -1t170 -1q55 -2 155 -2q-63 91 -63 143q0 66 90 192q-196 -4 -328 -4q-59 -2 -172 -2q-57 -2 -157 -2q-291 0 -576 6zM1862 3031q-298 0 -549 -86q-285 -98 -477 -307h2
q-243 -254 -349 -662q-81 -311 -81 -710q0 -243 53 -451q61 -240 184 -401q153 -201 414 -301q239 -93 516 -93q303 0 559 84q284 93 487 308q232 265 340 659q91 328 91 713q0 251 -50 450q-59 231 -186 402q-152 202 -424 305q-237 90 -530 90zM1837 2673q191 0 355 -75.5
t264 -219.5v2q153 -248 153 -654q0 -240 -47 -415q-73 -263 -240 -369q-266 -143 -659 -143q-184 0 -332 28q-178 33 -305 113q-97 58 -139 190q-35 101 -35 252q0 270 66 514q79 291 235 476q119 150 311 229q175 72 373 72z" />
    <glyph glyph-name="omacron" unicode="&#x14d;" horiz-adv-x="2596" 
d="M834 3103l-35 -60q20 -39 20 -86q0 -69 -88 -188q101 0 158 2q56 0 171 1t173 1h156h155q56 0 170 -1t170 -1q55 -2 156 -2q-64 93 -64 143q0 67 90 193q-196 -4 -327 -4q-59 -2 -172 -2q-57 -2 -158 -2q-290 0 -575 6zM1401 2281q-211 0 -406 -69q-214 -75 -360 -219
q-173 -195 -254 -518q-62 -248 -62 -543q0 -402 170 -635v2q103 -153 314 -229q175 -64 393 -64q214 0 412 66q217 72 358 225q176 207 254 520q64 256 64 545q0 391 -170 627q-114 157 -316 231q-169 61 -397 61zM1378 1980q129 -2 237.5 -53t166.5 -147q100 -170 100 -441
q0 -185 -27 -307q-48 -206 -167 -287h2q-162 -94 -435 -94q-131 0 -233 18.5t-186 73.5l2 -2q-63 50 -86 127t-23 183q0 219 41 374q53 215 162 353q79 100 197 151t249 51z" />
    <glyph glyph-name="Ohungarumlaut" unicode="&#x150;" 
d="M2234 4026l-32 -14q-34 -42 -66.5 -87t-69 -101t-58.5 -91t-66 -106t-60 -96v2l-170 -273h215q49 0 103 -4q160 239 295.5 418t310.5 363h-119q-9 -1 -27.5 -2t-25.5 -2h2q-136 -7 -232 -7zM1563 4024l-35 -20q-105 -215 -212.5 -394.5t-258.5 -365.5q139 7 168 8
q61 0 92 2t74 2q133 157 350 484q40 60 43 65l51 76q23 36 96 141h-84h-100q-67 0 -98 2h-86zM1862 3031q-298 0 -549 -86q-285 -98 -477 -307h2q-243 -254 -349 -662q-81 -311 -81 -710q0 -243 53 -451q61 -240 184 -401q153 -201 414 -301q239 -93 516 -93q303 0 559 84
q284 93 487 308q232 265 340 659q91 328 91 713q0 251 -50 450q-59 231 -186 402q-152 202 -424 305q-237 90 -530 90zM1837 2673q191 0 355 -75.5t264 -219.5v2q153 -248 153 -654q0 -240 -47 -415q-73 -263 -240 -369q-266 -143 -659 -143q-184 0 -332 28
q-178 33 -305 113q-97 58 -139 190q-35 101 -35 252q0 270 66 514q79 291 235 476q119 150 311 229q175 72 373 72z" />
    <glyph glyph-name="ohungarumlaut" unicode="&#x151;" horiz-adv-x="2596" 
d="M1786 3316l-33 -15q-41 -52 -88.5 -120.5t-71.5 -106t-85.5 -136.5t-73.5 -118v2l-170 -272h215q48 0 102 -4q158 237 294 416.5t312 363.5h-119q-9 -1 -27.5 -2t-25.5 -2h2q-117 -6 -231 -6zM1114 3314l-35 -21q-105 -215 -212.5 -394.5t-258.5 -365.5q12 1 43 3
t63.5 3.5t61.5 2.5q61 0 92 2t74 2q136 160 350 483q35 52 43 66l51 75q19 29 97 142h-84h-101q-67 0 -98 2h-86zM1401 2281q-211 0 -406 -69q-214 -75 -360 -219q-173 -195 -254 -518q-62 -248 -62 -543q0 -402 170 -635v2q103 -153 314 -229q175 -64 393 -64q214 0 412 66
q217 72 358 225q176 207 254 520q64 256 64 545q0 391 -170 627q-114 157 -316 231q-169 61 -397 61zM1378 1980q129 -2 237.5 -53t166.5 -147q100 -170 100 -441q0 -185 -27 -307q-48 -206 -167 -287h2q-162 -94 -435 -94q-131 0 -233 18.5t-186 73.5l2 -2q-63 50 -86 127
t-23 183q0 219 41 374q53 215 162 353q79 100 197 151t249 51z" />
    <glyph glyph-name="OE" unicode="&#x152;" horiz-adv-x="4636" 
d="M4305 2988l-39 49q-871 -57 -1948 -57q-150 0 -247 -2t-236.5 -13.5t-257.5 -33.5q-428 -83 -721 -322q-251 -224 -364 -627q-86 -308 -86 -686q0 -271 63 -477q76 -249 246 -416q223 -195 579 -270q270 -57 654 -57q1248 0 2144 -60q-32 262 -43 602q-465 23 -1446 35
q8 160 14 236q12 182 37 450q3 35 10.5 113.5t10.5 120.5l1364 6q1 10 10 86q2 31 10 102l12 101q2 26 11 84q-292 -8 -686 -8q-59 -1 -176 -2.5t-175 -2.5q-117 -2 -338 -2l19 193q3 31 10 92t10 92q21 209 41 375q845 10 1459 49l28 125q10 48 31 125zM2124 2687h229
q-46 -503 -47 -512q-7 -90 -22.5 -258.5t-22.5 -245.5q-55 -599 -88 -1016h-229q-274 0 -469 50q-256 66 -400 210q-106 106 -166.5 246t-60.5 291q0 26 4 76q25 279 90 479q86 267 248 418q178 142 448 209q220 53 486 53z" />
    <glyph glyph-name="oe" unicode="&#x153;" horiz-adv-x="4280" 
d="M3842 1815q51 -122 51 -232v-29q-2 -10 -2 -28v-2l-6 -37q-1 -7 -2 -20t-2 -19l-12 -113q-877 -10 -1569 -10v-45q-4 -66 -4 -113v-67q0 -169 26 -283q33 -146 119 -237l-6 4q188 -133 547 -133q382 0 758 198v-108q0 -180 22 -398q-387 -149 -760 -149q-313 0 -548 88
q-275 103 -429 324q-171 -210 -413 -310q-235 -100 -502 -100q-210 0 -365 67q-185 75 -276 232v-2q-143 216 -143 598q0 324 49 559q71 342 237 549q130 157 322 227q172 64 379 64q266 0 477 -99q233 -109 352 -315q178 202 449 313q250 103 526 103q188 0 350 -64
q169 -68 264 -213q74 -113 111 -200zM2345 1618q527 0 956 8l213 2q0 53 -32 137q-20 52 -68 125q-59 73 -152 114.5t-192 41.5q-142 0 -276.5 -42t-235.5 -128q-161 -141 -213 -258zM1843 1028q49 165 49 328q0 259 -118 448l2 -2q-75 97 -186 150t-238 53h-21
q-123 0 -232.5 -48t-180.5 -142q-104 -135 -146 -336q-33 -150 -33 -357q0 -250 97 -411q56 -90 154 -137.5t214 -47.5q140 0 263.5 49.5t213.5 149.5q106 126 162 303z" />
    <glyph glyph-name="Racute" unicode="&#x154;" horiz-adv-x="3377" 
d="M1446 3908l-111 -7q-52 -3 -92 -6q68 72 232 256q82 94 221 262q143 178 278 332l29 13q29 0 115 4l135 6q184 8 250 14q-108 -99 -246 -237l-127 -132q-16 -16 -54 -56l-57 -60q-229 -249 -370 -383q-89 0 -203 -6zM2630 442q20 -44 64 -139.5t76 -163.5t62 -127
q-142 16 -307 31q-62 4 -170 11t-141 9q-137 374 -260 762l2 -4q-55 130 -107.5 221t-126.5 156l2 -2q-124 88 -335 88h-132q-82 0 -131 -2q-54 -560 -149 -1225q-71 -2 -264 -18q-156 -13 -267 -25q267 1449 267 2857v174q402 -52 925 -63q178 -5 324.5 -35t271.5 -102
q148 -102 217 -260q62 -144 62 -318q0 -258 -107 -481q-129 -261 -358 -352q122 -68 219 -217q50 -80 143 -279l27 -61l-2 2q73 -177 195 -437zM1358 1720h229q89 0 191.5 31t189.5 86q93 59 153 137t70 166q0 13 2 19v16q5 78 5 90q0 249 -136 344q-171 122 -397 125
q-40 1 -119 2t-119 2q-162 4 -243 10q-3 -99 -23 -512q-11 -239 -33 -514q76 -2 230 -2z" />
    <glyph glyph-name="racute" unicode="&#x155;" horiz-adv-x="1851" 
d="M1241 4047l-29 -12q-135 -154 -278 -332q-139 -168 -221 -262q-164 -184 -232 -256l92 6q53 3 111 6q114 6 203 6q141 134 370 383l111 117q21 22 63.5 65.5t63.5 65.5q138 138 246 237q-66 -6 -250 -14l-135 -6q-86 -4 -115 -4zM1653 1868l53 33q4 32 14.5 101t12.5 85
l28 186h-104q-145 0 -279 -32q-156 -37 -274 -107l-94 -53q-118 -66 -121 -68l12 205q-22 0 -45 2t-47 2q-171 14 -266 23q-88 -1176 -305 -2233q288 38 516 47q28 313 67 1084v-2q34 344 170 534q83 116 250 172q123 39 299 39q68 0 113 -18z" />
    <glyph glyph-name="Rcommaaccent" unicode="&#x156;" horiz-adv-x="3377" 
d="M2630 442q20 -44 64 -139.5t76 -163.5t62 -127q-142 16 -307 31q-62 4 -170 11t-141 9q-137 374 -260 762l2 -4q-55 130 -107.5 221t-126.5 156l2 -2q-124 88 -335 88h-132q-82 0 -131 -2q-54 -560 -149 -1225q-71 -2 -264 -18q-156 -13 -267 -25q267 1449 267 2857v174
q402 -52 925 -63q178 -5 324.5 -35t271.5 -102q148 -102 217 -260q62 -144 62 -318q0 -258 -107 -481q-129 -261 -358 -352q122 -68 219 -217q50 -80 143 -279l27 -61l-2 2q73 -177 195 -437zM1358 1720h229q89 0 191.5 31t189.5 86q93 59 153 137t70 166q0 13 2 19v16
q5 78 5 90q0 249 -136 344q-171 122 -397 125q-40 1 -119 2t-119 2q-162 4 -243 10q-3 -99 -23 -512q-11 -239 -33 -514q76 -2 230 -2zM1262 -150h61q168 0 393 27q-11 -53 -37 -229q-25 -174 -32 -228l-86 -120q-12 -16 -199 -258q-109 -141 -205 -254q-5 -1 -65 -5
q-69 -5 -168 -16q-16 -1 -41 -4.5t-27 -3.5q11 25 35 79t45 101.5t39 91.5q23 54 112 275l48 123q12 155 26 387l41 37q30 -3 60 -3z" />
    <glyph glyph-name="rcommaaccent" unicode="&#x157;" horiz-adv-x="1851" 
d="M1653 1868l53 33q4 32 14.5 101t12.5 85l28 186h-104q-145 0 -279 -32q-156 -37 -274 -107l-94 -53q-118 -66 -121 -68l12 205q-22 0 -45 2t-47 2q-171 14 -266 23q-88 -1176 -305 -2233q288 38 516 47q28 313 67 1084v-2q34 344 170 534q83 116 250 172q123 39 299 39
q68 0 113 -18zM440 -147l-41 -37q-14 -232 -26 -387l-47 -123q-73 -180 -113 -275q-18 -44 -39 -91.5t-45 -101.5t-35 -79q2 0 27 3.5t41 4.5q99 11 168 16q60 4 65 5q96 113 205 254q187 242 199 258l86 120q2 15 33 228q28 191 36 229q-225 -27 -393 -27h-61q-30 0 -60 3z
" />
    <glyph glyph-name="Rcaron" unicode="&#x158;" horiz-adv-x="3377" 
d="M1356 3260l-96 183q-64 122 -103 192.5t-111 184.5t-151 221q139 -7 168 -8q16 -1 46.5 -2.5t45.5 -2.5q29 -2 72 -2q36 -45 69 -90t67.5 -96.5t56 -85t61 -95.5t55.5 -87l2 -4l76 94q156 200 315 364l133 4h-2l219 13q-102 -109 -202.5 -233.5t-157 -201.5t-140.5 -196
q-17 -25 -26 -37q-8 -12 -36.5 -54.5t-41.5 -60.5h-319zM2630 442q20 -44 64 -139.5t76 -163.5t62 -127q-142 16 -307 31q-62 4 -170 11t-141 9q-137 374 -260 762l2 -4q-55 130 -107.5 221t-126.5 156l2 -2q-124 88 -335 88h-132q-82 0 -131 -2q-54 -560 -149 -1225
q-71 -2 -264 -18q-156 -13 -267 -25q267 1449 267 2857v174q402 -52 925 -63q178 -5 324.5 -35t271.5 -102q148 -102 217 -260q62 -144 62 -318q0 -258 -107 -481q-129 -261 -358 -352q122 -68 219 -217q50 -80 143 -279l27 -61l-2 2q73 -177 195 -437zM1358 1720h229
q89 0 191.5 31t189.5 86q93 59 153 137t70 166q0 13 2 19v16q5 78 5 90q0 249 -136 344q-171 122 -397 125q-40 1 -119 2t-119 2q-162 4 -243 10q-3 -99 -23 -512q-11 -239 -33 -514q76 -2 230 -2z" />
    <glyph glyph-name="rcaron" unicode="&#x159;" horiz-adv-x="1851" 
d="M594 2550h319q13 18 42 61t36 53q103 146 150.5 211.5t157.5 203t219 253.5l-220 -12h2l-133 -4q-155 -160 -315 -365l-76 -94l-2 4q-11 17 -67.5 106.5t-80 124.5t-70.5 102t-91 122q-43 0 -72 2q-15 1 -45.5 2t-46.5 2q-29 1 -168 8q79 -107 151 -221t111 -184.5
t103 -192.5zM1653 1868l53 33q4 32 14.5 101t12.5 85l28 186h-104q-145 0 -279 -32q-156 -37 -274 -107l-94 -53q-118 -66 -121 -68l12 205q-22 0 -45 2t-47 2q-171 14 -266 23q-88 -1176 -305 -2233q288 38 516 47q28 313 67 1084v-2q34 344 170 534q83 116 250 172
q123 39 299 39q68 0 113 -18z" />
    <glyph glyph-name="Sacute" unicode="&#x15a;" horiz-adv-x="2844" 
d="M2208 4835l-29 -12q-135 -154 -278 -332q-119 -143 -222 -262q-181 -203 -231 -256l92 6q52 3 111 6q133 7 202 7q149 142 371 383l111 116q21 22 63.5 65.5t63.5 65.5q161 161 245 238q-67 -6 -249 -14l-136 -7q-86 -4 -114 -4zM2476 2898l12 24q-411 109 -854 109
q-236 0 -401 -39q-229 -53 -381 -160q-161 -114 -236 -301q-65 -162 -65 -364q0 -323 160 -496q111 -113 278 -184q133 -56 322 -96l67 -15q275 -55 412 -119q240 -117 240 -296q0 -67 -62 -140q-47 -58 -127 -108q-195 -125 -506 -125q-462 0 -891 248q-4 -43 -11.5 -98
t-17.5 -126.5t-16 -113.5q-22 -151 -53 -338q456 -140 942 -140q275 4 443 37q255 50 436 170q164 118 239 326q60 167 60 389q0 186 -70 348q-78 174 -229 279q-84 58 -192 100.5t-185 61.5t-207 45l-121 24q-143 34 -213 58q-117 37 -192 96q-40 43 -61 107.5t-21 133.5
q0 243 205 377l-4 -2q193 103 477 103q359 0 796 -187q1 9 8.5 62.5t12.5 83.5l12 78q1 15 4.5 37.5t3.5 27.5l19 121z" />
    <glyph glyph-name="sacute" unicode="&#x15b;" horiz-adv-x="2385" 
d="M1931 4047l-28 -12q-146 -166 -279 -332q-139 -168 -221 -262q-164 -184 -232 -256l93 6q61 3 110 6q114 6 203 6q149 142 371 383l110 117q21 22 63.5 65.5t63.5 65.5q138 138 246 237q-66 -6 -250 -14l-135 -6q-86 -4 -115 -4zM2025 2187l-24 8q-266 86 -694 86
q-150 0 -279 -20t-268 -76q-170 -69 -256 -235q-78 -150 -78 -334q0 -247 119 -363q73 -71 215 -127q89 -38 237 -71l78 -19q141 -31 201 -49q124 -36 186 -86q63 -67 80 -151q13 -69 -30.5 -116.5t-120.5 -86.5q-110 -55 -269 -55h-22q-17 0 -27 2h-47q-348 0 -698 188
q-3 -26 -39 -287q-4 -22 -20.5 -131.5t-24.5 -157.5q400 -100 745 -100q221 0 365 27q205 38 350 129q132 81 205 237q59 132 59 299q0 245 -135 375q-89 86 -236 146q-78 30 -270 79l-39 11q-202 36 -321 92q-187 86 -187 239q0 184 174 273q135 69 340 69q375 0 674 -137
q5 36 8 49l9 58q13 81 18 106z" />
    <glyph glyph-name="Scedilla" unicode="&#x15e;" horiz-adv-x="2844" 
d="M2509 2896l-19 -121q0 -5 -3.5 -27.5t-4.5 -37.5l-12 -78q-5 -30 -12.5 -83.5t-8.5 -62.5q-437 187 -796 187q-284 0 -477 -103l4 2q-205 -134 -205 -377q0 -69 21 -133.5t61 -107.5q75 -59 192 -96q70 -24 213 -58l121 -24q130 -26 207 -45t185 -61.5t192 -100.5
q151 -105 229 -279q70 -162 70 -348q0 -222 -60 -389q-75 -208 -239 -326q-181 -120 -436 -170q-170 -33 -412 -37q35 -87 35 -184q0 -99 -41 -182q-48 -97 -131 -141q-139 -62 -355 -62q-160 0 -342 37q19 76 37 211l15 96q127 -67 272 -67h29q6 -2 20 -2q77 0 137 47
q62 49 62 123q0 62 -31 135q-353 28 -680 129q31 187 53 338q6 42 16 113.5t17.5 126.5t11.5 98q429 -248 891 -248q311 0 506 125q80 50 127 108q62 73 62 140q0 179 -240 296q-137 64 -412 119l-67 15q-189 40 -322 96q-167 71 -278 184q-160 173 -160 496q0 202 65 364
q75 187 236 301q152 107 381 160q165 39 401 39q443 0 854 -109l-12 -24z" />
    <glyph glyph-name="scedilla" unicode="&#x15f;" horiz-adv-x="2385" 
d="M2019 2169l-16 -111q-5 -25 -18 -106l-9 -58q-3 -13 -8 -49q-299 137 -674 137q-205 0 -340 -69q-174 -89 -174 -273q0 -153 187 -239q119 -56 321 -92l39 -11q192 -49 270 -79q147 -60 236 -146q135 -130 135 -375q0 -167 -59 -299q-73 -156 -205 -237
q-145 -91 -350 -129q-82 -15 -166 -21q31 -95 31 -176q0 -99 -41 -182q-48 -97 -131 -141q-139 -62 -355 -62q-160 0 -342 37q19 76 37 211l14 96q127 -67 273 -67h28q6 -2 21 -2q77 0 137 47q62 49 62 123q0 44 -21 112q-310 12 -657 98q8 48 24.5 157.5t20.5 131.5
q36 261 39 287q350 -188 698 -188h47q10 -2 27 -2h22q159 0 269 55q140 70 151 203q-3 4 -10 18l-37 70q-20 39 -39 63q-66 52 -180 86q-60 18 -201 49l-78 19q-148 33 -237 71q-142 56 -215 127q-119 116 -119 363q0 184 78 334q86 166 256 235q139 56 268 76t279 20
q428 0 694 -86l-33 -34z" />
    <glyph glyph-name="Scaron" unicode="&#x160;" horiz-adv-x="2844" 
d="M1561 3338h319q13 18 41.5 60.5t36.5 54.5q195 275 298 404q111 139 228 264l-219 -13h2l-133 -4q-159 -164 -315 -364l-76 -95l-2 5q-16 25 -55.5 87t-61 95.5t-56 85t-67.5 96.5t-69 90q-43 0 -72 2q-15 1 -45.5 2t-46.5 2q-29 1 -61.5 2.5t-63.5 3.5t-43 3
q79 -107 151 -222t109.5 -183t103.5 -193zM2476 2898l12 24q-411 109 -854 109q-236 0 -401 -39q-229 -53 -381 -160q-161 -114 -236 -301q-65 -162 -65 -364q0 -323 160 -496q111 -113 278 -184q133 -56 322 -96l67 -15q275 -55 412 -119q240 -117 240 -296q0 -67 -62 -140
q-47 -58 -127 -108q-195 -125 -506 -125q-462 0 -891 248q-4 -43 -11.5 -98t-17.5 -126.5t-16 -113.5q-22 -151 -53 -338q456 -140 942 -140q275 4 443 37q255 50 436 170q164 118 239 326q60 167 60 389q0 186 -70 348q-78 174 -229 279q-84 58 -192 100.5t-185 61.5
t-207 45l-121 24q-143 34 -213 58q-117 37 -192 96q-40 43 -61 107.5t-21 133.5q0 243 205 377l-4 -2q193 103 477 103q359 0 796 -187q1 9 8.5 62.5t12.5 83.5l12 78q1 15 4.5 37.5t3.5 27.5l19 121z" />
    <glyph glyph-name="scaron" unicode="&#x161;" horiz-adv-x="2385" 
d="M1284 2550h320q13 17 40.5 59.5t36.5 54.5q103 146 150.5 211.5t157.5 203t219 253.5l-219 -12h2l-133 -4q-160 -165 -316 -365l-76 -94l-2 4q-11 17 -67.5 106.5t-80 124.5t-70.5 102t-91 122q-43 0 -72 2q-15 1 -45.5 2t-46.5 2q-29 1 -168 8q79 -107 151 -221
t111 -184.5t103 -192.5zM2025 2187l-24 8q-266 86 -694 86q-150 0 -279 -20t-268 -76q-170 -69 -256 -235q-78 -150 -78 -334q0 -247 119 -363q73 -71 215 -127q89 -38 237 -71l78 -19q141 -31 201 -49q124 -36 186 -86q63 -67 80 -151q13 -69 -30.5 -116.5t-120.5 -86.5
q-110 -55 -269 -55h-22q-17 0 -27 2h-47q-348 0 -698 188q-3 -26 -39 -287q-4 -22 -20.5 -131.5t-24.5 -157.5q400 -100 745 -100q221 0 365 27q205 38 350 129q132 81 205 237q59 132 59 299q0 245 -135 375q-89 86 -236 146q-78 30 -270 79l-39 11q-202 36 -321 92
q-187 86 -187 239q0 184 174 273q135 69 340 69q375 0 674 -137q5 36 8 49l9 58q13 81 18 106z" />
    <glyph glyph-name="Tcedilla" unicode="&#x162;" horiz-adv-x="3184" 
d="M1950 2978q632 0 1323 65l-23 -135q-8 -51 -24 -125q-20 -93 -25 -125q-414 -16 -655 -16q-238 0 -371 6q-41 -609 -59 -883t-43.5 -767t-34.5 -881l14 -6q72 -103 114 -200.5t42 -203.5q0 -99 -41 -182q-48 -97 -131 -141q-139 -62 -355 -62q-160 0 -342 37
q19 76 37 211l15 96q127 -67 272 -67h29q6 -2 20 -2q77 0 137 47q62 49 62 123q0 78 -47 174q-20 45 -74 135h-16h-150h-45h-53q-18 -2 -56 -2h-45q191 1430 310 2572h-101q-148 -4 -219 -4h-100q-364 0 -606 18q0 140 -4 340l45 39q591 -61 1200 -61z" />
    <glyph glyph-name="tcedilla" unicode="&#x163;" horiz-adv-x="2297" 
d="M1395 629q214 -11 377 -31l-7 -139q-1 -25 -2 -76.5t-2 -77.5q-8 -208 -8 -293q-80 13 -168 25q-27 2 -82 10l27 -12q72 -103 114 -200.5t42 -203.5q0 -99 -41 -182q-47 -97 -132 -141q-139 -62 -354 -62q-160 0 -342 37q19 76 37 211l14 96q127 -67 273 -67h28
q6 -2 21 -2q77 0 137 47q62 49 62 123q0 76 -48 174q-33 67 -100 180h57q52 0 142 4h30q-30 3 -57 6l-53 6l-70 7q-203 18 -270 36q-154 39 -244 115q-127 127 -127 383q0 91 10 186q5 51 16.5 148t16.5 143q37 304 62 566q11 101 26 288q-192 14 -248 21q0 1 5 92l6 92v-2
l8 141l90 -12l80 -10q77 -8 82 -8q19 209 26 272q18 172 25 266q189 -18 381 -18l39 -43q-6 -49 -14 -137l-19 -140v2l-24 -213h34q88 0 228 7q19 1 59 2t59 2l111 6l-12 -142q-15 -116 -25 -176q-266 -12 -436 -12h-47q-3 -30 -10 -87t-12 -104t-9 -87q-5 -52 -16.5 -157
t-16.5 -157l-32 -315v-23q-2 -6 -2 -20q-5 -82 -5 -92q0 -131 43 -185l-4 6q22 -22 51.5 -36.5t74.5 -21.5t67 -9.5t78 -5.5z" />
    <glyph glyph-name="Tcaron" unicode="&#x164;" horiz-adv-x="3184" 
d="M1880 3260h320q13 17 40.5 59.5t36.5 55.5q103 146 150.5 211.5t157.5 203t219 253.5l-219 -13h2l-133 -4q-164 -169 -316 -364l-76 -94l-2 4q-16 25 -55.5 87t-61 95.5t-56 85t-67.5 96.5t-69 90q-43 0 -72 2q-16 1 -46.5 2.5t-45.5 2.5q-29 1 -168 8q79 -107 151 -221
t111 -184.5t103 -192.5zM750 3039l-45 -39q4 -200 4 -340q242 -18 606 -18h100q71 0 219 4h101q-119 -1142 -310 -2572h45q38 0 56 2h53h45h150q116 0 264 -4q8 397 32 882.5t45 809.5t60 884q133 -6 371 -6q241 0 655 16q5 32 25 125q16 74 24 125l23 135
q-691 -65 -1323 -65q-609 0 -1200 61z" />
    <glyph glyph-name="tcaron" unicode="&#x165;" horiz-adv-x="2297" 
d="M2071 3508l-41 -39q-1 -30 -11 -166l-12 -168l-39 -126q-20 -61 -64.5 -185.5t-54.5 -152.5q-76 -206 -129 -336l111 16q98 10 139 12q33 0 49 2q17 0 31 2h29q54 84 143 234l225 383q55 97 86 147q7 49 15 97q2 15 30 213q10 61 15 94q-197 -29 -387 -29h-68
q-44 0 -67 2zM1274 2724l-39 43q-192 0 -381 18q-7 -94 -25 -266q-7 -63 -26 -272q-5 0 -82 8l-80 10l-90 12l-8 -141v2l-6 -92q-5 -91 -5 -92q56 -7 248 -21q-15 -187 -26 -288q-25 -262 -62 -566q-5 -46 -16.5 -143t-16.5 -148q-10 -95 -10 -186q0 -256 127 -383
q90 -76 244 -115q67 -18 270 -36l70 -7l53 -6q10 -1 37.5 -4t44.5 -4q65 -8 90 -10q88 -12 168 -25q0 85 8 293q1 26 2 77.5t2 76.5l7 139q-163 20 -377 31q-56 3 -78 5.5t-67 9.5t-74.5 21.5t-51.5 36.5l4 -6q-43 54 -43 185q0 9 5 92q0 14 2 20v23q5 52 16 157.5t16 157.5
t16.5 157t16.5 157q4 40 9 87t12 104t10 87h47q170 0 436 12q10 60 25 176l12 142l-111 -6q-19 -1 -59 -2t-59 -2q-140 -7 -228 -7h-34l24 213v-2l19 140q8 88 14 137z" />
    <glyph glyph-name="Tbar" unicode="&#x166;" horiz-adv-x="3184" 
d="M1456 3813l-35 -59q21 -41 21 -86q0 -69 -88 -188q100 0 157 2q56 0 171 1t173 1h156h156q57 0 170 -1t170 -1q55 -2 155 -2q-63 91 -63 143q0 66 90 192q-196 -4 -328 -4q-59 -2 -172 -2q-57 -2 -157 -2q-291 0 -576 6zM750 3039l-45 -39q4 -200 4 -340q242 -18 606 -18
h100q71 0 219 4h101q-119 -1142 -310 -2572h45q38 0 56 2h53h45h150q116 0 264 -4q8 397 32 882.5t45 809.5t60 884q133 -6 371 -6q241 0 655 16q5 32 25 125q16 74 24 125l23 135q-691 -65 -1323 -65q-609 0 -1200 61z" />
    <glyph glyph-name="tbar" unicode="&#x167;" horiz-adv-x="2297" 
d="M571 3508l-34 -59q20 -39 20 -86q0 -70 -88 -189q101 0 158 2q56 0 171 1t173 1h155h156q56 0 170 -1t170 -1q55 -2 156 -2q-64 93 -64 144q0 66 90 192q-196 -4 -327 -4q-59 -2 -172 -2q-57 -2 -158 -2q-291 0 -576 6zM1274 2724l-39 43q-192 0 -381 18q-7 -94 -25 -266
q-7 -63 -26 -272q-5 0 -82 8l-80 10l-90 12l-8 -141v2l-6 -92q-5 -91 -5 -92q56 -7 248 -21q-15 -187 -26 -288q-25 -262 -62 -566q-5 -46 -16.5 -143t-16.5 -148q-10 -95 -10 -186q0 -256 127 -383q90 -76 244 -115q67 -18 270 -36l70 -7l53 -6q10 -1 37.5 -4t44.5 -4
q65 -8 90 -10q88 -12 168 -25q0 85 8 293q1 26 2 77.5t2 76.5l7 139q-163 20 -377 31q-56 3 -78 5.5t-67 9.5t-74.5 21.5t-51.5 36.5l4 -6q-43 54 -43 185q0 9 5 92q0 14 2 20v23q5 52 16 157.5t16 157.5t16.5 157t16.5 157q4 40 9 87t12 104t10 87h47q170 0 436 12
q10 60 25 176l12 142l-111 -6q-19 -1 -59 -2t-59 -2q-140 -7 -228 -7h-34l24 213v-2l19 140q8 88 14 137z" />
    <glyph glyph-name="Utilde" unicode="&#x168;" horiz-adv-x="3119" 
d="M1831 4280l94 -104q124 -127 303 -127q147 0 236 117q56 73 131 262v-2q7 19 47 110l24 60q4 9 23 47h-27h-39q-14 -2 -40 -2h-29h-82q-31 -2 -82 -2q-5 -13 -12 -30t-11 -27l-6 -15q-10 -24 -18 -47q-20 -51 -34.5 -81.5t-43 -62.5t-63.5 -40q-49 7 -105 67l-100 107
q-127 127 -301 127q-88 0 -168 -56t-127 -153q-34 -70 -66 -160q-4 -10 -4.5 -10.5t0.5 -3.5q4 0 6 2q2 0 2 -4q-1 -1 -2 -4t-3.5 -9t-4.5 -12q-3 -7 -31 -65l-61 -121h35h49q33 0 49 2h39q22 0 127 6q29 65 45 113v-3q26 77 55 117q41 62 84 72q50 -7 111 -68zM702 2998
v-141q0 -772 -92 -1694q-14 -147 -14 -260q0 -190 41 -330q52 -181 158 -301q136 -144 372 -206q183 -48 441 -48q256 0 456 54q248 67 424 235q155 167 228 404q57 184 75 444q82 1075 242 1886l-156 -14q-153 -17 -294 -27q-38 -229 -56 -368q-57 -417 -92 -768
q-23 -215 -39 -373q-18 -203 -59 -346q-53 -186 -150 -314q-88 -99 -245 -147q-126 -39 -289 -39q-166 0 -283 35q-148 45 -219 147h2q-104 155 -104 441q0 93 10 213q71 859 84 1515q-160 10 -395 41z" />
    <glyph glyph-name="utilde" unicode="&#x169;" horiz-adv-x="2770" 
d="M1528 3570l94 -105q124 -127 303 -127q147 0 236 117q56 73 131 262v-2q9 25 47 111l24 59q4 9 23 47h-27h-39q-14 -2 -41 -2h-28h-82q-31 -2 -82 -2q-5 -13 -12 -30t-11 -27l-6 -15q-10 -24 -18 -47q-20 -51 -35 -81.5t-43.5 -62.5t-63.5 -40q-47 7 -104 68l-100 106
q-127 127 -301 127q-88 0 -168 -56t-127 -153q-34 -70 -66 -160q-6 -14 -4 -14q4 0 6 2q2 0 2 -4q-1 -1 -2 -4t-3.5 -9t-4.5 -12q-3 -7 -31 -65l-61 -121h35h49q33 0 49 2h39q22 0 127 6q29 65 45 113v-2q26 77 55 117q40 61 84 71q52 -8 111 -67zM489 918
q-10 -113 -10 -209q0 -246 82 -437q74 -142 238 -209q139 -61 321 -61h54q188 0 364.5 87.5t308.5 238.5q-4 -36 -22 -281q14 -1 45 -2t47 -2q86 -5 217 -16l92 -7q3 1116 250 2261q-70 -8 -235 -20q-140 -13 -238 -16q-99 -583 -137 -934v2q-48 -309 -209 -488v2
q-163 -174 -451 -174q-94 0 -173.5 39.5t-127.5 124.5l2 -2q-65 135 -65 354q0 13 2 19v18v29q37 491 47 1012l-150 12l-43 6q-9 1 -26.5 3t-26.5 3l-51 6q-7 1 -22 2t-21 2v-135q0 -29 2 -43v-45q0 -542 -64 -1140z" />
    <glyph glyph-name="Umacron" unicode="&#x16a;" horiz-adv-x="3119" 
d="M1229 3813l-35 -59q20 -39 20 -86q0 -69 -88 -188q101 0 158 2q56 0 171 1t173 1h156h155q56 0 169.5 -1t170.5 -1q55 -2 156 -2q-63 91 -63 143q0 66 90 192q-196 -4 -328 -4q-59 -2 -172 -2q-57 -2 -158 -2q-290 0 -575 6zM702 2998v-141q0 -772 -92 -1694
q-14 -147 -14 -260q0 -190 41 -330q52 -181 158 -301q136 -144 372 -206q183 -48 441 -48q256 0 456 54q248 67 424 235q155 167 228 404q57 184 75 444q82 1075 242 1886l-156 -14q-153 -17 -294 -27q-38 -229 -56 -368q-57 -417 -92 -768q-23 -215 -39 -373
q-18 -203 -59 -346q-53 -186 -150 -314q-88 -99 -245 -147q-126 -39 -289 -39q-166 0 -283 35q-148 45 -219 147h2q-104 155 -104 441q0 93 10 213q71 859 84 1515q-160 10 -395 41z" />
    <glyph glyph-name="umacron" unicode="&#x16b;" horiz-adv-x="2770" 
d="M926 3103l-35 -60q20 -39 20 -86q0 -69 -88 -188q101 0 158 2q56 0 171 1t173 1h156h155q56 0 170 -1t170 -1q55 -2 156 -2q-64 93 -64 143q0 65 91 193q-196 -4 -328 -4q-59 -2 -172 -2q-57 -2 -158 -2q-290 0 -575 6zM489 918q-10 -113 -10 -209q0 -246 82 -437
q74 -142 238 -209q139 -61 321 -61h54q188 0 364.5 87.5t308.5 238.5q-4 -36 -22 -281q14 -1 45 -2t47 -2q86 -5 217 -16l92 -7q3 1116 250 2261q-70 -8 -235 -20q-140 -13 -238 -16q-99 -583 -137 -934v2q-48 -309 -209 -488v2q-163 -174 -451 -174q-94 0 -173.5 39.5
t-127.5 124.5l2 -2q-65 135 -65 354q0 13 2 19v18v29q37 491 47 1012l-150 12l-43 6q-9 1 -26.5 3t-26.5 3l-51 6q-7 1 -22 2t-21 2v-135q0 -29 2 -43v-45q0 -542 -64 -1140z" />
    <glyph glyph-name="Uring" unicode="&#x16e;" horiz-adv-x="3119" 
d="M2329 3789q0 21 2 31v34q0 217 -140 351q-141 131 -344 131q-264 0 -430 -181q-77 -83 -118.5 -195t-41.5 -235q0 -216 136 -352q131 -131 348 -131q245 0 405 154q162 153 183 393zM2056 3805v-12q-23 -120 -96 -193q-82 -82 -195 -82q-104 0 -169.5 63.5t-65.5 168.5
q0 131 82 219t209 88q106 -5 171.5 -68.5t65.5 -166.5v-9q-2 -2 -2 -8zM702 2998v-141q0 -772 -92 -1694q-14 -147 -14 -260q0 -190 41 -330q52 -181 158 -301q136 -144 372 -206q183 -48 441 -48q256 0 456 54q248 67 424 235q155 167 228 404q57 184 75 444
q82 1075 242 1886l-156 -14q-153 -17 -294 -27q-38 -229 -56 -368q-57 -417 -92 -768q-23 -215 -39 -373q-18 -203 -59 -346q-53 -186 -150 -314q-88 -99 -245 -147q-126 -39 -289 -39q-166 0 -283 35q-148 45 -219 147h2q-104 155 -104 441q0 93 10 213q71 859 84 1515
q-160 10 -395 41z" />
    <glyph glyph-name="uring" unicode="&#x16f;" horiz-adv-x="2770" 
d="M2025 3078q0 16 3 31v35q0 216 -140 350q-141 131 -344 131q-265 0 -430 -180q-77 -83 -118.5 -195t-41.5 -235q0 -217 136 -353q131 -131 348 -131q245 0 405 154q161 152 182 393zM1753 3095v-13q-22 -118 -96 -192q-82 -82 -195 -82q-104 0 -169.5 63t-65.5 168
q0 131 82 219t209 88q106 -5 171.5 -68.5t65.5 -166.5v-8q-2 -2 -2 -8zM489 918q-10 -113 -10 -209q0 -246 82 -437q74 -142 238 -209q139 -61 321 -61h54q188 0 364.5 87.5t308.5 238.5q-4 -36 -22 -281q14 -1 45 -2t47 -2q86 -5 217 -16l92 -7q3 1116 250 2261
q-70 -8 -235 -20q-140 -13 -238 -16q-99 -583 -137 -934v2q-48 -309 -209 -488v2q-163 -174 -451 -174q-94 0 -173.5 39.5t-127.5 124.5l2 -2q-65 135 -65 354q0 13 2 19v18v29q37 491 47 1012l-150 12l-43 6q-9 1 -26.5 3t-26.5 3l-51 6q-7 1 -22 2t-21 2v-135q0 -29 2 -43
v-45q0 -542 -64 -1140z" />
    <glyph glyph-name="Uhungarumlaut" unicode="&#x170;" horiz-adv-x="3119" 
d="M2181 4026l-33 -14q-41 -52 -88.5 -120.5t-71.5 -106t-85.5 -136.5t-73.5 -118v2l-170 -273h215q48 0 102 -4q158 236 294.5 416.5t312.5 364.5h-119q-9 -1 -28 -2t-26 -2h3q-136 -7 -232 -7zM1509 4024l-34 -20q-105 -215 -212.5 -394.5t-258.5 -365.5q140 7 167 8
q62 0 93 2t73 2q138 162 351 484q40 60 43 65l51 76q23 36 96 141h-84h-100q-68 0 -99 2h-86zM702 2998v-141q0 -772 -92 -1694q-14 -147 -14 -260q0 -190 41 -330q52 -181 158 -301q136 -144 372 -206q183 -48 441 -48q256 0 456 54q248 67 424 235q155 167 228 404
q57 184 75 444q82 1075 242 1886l-156 -14q-153 -17 -294 -27q-38 -229 -56 -368q-57 -417 -92 -768q-23 -215 -39 -373q-18 -203 -59 -346q-53 -186 -150 -314q-88 -99 -245 -147q-126 -39 -289 -39q-166 0 -283 35q-148 45 -219 147h2q-104 155 -104 441q0 93 10 213
q71 859 84 1515q-160 10 -395 41z" />
    <glyph glyph-name="uhungarumlaut" unicode="&#x171;" horiz-adv-x="2770" 
d="M1878 3316l-33 -15q-41 -52 -88.5 -120.5t-71.5 -106t-85.5 -136.5t-73.5 -118v2l-170 -272h215q48 0 102 -4q158 237 294 416.5t312 363.5h-118q-9 -1 -28 -2t-26 -2h2q-117 -6 -231 -6zM1206 3314l-35 -21q-105 -215 -212.5 -394.5t-258.5 -365.5q12 1 43 3t63.5 3.5
t61.5 2.5q62 0 93 2t73 2q136 160 350 483q35 52 43 66l52 75q33 51 96 142h-84h-100q-68 0 -99 2h-86zM489 918q-10 -113 -10 -209q0 -246 82 -437q74 -142 238 -209q139 -61 321 -61h54q188 0 364.5 87.5t308.5 238.5q-4 -36 -22 -281q14 -1 45 -2t47 -2q86 -5 217 -16
l92 -7q3 1116 250 2261q-70 -8 -235 -20q-140 -13 -238 -16q-99 -583 -137 -934v2q-48 -309 -209 -488v2q-163 -174 -451 -174q-94 0 -173.5 39.5t-127.5 124.5l2 -2q-65 135 -65 354q0 13 2 19v18v29q37 491 47 1012l-150 12l-43 6q-9 1 -26.5 3t-26.5 3l-51 6q-7 1 -22 2
t-21 2v-135q0 -29 2 -43v-45q0 -542 -64 -1140z" />
    <glyph glyph-name="Uogonek" unicode="&#x172;" horiz-adv-x="3119" 
d="M2877 3027l156 14q-160 -811 -242 -1886q-18 -260 -75 -444q-73 -237 -228 -404q-176 -168 -424 -235q-99 -27 -198 -39q-50 -66 -70 -101q-76 -124 -76 -196q0 -56 43 -90.5t105 -34.5q132 0 286 70v-48q-2 -20 -2 -61q-2 -20 -2 -59q-2 -20 -2 -50q0 -12 2 -16v-16v-64
q-179 -31 -288 -31q-11 0 -15 2h-16q-61 4 -98 7.5t-88.5 15t-92.5 29.5q-139 75 -139 256q0 122 78 274q26 51 61 98q-219 3 -385 48q-236 62 -372 206q-106 120 -158 301q-41 140 -41 330q0 113 14 260q92 922 92 1694v141l46 39q235 -31 395 -41q-13 -656 -84 -1515
q-10 -120 -10 -213q0 -286 104 -441h-2q71 -102 219 -147q117 -35 283 -35q163 0 289 39q157 48 245 147q97 128 150 314q41 143 59 346q16 158 39 373q35 351 92 768q18 139 56 368q141 10 294 27z" />
    <glyph glyph-name="uogonek" unicode="&#x173;" horiz-adv-x="2770" 
d="M1978 -377q0 -56 43 -90.5t105 -34.5q133 0 287 70v-47q-3 -30 -3 -62q-2 -20 -2 -59q-2 -20 -2 -49q0 -13 2 -17v-16v-63q-179 -31 -288 -31q-11 0 -15 2h-16q-64 4 -99 7.5t-87 14.5t-93 29q-139 75 -139 256q0 122 78 274q55 104 143 205l31 13h62q25 -2 77 -2h78h58
l-64 4q-131 11 -217 16q-16 1 -47 2t-45 2q18 245 22 281q-132 -151 -308.5 -238.5t-364.5 -87.5h-54q-182 0 -321 61q-164 67 -238 209q-82 191 -82 437q0 96 10 209q64 598 64 1140v45q-2 14 -2 43v135q6 -1 21 -2t22 -2l51 -6q9 -1 26.5 -3t26.5 -3l43 -6l150 -12
q-10 -521 -47 -1012v-29v-18q-2 -6 -2 -19q0 -219 65 -354l-2 2q48 -85 127.5 -124.5t173.5 -39.5q288 0 451 174v-2q161 179 209 488v-2q38 351 137 934q98 3 238 16q165 12 235 20q-247 -1145 -250 -2261l-24 3q-111 -143 -148 -203q-76 -124 -76 -197z" />
    <glyph glyph-name="Wcircumflex" unicode="&#x174;" horiz-adv-x="4454" 
d="M2902 4022h-322q-36 -50 -83 -119l-87 -118q-114 -165 -176 -246q-109 -141 -252 -291l209 4l133 4q32 34 65.5 70.5t56.5 62.5t59 68.5t51 60t55.5 66.5t50.5 61h-2l56 70l34 -57q166 -262 277 -402l133 -4l203 -4q-126 161 -221 322q-82 139 -160 295zM1137 3013
l-424 30q195 -682 301 -1482q84 -668 114 -1510l160 6q69 3 172 6q201 7 332 7q113 223 362 749q153 323 347 758q12 -46 14 -51q1 -7 4 -18t4 -15l19 -84q73 -295 114.5 -457.5t113.5 -415.5t144 -464q38 -1 143 -4.5t165 -4.5q58 -1 163 -4t144 -4q194 830 417 1501
q257 784 607 1485q-23 0 -101 -4q-20 -2 -59 -2q-8 -1 -24.5 -2t-22.5 -2q-100 -8 -232 -12q-254 -473 -469.5 -980.5t-437.5 -1116.5l-86 227q-71 193 -149 418l-80 227q-26 78 -162 453h-363q-85 -140 -157 -265q-100 -173 -156 -268q-231 -402 -450 -756
q-90 565 -191 1033q-130 586 -276 1022z" />
    <glyph glyph-name="wcircumflex" unicode="&#x175;" horiz-adv-x="3631" 
d="M2324 3312h-321q-49 -68 -84 -119l-86 -119q-114 -165 -176 -246q-109 -141 -252 -291l209 5l133 4q32 34 65.5 70.5t56.5 62.5t59 68.5t51 60t55.5 66.5t50.5 61h-2l55 69l35 -57q166 -264 276 -401l134 -4l202 -5q-126 161 -221 322q-82 139 -160 295zM580 2273
l-41 -51q158 -479 252 -1059q72 -444 127 -1116h53q43 0 129 4h55q264 6 283 6q199 355 485 930q69 -239 148 -467q80 -245 163 -461q58 0 95 -2q35 -2 92 -2q28 -1 86 -2t88 -2l176 -6q138 610 317 1122q204 592 480 1112q-10 -1 -31.5 -2t-32.5 -2l-78 -6q-9 0 -143 -8
l-133 -8q-179 -338 -323 -691t-296 -790q-80 186 -157 379q-89 220 -152 379q-114 -4 -197 -4h-307q-75 -128 -82 -140q-1 -1 -82 -141l-137 -233q-63 -101 -141 -238q-143 860 -354 1477q-212 12 -342 22z" />
    <glyph glyph-name="Ycircumflex" unicode="&#x176;" horiz-adv-x="3162" 
d="M2238 4022h-321q-49 -68 -84 -119l-86 -118q-114 -165 -176 -246q-109 -141 -252 -291l209 4l133 4q32 34 65.5 70.5t56.5 62.5t59 68.5t51 60t55.5 66.5t50.5 61h-2l55 70l35 -57q169 -268 276 -402l134 -4l202 -4q-126 161 -221 322q-82 139 -160 295zM739 3039
l-39 -57q138 -292 297 -667.5t235.5 -565.5t268.5 -676q-17 -203 -49 -500q-26 -241 -51 -499h45q33 0 51 2h51h43h144q110 0 254 -4q37 668 69 1001q81 143 88 154l90 153q228 395 498 842q279 462 526 823l-161 -14q-161 -15 -326 -25q-351 -508 -942 -1468
q-257 578 -332 737q-182 386 -354 725q-237 18 -406 39z" />
    <glyph glyph-name="ycircumflex" unicode="&#x177;" horiz-adv-x="2848" 
d="M1608 3312h-322q-49 -68 -84 -119l-86 -119q-114 -165 -176 -246q-109 -141 -252 -291l209 5l133 4q32 34 65.5 70.5t56.5 62.5t59 68.5t51 60t55.5 66.5t50.5 61h-2l55 69l35 -57q163 -257 277 -401l133 -4l202 -5q-126 161 -221 322q-75 128 -159 295zM1610 -141
l250 538q185 399 301.5 646.5t293.5 604t330 636.5q-72 -10 -102 -13l-121 -12q-176 -21 -221 -23q-281 -460 -707 -1237q-109 215 -321 621q-55 103 -336 614q-46 2 -213 23q-93 10 -213 27q164 -390 375 -941q29 -75 358 -952l55 -149l-39 -68q-70 -110 -133 -227
q-123 -133 -194 -191l2 2q-34 -26 -72 -42t-89 -24t-80.5 -10.5t-94.5 -5.5q-10 -1 -35.5 -2t-38.5 -2l-76 -6q-2 -14 -4.5 -30.5t-6 -38.5t-5.5 -35l-16 -103q-3 -20 -11 -73.5t-12 -83.5l-28 -158q18 2 49 6q77 8 118 10q8 1 26.5 2t25.5 2q194 12 299 33q161 33 280 117
q120 93 236 254q77 113 170 291z" />
    <glyph glyph-name="Ydieresis" unicode="&#x178;" horiz-adv-x="3162" 
d="M2241 3777l-37 -29q-35 -134 -35 -275q0 -71 4 -125h80q33 -2 80 -2h69q27 -2 80 -2q27 -2 78 -2q27 -2 70 -2q-41 118 -41 181q0 99 82 266q-31 -2 -101 -2q-20 -1 -57.5 -2t-56.5 -2q-152 -4 -215 -4zM1473 3785l-41 -51q20 -61 20 -130q0 -117 -78 -264q45 0 72 2
q53 0 82 2q55 0 82 2h67q45 0 78 2h76q39 179 39 324v14q-2 4 -2 17v74q-31 1 -97 2t-100 2q-76 0 -198 4zM739 3039l-39 -57q138 -292 297 -667.5t235.5 -565.5t268.5 -676q-17 -203 -49 -500q-26 -241 -51 -499h45q33 0 51 2h51h43h144q110 0 254 -4q37 668 69 1001
q81 143 88 154l90 153q228 395 498 842q279 462 526 823l-161 -14q-161 -15 -326 -25q-351 -508 -942 -1468q-257 578 -332 737q-182 386 -354 725q-237 18 -406 39z" />
    </font>
</defs>
</svg>
